<svg width="368" height="179" viewBox="0 0 368 179" fill="none" xmlns="http://www.w3.org/2000/svg">
<g clip-path="url(#clip0_1_3)">
<path d="M51.0584 82.1991C58.7147 82.1991 66.6001 85.3345 70.4282 93.6835H89.5688C84.1157 77.3293 68.4594 65.9595 51.0584 65.9595C28.7876 65.9595 10.4594 84.2877 10.4594 106.564C10.4594 128.835 28.7876 147.163 51.0584 147.163C73.5636 147.163 91.5428 128.949 91.5428 106.564V103.892H52.6834V117.001H72.7511C68.4594 128.949 58.7147 131.387 51.0584 131.387C38.5272 131.387 28.0897 120.131 28.0897 106.793C28.0897 93.4543 38.5272 82.1991 51.0584 82.1991Z" fill="#7CB340"/>
<path d="M255.652 112.59C255.652 98.6682 250.084 89.2724 236.397 89.2724C229.668 89.2724 224.215 92.288 220.735 96.6995V90.4339H203.334V141.59H220.735V116.069C220.735 109.111 225.027 103.309 230.48 103.309C235.933 103.309 238.251 106.559 238.251 112.59V141.59H255.652V112.59Z" fill="#7CB340"/>
<path d="M258.086 169.199C260.872 170.127 263.888 170.59 266.44 170.59C280.711 170.59 286.393 158.064 286.393 145.418V90.4339H267.83V144.955C267.83 149.246 268.414 154.351 263.31 154.351C260.638 154.351 258.086 152.496 258.086 152.496V169.199ZM266.903 72.9182C266.903 78.4859 271.544 83.1266 277.112 83.1266C282.679 83.1266 287.32 78.4859 287.32 72.9182C287.32 67.2359 282.679 62.7099 277.112 62.7099C271.544 62.7099 266.903 67.2359 266.903 72.9182Z" fill="#7CB340"/>
<path d="M316.086 109.923C316.086 109.923 316.67 100.408 327.571 100.408C338.128 100.408 338.941 109.923 338.941 109.923H316.086ZM355.644 114.908C355.644 98.5537 342.769 89.2724 327.222 89.2724C310.055 89.2724 297.415 100.064 297.415 116.069C297.415 132.309 309.592 142.752 327.222 142.752C340.795 142.752 351.701 136.022 354.717 122.564H336.967C336.852 126.278 333.024 130.34 326.878 130.34C320.034 130.34 315.857 124.074 315.857 118.158H355.529C355.529 117.116 355.644 115.955 355.644 114.908Z" fill="#7CB340"/>
<path d="M128.029 75.3225L166.489 55.495L184.777 92.7643L184.884 92.9838L185.004 93.1972C186.029 95.0276 186.973 97.7144 187.717 100.673C188.392 103.358 188.791 105.814 188.959 107.246C189.385 122.532 180.581 134.912 176.494 138.784L176.472 138.804L176.45 138.825C158.253 156.294 135.77 149.535 126.374 143.493C105.367 128.85 107.064 106.016 110.592 96.4294L110.662 96.2384L110.723 96.0444C114.292 84.8029 124.002 77.3713 127.986 75.3445L128.007 75.3336L128.029 75.3225Z" stroke="#FDD835" stroke-width="18"/>
<path d="M193.294 13.6311C179.277 21.3175 172.759 35.673 171.252 41.89C184.816 35.3339 202.713 50.2734 209.966 58.5627C219.009 71.9009 227.675 68.6417 230.878 65.3448C236.756 55.8499 227.299 47.2592 221.835 44.1507C202.393 30.3603 181.142 35.5788 172.947 39.9118C183.121 21.8261 208.554 30.5864 221.835 26.6302C232.461 23.4652 230.972 15.1382 228.9 11.3703C220.761 1.64928 201.771 8.82705 193.294 13.6311Z" fill="#7CB340"/>
</g>
<defs>
<clipPath id="clip0_1_3">
<rect width="368" height="179" fill="white"/>
</clipPath>
</defs>
</svg>
