<?xml version="1.0" encoding="UTF-8"?>
<svg width="28px" height="27px" viewBox="0 0 28 27" version="1.1" xmlns="http://www.w3.org/2000/svg" xmlns:xlink="http://www.w3.org/1999/xlink">
    <!-- Generator: Sketch 61.2 (89653) - https://sketch.com -->
    <title>Group 3</title>
    <desc>Created with Sketch.</desc>
    <g id="final" stroke="none" stroke-width="1" fill="none" fill-rule="evenodd">
        <g id="Invoices-edit" transform="translate(-1448.000000, -228.000000)">
            <g id="Group-3" transform="translate(1448.750000, 227.991432)">
                <circle id="Oval" fill-opacity="0.9" fill="#FBDDA2" cx="13.3023726" cy="13.3023726" r="13.3023726"></circle>
                <g id="entypo:plus" transform="translate(7.802373, 7.802373)" fill="#FFFFFF" fill-rule="nonzero">
                    <path d="M10.8,5.4 C10.8,5.8977 10.7568,6.3 10.2591,6.3 L6.3,6.3 L6.3,10.2591 C6.3,10.7559 5.8977,10.8 5.4,10.8 C4.9023,10.8 4.5,10.7559 4.5,10.2591 L4.5,6.3 L0.5409,6.3 C0.0441,6.3 0,5.8977 0,5.4 C0,4.9023 0.0441,4.5 0.5409,4.5 L4.5,4.5 L4.5,0.5409 C4.5,0.0432 4.9023,0 5.4,0 C5.8977,0 6.3,0.0432 6.3,0.5409 L6.3,4.5 L10.2591,4.5 C10.7568,4.5 10.8,4.9023 10.8,5.4 Z" id="Path"></path>
                </g>
            </g>
        </g>
    </g>
</svg>