<svg width="16px" height="16px" viewBox="0 0 16 16" version="1.1"
                            xmlns="http://www.w3.org/2000/svg" xmlns:xlink="http://www.w3.org/1999/xlink">
                            <g id="final" stroke="none" stroke-width="1" fill="none" fill-rule="evenodd">
                                <g id="Inventory" transform="translate(-1380.000000, -171.000000)">
                                    <g id="fluent:add-16-filled" transform="translate(1378.000000, 169.086000)">
                                        <rect id="ViewBox" x="0" y="0" width="21.12" height="21.12"></rect>
                                        <g id="Group" transform="translate(2.640000, 2.640000)" fill="#fff"
                                            fill-rule="nonzero">
                                            <path
                                                d="M8.58,0.99 C8.58,0.443238098 8.1367619,0 7.59,0 C7.0432381,0 6.6,0.443238098 6.6,0.99 L6.6,6.6 L0.99,6.6 C0.443238098,6.6 0,7.0432381 0,7.59 C0,8.1367619 0.443238098,8.58 0.99,8.58 L6.6,8.58 L6.6,14.19 C6.6,14.7367619 7.0432381,15.18 7.59,15.18 C8.1367619,15.18 8.58,14.7367619 8.58,14.19 L8.58,8.58 L14.19,8.58 C14.7367619,8.58 15.18,8.1367619 15.18,7.59 C15.18,7.0432381 14.7367619,6.6 14.19,6.6 L8.58,6.6 L8.58,0.99 Z"
                                                id="Path"></path>
                                        </g>
                                    </g>
                                </g>
                            </g>
                        </svg> 