<?xml version="1.0" encoding="UTF-8"?>
<svg width="21px" height="20px" viewBox="0 0 21 20" version="1.1" xmlns="http://www.w3.org/2000/svg" xmlns:xlink="http://www.w3.org/1999/xlink">
    <title>icomoon-free:attachment</title>
    <g id="final" stroke="none" stroke-width="1" fill="none" fill-rule="evenodd">
        <g id="message-compose" transform="translate(-1068.000000, -721.000000)">
            <g id="Group-2" transform="translate(492.000000, 545.025234)">
                <g id="icomoon-free:attachment" transform="translate(576.400000, 175.974766)">
                    <rect id="ViewBox" x="0" y="0" width="19.2" height="19.2"></rect>
                    <path d="M12.4848,6.132 L11.2668,4.9152 L5.1768,11.004 C4.52429011,11.6567242 4.26957034,12.6079762 4.50859117,13.4994284 C4.747612,14.3908807 5.44406047,15.0871004 6.33559119,15.3258284 C7.2271219,15.5645565 8.17829013,15.3095242 8.8308,14.6568 L16.1388,7.35 C17.8201756,5.66829293 17.819907,2.94197572 16.1382,1.26060005 C14.4564929,-0.420775629 11.7301757,-0.42050702 10.0488,1.2612 L2.376,8.9328 L2.3592,8.9484 C0.0132,11.2944 0.0132,15.096 2.3592,17.4408 C4.7052,19.7856 8.5068,19.7856 10.8528,17.4408 L10.8684,17.424 L10.8696,17.4252 L16.1076,12.1884 L14.8896,10.9716 L9.6516,16.2072 L9.636,16.2228 C7.9656,17.8932 5.2488,17.8932 3.5784,16.2228 C2.77366685,15.4163059 2.3231175,14.3226184 2.32626973,13.1833124 C2.32942196,12.0440063 2.7860164,10.9528287 3.5952,10.1508 L3.594,10.1496 L11.268,2.478 C12.2748,1.47 13.914,1.47 14.922,2.478 C15.93,3.486 15.9288,5.124 14.922,6.1308 L7.614,13.4376 C7.27419083,13.7501662 6.74839694,13.7393221 6.4217641,13.4130111 C6.09513127,13.0867001 6.08376891,12.5609171 6.396,12.2208 L12.486,6.1308 L12.4848,6.132 Z" id="Path" fill="#000000" fill-rule="nonzero"></path>
                </g>
            </g>
        </g>
    </g>
</svg>