<?xml version="1.0" encoding="UTF-8"?>
<svg width="18px" height="19px" viewBox="0 0 18 19" version="1.1" xmlns="http://www.w3.org/2000/svg" xmlns:xlink="http://www.w3.org/1999/xlink">
    <!-- Generator: Sketch 61.2 (89653) - https://sketch.com -->
    <title>Shape</title>
    <desc>Created with Sketch.</desc>
    <g id="final" stroke="none" stroke-width="1" fill="none" fill-rule="evenodd">
        <g id="Invoices-edit" transform="translate(-1060.000000, -347.000000)" fill="#000000" fill-rule="nonzero">
            <g id="uil:calender" transform="translate(1058.200000, 345.243252)">
                <path d="M17.1,3.6 L15.3,3.6 L15.3,2.7 C15.3,2.20294373 14.8970563,1.8 14.4,1.8 C13.9029437,1.8 13.5,2.20294373 13.5,2.7 L13.5,3.6 L8.1,3.6 L8.1,2.7 C8.1,2.20294373 7.69705627,1.8 7.2,1.8 C6.70294373,1.8 6.3,2.20294373 6.3,2.7 L6.3,3.6 L4.5,3.6 C3.00883118,3.6 1.8,4.80883118 1.8,6.3 L1.8,17.1 C1.8,18.5911688 3.00883118,19.8 4.5,19.8 L17.1,19.8 C18.5911688,19.8 19.8,18.5911688 19.8,17.1 L19.8,6.3 C19.8,4.80883118 18.5911688,3.6 17.1,3.6 Z M18,17.1 C18,17.5970563 17.5970563,18 17.1,18 L4.5,18 C4.00294373,18 3.6,17.5970563 3.6,17.1 L3.6,10.8 L18,10.8 L18,17.1 Z M18,9 L3.6,9 L3.6,6.3 C3.6,5.80294373 4.00294373,5.4 4.5,5.4 L6.3,5.4 L6.3,6.3 C6.3,6.79705627 6.70294373,7.2 7.2,7.2 C7.69705627,7.2 8.1,6.79705627 8.1,6.3 L8.1,5.4 L13.5,5.4 L13.5,6.3 C13.5,6.79705627 13.9029437,7.2 14.4,7.2 C14.8970563,7.2 15.3,6.79705627 15.3,6.3 L15.3,5.4 L17.1,5.4 C17.5970563,5.4 18,5.80294373 18,6.3 L18,9 Z" id="Shape"></path>
            </g>
        </g>
    </g>
</svg>