<?xml version="1.0" encoding="UTF-8"?>
<svg width="17px" height="13px" viewBox="0 0 17 13" version="1.1" xmlns="http://www.w3.org/2000/svg" xmlns:xlink="http://www.w3.org/1999/xlink">
    <!-- Generator: Sketch 61.2 (89653) - https://sketch.com -->
    <title>Shape</title>
    <desc>Created with Sketch.</desc>
    <g id="Page-1" stroke="none" stroke-width="1" fill="none" fill-rule="evenodd">
        <g id="Drop_down" transform="translate(-1326.000000, -283.000000)" fill="#BA269A" fill-rule="nonzero">
            <g id="Group-5" transform="translate(1302.000000, 101.078750)">
                <g id="bi:credit-card-2-back-fill" transform="translate(24.375000, 180.877031)">
                    <g id="Group" transform="translate(0.000000, 2.000000)">
                        <path d="M0.0236739551,2 C0.0236739551,0.8954305 0.919104455,0 2.02367396,0 L14.023674,0 C15.1282435,0 16.023674,0.8954305 16.023674,2 L16.023674,7 L0.0236739551,7 L0.0236739551,2 Z M11.523674,3 C11.2475316,3 11.023674,3.22385763 11.023674,3.5 L11.023674,4.5 C11.023674,4.77614237 11.2475316,5 11.523674,5 L13.523674,5 C13.7998163,5 14.023674,4.77614237 14.023674,4.5 L14.023674,3.5 C14.023674,3.22385763 13.7998163,3 13.523674,3 L11.523674,3 Z M0.0236739551,9 L0.0236739551,10 C0.0236739551,11.1045695 0.919104455,12 2.02367396,12 L14.023674,12 C15.1282435,12 16.023674,11.1045695 16.023674,10 L16.023674,9 L0.0236739551,9 Z" id="Shape"></path>
                    </g>
                </g>
            </g>
        </g>
    </g>
</svg>