<?xml version="1.0" encoding="UTF-8"?>
<svg width="15px" height="15px" viewBox="0 0 15 15" version="1.1" xmlns="http://www.w3.org/2000/svg" xmlns:xlink="http://www.w3.org/1999/xlink">
    <!-- Generator: Sketch 61.2 (89653) - https://sketch.com -->
    <title>fe:search</title>
    <desc>Created with Sketch.</desc>
    <g id="final" stroke="none" stroke-width="1" fill="none" fill-rule="evenodd">
        <g id="Deliver-Order" transform="translate(-738.000000, -172.000000)">
            <g id="fe:search" transform="translate(737.458333, 171.072000)">
                <rect id="ViewBox" x="0" y="0" width="16.8" height="16.8"></rect>
                <path d="M11.4275,10.4293 L15.1935,14.1953 C15.4691453,14.4711386 15.4689886,14.9182047 15.19315,15.19385 C14.9173114,15.4694953 14.4702453,15.4693386 14.1946,15.1935 L10.4286,11.4275 C8.0920105,13.2372732 4.75124718,12.9196725 2.79753746,10.7020278 C0.843827747,8.48438318 0.949835694,5.13023171 3.0396837,3.0403837 C5.12953171,0.950535694 8.48368318,0.844527747 10.7013278,2.79823746 C12.9189725,4.75194718 13.2365732,8.0927105 11.4268,10.4293 L11.4275,10.4293 Z M7,11.2 C9.31959595,11.2 11.2,9.31959595 11.2,7 C11.2,4.68040405 9.31959595,2.8 7,2.8 C4.68040405,2.8 2.8,4.68040405 2.8,7 C2.8,9.31959595 4.68040405,11.2 7,11.2 Z" id="Shape" fill="#000000"></path>
            </g>
        </g>
    </g>
</svg>