<?xml version="1.0" encoding="UTF-8"?>
<svg width="13px" height="13px" viewBox="0 0 13 13" version="1.1" xmlns="http://www.w3.org/2000/svg" xmlns:xlink="http://www.w3.org/1999/xlink">
    <!-- Generator: Sketch 61.2 (89653) - https://sketch.com -->
    <title>Group</title>
    <desc>Created with Sketch.</desc>
    <g id="final" stroke="none" stroke-width="1" fill="none" fill-rule="evenodd">
        <g id="Deliver-Order" transform="translate(-1032.000000, -173.000000)" fill="#000000" fill-rule="nonzero">
            <g id="Group-8" transform="translate(1030.125000, 169.572000)">
                <g id="mi:filter" transform="translate(0.000000, 1.500000)">
                    <g id="Group" transform="translate(2.800000, 2.100000)">
                        <path d="M3.5,1.4 C3.11340068,1.4 2.8,1.71340068 2.8,2.1 C2.8,2.48659932 3.11340068,2.8 3.5,2.8 C3.88659932,2.8 4.2,2.48659932 4.2,2.1 C4.2,1.71340068 3.88659932,1.4 3.5,1.4 Z M1.519,1.4 C1.81537952,0.560027527 2.60927301,-0.00171538644 3.5,-0.00171538644 C4.39072699,-0.00171538644 5.18462048,0.560027527 5.481,1.4 L10.5,1.4 C10.8865993,1.4 11.2,1.71340068 11.2,2.1 C11.2,2.48659932 10.8865993,2.8 10.5,2.8 L5.481,2.8 C5.18462048,3.63997247 4.39072699,4.20171539 3.5,4.20171539 C2.60927301,4.20171539 1.81537952,3.63997247 1.519,2.8 L0.7,2.8 C0.313400675,2.8 0,2.48659932 0,2.1 C0,1.71340068 0.313400675,1.4 0.7,1.4 L1.519,1.4 L1.519,1.4 Z M7.7,5.6 C7.31340068,5.6 7,5.91340068 7,6.3 C7,6.68659932 7.31340068,7 7.7,7 C8.08659932,7 8.4,6.68659932 8.4,6.3 C8.4,5.91340068 8.08659932,5.6 7.7,5.6 Z M5.719,5.6 C6.01537952,4.76002753 6.80927301,4.19828461 7.7,4.19828461 C8.59072699,4.19828461 9.38462048,4.76002753 9.681,5.6 L10.5,5.6 C10.8865993,5.6 11.2,5.91340068 11.2,6.3 C11.2,6.68659932 10.8865993,7 10.5,7 L9.681,7 C9.38462048,7.83997247 8.59072699,8.40171539 7.7,8.40171539 C6.80927301,8.40171539 6.01537952,7.83997247 5.719,7 L0.7,7 C0.313400675,7 0,6.68659932 0,6.3 C0,5.91340068 0.313400675,5.6 0.7,5.6 L5.719,5.6 L5.719,5.6 Z M3.5,9.8 C3.11340068,9.8 2.8,10.1134007 2.8,10.5 C2.8,10.8865993 3.11340068,11.2 3.5,11.2 C3.88659932,11.2 4.2,10.8865993 4.2,10.5 C4.2,10.1134007 3.88659932,9.8 3.5,9.8 Z M1.519,9.8 C1.81537952,8.96002753 2.60927301,8.39828461 3.5,8.39828461 C4.39072699,8.39828461 5.18462048,8.96002753 5.481,9.8 L10.5,9.8 C10.8865993,9.8 11.2,10.1134007 11.2,10.5 C11.2,10.8865993 10.8865993,11.2 10.5,11.2 L5.481,11.2 C5.18462048,12.0399725 4.39072699,12.6017154 3.5,12.6017154 C2.60927301,12.6017154 1.81537952,12.0399725 1.519,11.2 L0.7,11.2 C0.313400675,11.2 0,10.8865993 0,10.5 C0,10.1134007 0.313400675,9.8 0.7,9.8 L1.519,9.8 Z" id="Shape"></path>
                    </g>
                </g>
            </g>
        </g>
    </g>
</svg>