<?xml version="1.0" encoding="UTF-8"?>
<svg width="31px" height="23px" viewBox="0 0 31 23" version="1.1" xmlns="http://www.w3.org/2000/svg" xmlns:xlink="http://www.w3.org/1999/xlink">
    <!-- Generator: Sketch 61.2 (89653) - https://sketch.com -->
    <title>add-users</title>
    <desc>Created with Sketch.</desc>
    <g id="final" stroke="none" stroke-width="1" fill="none" fill-rule="evenodd">
        <g id="Accounting" transform="translate(-32.000000, -608.000000)" fill-rule="nonzero">
            <g id="add-users" transform="translate(32.676538, 608.389219)">
                <path d="M29.52,8.988 L29.52,13.53 L24.762,13.53 L24.75,13.548 C23.8947951,12.8493024 22.8243341,12.467752 21.72,12.468 C21.4789746,12.4676252 21.2382732,12.4856778 21,12.522 C20.9632623,11.6896724 20.5697201,10.9135197 19.92,10.392 L19.92,10.392 L19.92,8.988 C19.92,7.71124801 20.9532523,6.67530765 22.23,6.672 C22.8123159,7.46417484 23.7368251,7.93199803 24.72,7.93199803 C25.7031749,7.93199803 26.6276841,7.46417484 27.21,6.672 C28.4867477,6.67530765 29.52,7.71124801 29.52,8.988 L29.52,8.988 Z" id="Path" fill="#00EFD1"></path>
                <circle id="Oval" fill="#EDB288" cx="24.72" cy="3.06" r="2.574"></circle>
                <path d="M19.1715259,13.202072 C20.8992046,12.1191047 23.1225718,12.2460206 24.715792,13.5185542 C26.3090121,14.7910877 26.924238,16.931407 26.2499407,18.855729 C25.5756434,20.780051 23.7590419,22.0682392 21.72,22.0680027 C21.5194559,22.0681477 21.3190877,22.0561256 21.12,22.032 C19.1166376,21.7791734 17.4857995,20.2994276 17.04,18.33 C16.5890605,16.3414464 17.4438472,14.2850394 19.1715259,13.202072 Z" id="Path" fill="#FEDB41"></path>
                <path d="M19.92,10.398 C20.5697822,10.9194692 20.9633397,11.6956521 20.9999974,12.528 C19.6811294,12.7270362 18.5047325,13.4663499 17.7533512,14.5683758 C17.0019699,15.6704017 16.7434928,17.0355699 17.04,18.336 L8.99999736,18.336 L8.99999736,12.66 C8.99896313,11.8926765 9.30332213,11.1564824 9.84590227,10.6139023 C10.3884824,10.0713221 11.1246765,9.76696313 11.892,9.768 C12.6191095,10.7563797 13.7729781,11.3399946 14.9999974,11.3399946 C16.2270219,11.3399946 17.3808905,10.7563797 18.108,9.768 C18.7673754,9.75786504 19.4091342,9.98099308 19.92,10.398 Z" id="Path" fill="#00ACEA"></path>
                <circle id="Oval" fill="#EDB288" cx="15" cy="5.244" r="3.216"></circle>
                <path d="M10.08,8.988 L10.08,10.398 C9.39540021,10.946429 8.99787315,11.7768189 9,12.654 L9,13.53 L0.48,13.53 L0.48,8.988 C0.48,7.71124801 1.51325229,6.67530765 2.79,6.672 C3.37199421,7.46455489 4.29670946,7.93248309 5.28,7.932 C6.26257653,7.93645042 7.18717155,7.46745295 7.764,6.672 C9.04277601,6.67276128 10.0792387,7.70922399 10.08,8.988 L10.08,8.988 Z" id="Path" fill="#00EFD1"></path>
                <circle id="Oval" fill="#EDB288" cx="5.28" cy="3.06" r="2.574"></circle>
                <path d="M15,8.94 C17.0412444,8.94 18.696,7.28524444 18.696,5.244 C18.696,3.20275556 17.0412444,1.548 15,1.548 C12.9587556,1.548 11.304,3.20275556 11.304,5.244 C11.307007,7.28399761 12.9600024,8.93699303 15,8.94 Z M15,2.514 C16.5093929,2.51565776 17.7316539,3.74060602 17.7299984,5.2499989 C17.7283396,6.75939178 16.5033918,7.98165326 14.9939989,7.97999839 C13.484606,7.97834016 12.2623441,6.75339288 12.2639983,5.244 C12.2687572,3.73589583 13.491889,2.51544629 15,2.514 Z M24.72,6.114 C26.4042386,6.1123431 27.7685507,4.74624029 27.7679985,3.06200098 C27.7674461,1.37776168 26.4022383,0.0125539408 24.717999,0.0120014728 C23.0337597,0.01144934 21.6676569,1.37576142 21.666,3.06 C21.6686101,4.74559531 23.0344047,6.11138992 24.72,6.114 L24.72,6.114 Z M24.72,0.972 C25.5669439,0.972 26.3304923,1.48218672 26.6546037,2.26466089 C26.9787152,3.04713506 26.7995614,3.9478018 26.2006816,4.5466816 C25.6018018,5.1455614 24.7011351,5.32471516 23.9186609,5.00060374 C23.1361867,4.67649233 22.626,3.91294394 22.626,3.066 C22.6270585,1.90995447 23.5639545,0.973058529 24.72,0.972 Z" id="Shape" fill="#083863"></path>
                <path d="M27.21,6.192 L26.964,6.192 L26.82,6.39 C26.3286442,7.05772407 25.5490271,7.4519802 24.72,7.4519802 C23.8909729,7.4519802 23.1113558,7.05772407 22.62,6.39 L22.476,6.192 L22.23,6.192 C20.6876197,6.19402015 19.4387068,7.44561888 19.44,8.988 L19.44,9.552 C19.0193537,9.37048795 18.5661371,9.27657822 18.108,9.276 L17.862,9.276 L17.718,9.474 C17.0815439,10.3415093 16.0699409,10.8539928 14.994,10.8539928 C13.9180591,10.8539928 12.9064561,10.3415093 12.27,9.474 L12.126,9.276 L11.88,9.276 C11.4218629,9.27657822 10.9686463,9.37048795 10.548,9.552 L10.548,8.988 C10.547146,7.44650674 9.29948787,6.19616543 7.758,6.192 L7.512,6.192 L7.368,6.39 C6.87664417,7.05772407 6.09702713,7.4519802 5.268,7.4519802 C4.43897287,7.4519802 3.65935583,7.05772407 3.168,6.39 L3.024,6.192 L2.778,6.192 C1.24062621,6.20137269 -0.000556615114,7.45059774 -1.87141492e-07,8.988 L-1.87141492e-07,14.01 L8.52,14.01 L8.52,18.81 L16.668,18.81 C17.2764754,20.8004108 18.9953157,22.2492147 21.06,22.512 C21.278777,22.5411135 21.4992973,22.5551466 21.72,22.554065 C23.7414679,22.553388 25.5852701,21.3990213 26.4688117,19.5808663 C27.3523532,17.7627114 27.1206316,15.5997334 25.872,14.01 L29.9999998,14.01 L29.9999998,8.988 C29.999146,7.44650674 28.7514879,6.19616543 27.21,6.192 Z M0.96,13.05 L0.96,8.988 C0.963601825,8.06095263 1.65428294,7.28040594 2.574,7.164 C3.24992515,7.95592669 4.23883589,8.41201528 5.28,8.41201528 C6.32116411,8.41201528 7.31007485,7.95592669 7.986,7.164 C8.90671074,7.27852313 9.59838792,8.06019549 9.6,8.988 L9.6,10.182 C8.90901544,10.8179054 8.51710553,11.7149436 8.52,12.654 L8.52,13.05 L0.96,13.05 Z M9.48,12.648 C9.48061843,11.4046722 10.4262394,10.3655284 11.664,10.248 C12.4899109,11.2366278 13.7117788,11.8080078 15,11.8080078 C16.2882212,11.8080078 17.5100891,11.2366278 18.336,10.248 C18.8065952,10.2895809 19.2538846,10.4714229 19.62,10.77 L19.92,10.398 L19.92,10.398 L19.62,10.77 C20.0503005,11.115697 20.3489333,11.5985927 20.466,12.138 C18.1037796,12.7184068 16.4422779,14.8355214 16.44,17.268 C16.44,17.46 16.452,17.652 16.47,17.844 L9.48,17.844 L9.48,12.648 Z M21.72,21.588 C21.5394018,21.588 21.3590053,21.5759337 21.18,21.552 C19.3773948,21.3249043 17.9096856,19.9938935 17.508,18.222 C17.4359013,17.909131 17.3996679,17.5890688 17.3999955,17.268 C17.3999955,15.15 18.978,13.314 21.066,12.996 C21.2826261,12.9648804 21.5011517,12.9488418 21.72,12.9479983 C22.7120345,12.947373 23.6740021,13.2885113 24.444,13.914 C25.863313,15.0672707 26.4028374,16.9891909 25.7910781,18.7126274 C25.1793188,20.4360639 23.5487927,21.5876925 21.72,21.588 Z M29.04,13.05 L24.894,13.05 C23.9778999,12.3642819 22.8643114,11.9937874 21.72,11.994 C21.618,11.994 21.516,12 21.414,12.006 C21.2742423,11.3072223 20.9197399,10.6695376 20.4,10.182 L20.4,8.988 C20.4036018,8.06095263 21.0942829,7.28040594 22.014,7.164 C22.6899252,7.95592669 23.6788359,8.41201528 24.72,8.41201528 C25.7611641,8.41201528 26.7500748,7.95592669 27.426,7.164 C28.3467107,7.27852313 29.0383879,8.06019549 29.04,8.988 L29.04,13.05 Z M5.28,6.114 C6.96423858,6.1123431 8.32855066,4.74624029 8.32799853,3.06200098 C8.32744606,1.37776168 6.96223832,0.0125539408 5.27799902,0.0120014728 C3.59375971,0.01144934 2.2276569,1.37576142 2.226,3.06 C2.22861008,4.74559531 3.59440469,6.11138992 5.28,6.114 L5.28,6.114 Z M5.28,0.972 C6.1274892,0.972 6.89141443,1.48284184 7.21517114,2.26605288 C7.53892785,3.04926392 7.35867164,3.95039947 6.75854712,4.54880444 C6.1584226,5.1472094 5.25677352,5.32487912 4.4744947,4.99887637 C3.69221588,4.67287362 3.18357166,3.90748572 3.18599134,3.06 C3.19035913,1.90629831 4.12629055,0.973048639 5.28,0.972 Z" id="Shape" fill="#083863"></path>
                <path d="M23.82,16.8 L22.2,16.8 L22.2,15.162 C22.2,14.8969033 21.9850967,14.682 21.72,14.682 C21.4549033,14.682 21.24,14.8969033 21.24,15.162 L21.24,16.8 L19.62,16.8 C19.3549033,16.8 19.14,17.0149033 19.14,17.28 C19.14,17.5450967 19.3549033,17.76 19.62,17.76 L21.24,17.76 L21.24,19.392 C21.24,19.6570967 21.4549033,19.872 21.72,19.872 C21.9850967,19.872 22.2,19.6570967 22.2,19.392 L22.2,17.76 L23.82,17.76 C24.0850967,17.76 24.3,17.5450967 24.3,17.28 C24.3,17.0149033 24.0850967,16.8 23.82,16.8 Z" id="Path" fill="#083863"></path>
            </g>
        </g>
    </g>
</svg>