<?xml version="1.0" encoding="UTF-8"?>
<svg width="27px" height="25px" viewBox="0 0 27 25" version="1.1" xmlns="http://www.w3.org/2000/svg" xmlns:xlink="http://www.w3.org/1999/xlink">
    <!-- Generator: Sketch 61.2 (89653) - https://sketch.com -->
    <title>storehouse</title>
    <desc>Created with Sketch.</desc>
    <g id="final" stroke="none" stroke-width="1" fill="none" fill-rule="evenodd">
        <g id="Dashboard-Vendor" transform="translate(-24.000000, -242.000000)" fill-rule="nonzero">
            <g id="storehouse" transform="translate(24.676538, 241.972500)">
                <polygon id="Path" fill="#4BAD0B" points="12.79 1.02 7.69 4.0647 12.79 7.1094 17.89 4.0647"></polygon>
                <polyline id="Path" fill="#4BAD0B" points="7.69 4.1259 7.69 10.404 12.79 13.26 17.89 10.404 17.89 4.1259"></polyline>
                <polyline id="Path" fill="#4BAD0B" points="15.3196 5.5998 10.24 2.5653 12.8104 1.0302"></polyline>
                <path d="M12.79,7.6194 C12.6984635,7.6194 12.6086214,7.59471054 12.5299,7.548 L7.4299,4.488 C7.27507088,4.3961298 7.18014996,4.22943386 7.18014996,4.0494 C7.18014996,3.86936614 7.27507088,3.7026702 7.4299,3.6108 L12.5299,0.5508 C12.6876945,0.459697275 12.8821055,0.459697275 13.0399,0.5508 L18.1399,3.6108 C18.2947291,3.7026702 18.38965,3.86936614 18.38965,4.0494 C18.38965,4.22943386 18.2947291,4.3961298 18.1399,4.488 L13.0399,7.548 C12.9641639,7.59298195 12.8780683,7.61758071 12.79,7.6194 Z M8.71,4.08 L12.79,6.5127 L16.87,4.0647 L12.79,1.6167 L8.71,4.08 Z" id="Shape" fill="#000000"></path>
                <path d="M12.79,13.77 C12.702388,13.7697319 12.6163224,13.7468982 12.5401,13.7037 L7.4401,10.8528 C7.27811372,10.761755 7.17846543,10.5898128 7.17998253,10.404 L7.17998253,4.1259 L8.2,4.1259 L8.2,10.1082 L12.79,12.6582 L17.38,10.1082 L17.38,4.1259 L18.4000175,4.1259 L18.4000175,10.404 C18.4015346,10.5898128 18.3018863,10.761755 18.1399,10.8528 L13.0399,13.7037 C12.9636776,13.7468982 12.877612,13.7697319 12.79,13.77 Z" id="Path" fill="#000000"></path>
                <rect id="Rectangle" fill="#000000" x="12.28" y="7.1706" width="1.02" height="6.0894"></rect>
                <path d="M15.0595,6.0384 L9.9595,3.0039 C9.80467088,2.9120298 9.70974996,2.74533386 9.70974996,2.5653 C9.70974996,2.38526614 9.80467088,2.2185702 9.9595,2.1267 L12.5095,0.5967 L13.0195,1.4739 L11.26,2.55 L15.6052,5.1459 L15.0595,6.0384 Z" id="Shape" fill="#000000"></path>
                <polygon id="Path" fill="#4BAD0B" points="5.65 11.6127 0.55 14.6574 5.65 17.7021 10.75 14.6574"></polygon>
                <polyline id="Path" fill="#4BAD0B" points="0.55 14.7186 0.55 20.9967 5.65 23.8527 10.75 20.9967 10.75 14.7186"></polyline>
                <polyline id="Path" fill="#4BAD0B" points="8.1796 16.1925 3.1 13.158 5.6704 11.6229"></polyline>
                <path d="M5.65,18.2121 C5.55798589,18.210534 5.46811,18.1841 5.3899,18.1356 L0.2899,15.0756 C0.137481737,14.9831458 0.0444002788,14.817817 0.0444002788,14.63955 C0.0444002788,14.461283 0.137481737,14.2959542 0.2899,14.2035 L5.3899,11.1435 C5.54769455,11.0523973 5.74210545,11.0523973 5.8999,11.1435 L10.9999,14.2035 C11.1523183,14.2959542 11.2453997,14.461283 11.2453997,14.63955 C11.2453997,14.817817 11.1523183,14.9831458 10.9999,15.0756 L5.8999,18.1356 C5.82465855,18.1823728 5.73853061,18.2087385 5.65,18.2121 Z M1.57,14.6421 L5.65,17.1054 L9.7555,14.6574 L5.6755,12.2043 L1.57,14.6421 Z" id="Shape" fill="#000000"></path>
                <path d="M5.65,24.3627 C5.56238799,24.3624319 5.4763224,24.3395982 5.4001,24.2964 L0.3001,21.42 C0.145887566,21.3335238 0.0474652107,21.1733462 0.04,20.9967 L0.04,14.7186 L1.06,14.7186 L1.06,20.7009 L5.65,23.2509 L10.24,20.7009 L10.24,14.7186 L11.26,14.7186 L11.26,20.9967 C11.2596829,21.1806897 11.1602883,21.3502452 10.9999,21.4404 L5.8999,24.2964 C5.8236776,24.3395982 5.73761201,24.3624319 5.65,24.3627 L5.65,24.3627 Z" id="Path" fill="#000000"></path>
                <rect id="Rectangle" fill="#000000" x="5.14" y="17.7633" width="1.02" height="6.0894"></rect>
                <path d="M7.9195,16.6311 L2.8195,13.5966 C2.66467088,13.5047298 2.56974996,13.3380339 2.56974996,13.158 C2.56974996,12.9779661 2.66467088,12.8112702 2.8195,12.7194 L5.3695,11.1894 L5.8795,12.0666 L4.12,13.158 L8.4652,15.7539 L7.9195,16.6311 Z" id="Path" fill="#000000"></path>
                <polygon id="Path" fill="#4BAD0B" points="19.93 11.6127 14.83 14.6574 19.93 17.7021 25.03 14.6574"></polygon>
                <polyline id="Path" fill="#4BAD0B" points="14.83 14.7186 14.83 20.9967 19.93 23.8527 25.03 20.9967 25.03 14.7186"></polyline>
                <polyline id="Path" fill="#4BAD0B" points="22.4596 16.1925 17.38 13.158 19.9504 11.6229"></polyline>
                <path d="M19.93,18.2121 C19.8379859,18.210534 19.74811,18.1841 19.6699,18.1356 L14.5699,15.0756 C14.4174817,14.9831458 14.3244003,14.817817 14.3244003,14.63955 C14.3244003,14.461283 14.4174817,14.2959542 14.5699,14.2035 L19.6699,11.1435 C19.8276945,11.0523973 20.0221055,11.0523973 20.1799,11.1435 L25.2799,14.2035 C25.4323183,14.2959542 25.5253997,14.461283 25.5253997,14.63955 C25.5253997,14.817817 25.4323183,14.9831458 25.2799,15.0756 L20.1799,18.1356 C20.1046585,18.1823728 20.0185306,18.2087385 19.93,18.2121 L19.93,18.2121 Z M15.85,14.6421 L19.93,17.0901 L24.01,14.6421 L19.93,12.189 L15.85,14.6421 Z" id="Shape" fill="#000000"></path>
                <path d="M19.93,24.3627 C19.842388,24.3624319 19.7563224,24.3395982 19.6801,24.2964 L14.5801,21.4404 C14.4197117,21.3502452 14.3203171,21.1806897 14.32,20.9967 L14.32,14.7186 L15.34,14.7186 L15.34,20.7009 L19.93,23.2509 L24.52,20.7009 L24.52,14.7186 L25.54,14.7186 L25.54,20.9967 C25.5396829,21.1806897 25.4402883,21.3502452 25.2799,21.4404 L20.1799,24.2964 C20.1036776,24.3395982 20.017612,24.3624319 19.93,24.3627 L19.93,24.3627 Z" id="Path" fill="#000000"></path>
                <rect id="Rectangle" fill="#000000" x="19.42" y="17.7633" width="1.02" height="6.0894"></rect>
                <path d="M22.1995,16.6311 L17.0995,13.5966 C16.9446709,13.5047298 16.84975,13.3380339 16.84975,13.158 C16.84975,12.9779661 16.9446709,12.8112702 17.0995,12.7194 L19.6495,11.1894 L20.1595,12.0666 L18.4,13.158 L22.7452,15.7539 L22.1995,16.6311 Z" id="Path" fill="#000000"></path>
            </g>
        </g>
    </g>
</svg>