<?xml version="1.0" encoding="UTF-8"?>
<svg width="19px" height="15px" viewBox="0 0 19 15" version="1.1" xmlns="http://www.w3.org/2000/svg" xmlns:xlink="http://www.w3.org/1999/xlink">
    <!-- Generator: Sketch 61.2 (89653) - https://sketch.com -->
    <title>Shape</title>
    <desc>Created with Sketch.</desc>
    <g id="Page-1" stroke="none" stroke-width="1" fill="none" fill-rule="evenodd">
        <g id="Drop_down" transform="translate(-1325.000000, -439.000000)" fill="#FF0602" fill-rule="nonzero">
            <g id="Group-5" transform="translate(1302.000000, 101.078750)">
                <g id="websymbol:logout" transform="translate(23.375000, 337.712031)">
                    <path d="M13.666474,3.631 L17.696074,7.5146 L13.666474,11.369 L13.666474,8.7848 L7.63667396,8.7848 L7.63667396,6.2152 L13.666474,6.2152 L13.666474,3.631 Z M11.242874,11.1062 L12.790474,12.6684 C11.272074,14.0894667 9.62714062,14.8 7.85567396,14.8 C5.74354062,14.8 3.96477396,14.1016333 2.51937396,12.7049 C1.07397396,11.3081667 0.351273955,9.56346667 0.351273955,7.4708 C0.351273955,6.1568 0.682207288,4.94013333 1.34407396,3.8208 C2.00594062,2.70146667 2.89897396,1.81816667 4.02317396,1.1709 C5.14737396,0.523633333 6.36647396,0.2 7.68047396,0.2 C9.47140729,0.2 11.169874,0.920266667 12.775874,2.3608 L11.242874,3.9084 C10.133274,2.89613333 8.95067396,2.39 7.69507396,2.39 C6.24480729,2.39 5.02084062,2.89613333 4.02317396,3.9084 C3.02550729,4.92066667 2.52667396,6.1568 2.52667396,7.6168 C2.52667396,8.97946667 3.04010729,10.1523333 4.06697396,11.1354 C5.09384062,12.1184667 6.29834062,12.61 7.68047396,12.61 C8.95554062,12.61 10.1430073,12.1087333 11.242874,11.1062 Z" id="Shape"></path>
                </g>
            </g>
        </g>
    </g>
</svg>