<?xml version="1.0" encoding="UTF-8"?>
<svg width="26px" height="25px" viewBox="0 0 26 25" version="1.1" xmlns="http://www.w3.org/2000/svg" xmlns:xlink="http://www.w3.org/1999/xlink">
    <!-- Generator: Sketch 61.2 (89653) - https://sketch.com -->
    <title>messages</title>
    <desc>Created with Sketch.</desc>
    <g id="final" stroke="none" stroke-width="1" fill="none" fill-rule="evenodd">
        <g id="Dashboard-Vendor" transform="translate(-25.000000, -298.000000)" fill-rule="nonzero">
            <g id="messages" transform="translate(25.176538, 298.321992)">
                <path d="M23.1600037,0.0149994 L7.9049988,0.0149994 C6.8850098,0.0149994 6.0599976,0.8400116 6.0599976,1.85499575 L6.0599976,8.5149994 L8.9549866,8.5149994 C8.94500735,8.47502135 8.9299927,8.4400177 8.9299927,8.3950043 C8.9299927,8.1200104 9.1549988,7.8950043 9.4299927,7.8950043 L21.6300049,7.8950043 C21.9100037,7.8950043 22.1300049,8.1200104 22.1300049,8.3950043 C22.1300049,8.6699982 21.9100037,8.8950043 21.6300049,8.8950043 L15.0599976,8.8950043 C15.6300048,9.2450104 16.0549926,9.81001285 16.2200012,10.4799957 L19.8450012,10.4799957 C20.1199951,10.4799957 20.3450012,10.7050018 20.3450012,10.9799957 C20.3450012,11.2550201 20.1199951,11.4799957 19.8450012,11.4799957 L16.2999877,11.4799957 L16.2999877,14.6950226 L20.9899902,17.8300018 C21.0750122,17.8849945 21.1700134,17.9149933 21.269989,17.9149933 C21.3500061,17.9149933 21.4299927,17.8950043 21.5050049,17.8549958 C21.6650085,17.7649994 21.769989,17.6000214 21.769989,17.4149933 L21.769989,14.1950226 L23.1600037,14.1950226 C24.1749878,14.1950226 25,13.3650055 25,12.3500213 L25,1.85499575 C25,0.8400116 24.1749878,0.0149994 23.1600037,0.0149994 Z M11.2149963,2.72502135 L19.8450012,2.72502135 C20.1199951,2.72502135 20.3450012,2.94999695 20.3450012,3.22502135 C20.3450012,3.50001525 20.1199951,3.72502135 19.8450012,3.72502135 L11.2149963,3.72502135 C10.9400024,3.72502135 10.7149963,3.50001525 10.7149963,3.22502135 C10.7149963,2.94999695 10.9400024,2.72502135 11.2149963,2.72502135 Z M21.6300049,6.3100128 L9.4299927,6.3100128 C9.1549988,6.3100128 8.9299927,6.0850067 8.9299927,5.8100128 C8.9299927,5.5350189 9.1549988,5.3100128 9.4299927,5.3100128 L21.6300049,5.3100128 C21.9100037,5.3100128 22.1300049,5.5350189 22.1300049,5.8100128 C22.1300049,6.0850067 21.9100037,6.3100128 21.6300049,6.3100128 Z" id="Shape" fill="#2B79C2"></path>
                <path d="M13.730011,9.5149994 L1.5700073,9.5149994 C0.70498655,9.5149994 0,10.2200165 0,11.0850067 L0,19.4499969 C0,20.3150177 0.70498655,21.0200042 1.5700073,21.0200042 L2.5750122,21.0200042 L2.5750122,23.4850006 C2.5750122,23.6699981 2.6749878,23.8400116 2.83999635,23.9250031 C2.91500855,23.9650116 2.99499515,23.9850006 3.0750122,23.9850006 C3.1749878,23.9850006 3.269989,23.9600067 3.355011,23.9000092 L7.66500855,21.0200042 L13.730011,21.0200042 C14.5950013,21.0200042 15.2999878,20.3150177 15.2999878,19.4499969 L15.2999878,11.0850067 C15.2999878,10.2200165 14.5950012,9.5149994 13.730011,9.5149994 Z M4.8989258,16.3510895 C4.6069336,16.6430817 4.2199707,16.8003083 3.81689455,16.8003083 C3.69262695,16.8003083 3.56689455,16.7851716 3.44189455,16.7548981 C2.8996582,16.6225739 2.4638672,16.1865387 2.33129885,15.6445466 C2.2019043,15.1137849 2.35278325,14.5688629 2.7348633,14.187027 C3.1171875,13.8047028 3.6628418,13.655777 4.19238285,13.7837067 C4.73437505,13.9160309 5.17016605,14.3520661 5.30249025,14.8940583 C5.43164065,15.4248199 5.2807617,15.9692536 4.8989258,16.3510895 Z M8.74414065,16.339859 C8.4523926,16.6381989 8.0588379,16.7998199 7.6481934,16.7998199 C7.53442385,16.7998199 7.4191895,16.7876129 7.30468755,16.7622223 C6.7600098,16.6421051 6.3164063,16.214859 6.1745606,15.6733551 C6.0339356,15.1362457 6.17895515,14.5830231 6.56250005,14.1938629 C6.9438477,13.8061676 7.4919434,13.6533356 8.02709965,13.784195 C8.5671387,13.9160309 9.00195315,14.3506012 9.13403325,14.8906403 C9.26293945,15.4165191 9.11694335,15.9580231 8.74414065,16.339859 Z M12.5717773,16.3452301 C12.2802734,16.6411285 11.8916015,16.8003082 11.4858398,16.8003082 C11.3605957,16.8003082 11.2336426,16.7851715 11.1074219,16.7544098 C10.5671387,16.6215973 10.1328125,16.1875152 10.0004883,15.6484527 C9.8718262,15.1220855 10.017334,14.5805816 10.3901367,14.199234 C10.7624512,13.8178863 11.3007813,13.6587066 11.8295899,13.7758941 C12.3745118,13.8960113 12.8181153,14.3232574 12.959961,14.8652496 C13.1003418,15.402359 12.9553223,15.9555816 12.5717773,16.3452301 Z" id="Shape" fill="#3B4652"></path>
            </g>
        </g>
    </g>
</svg>