<?xml version="1.0" encoding="UTF-8"?>
<svg width="19px" height="17px" viewBox="0 0 19 17" version="1.1" xmlns="http://www.w3.org/2000/svg" xmlns:xlink="http://www.w3.org/1999/xlink">
    <!-- Generator: Sketch 61.2 (89653) - https://sketch.com -->
    <title>bx:bxs-cart</title>
    <desc>Created with Sketch.</desc>
    <g id="Page-1" stroke="none" stroke-width="1" fill="none" fill-rule="evenodd">
        <g id="Drop_down" transform="translate(-1325.000000, -226.000000)" fill="#D33232" fill-rule="nonzero">
            <g id="bx:bxs-cart" transform="translate(1325.398674, 226.122031)">
                <path d="M17.8398,3.9879 C17.6717719,3.74506018 17.3953043,3.60009968 17.1,3.6 L4.7997,3.6 L3.7611,1.107 C3.48259585,0.435585209 2.82658381,-0.00151923508 2.0997,-3.94762592e-06 L0,-3.94762592e-06 L0,1.8 L2.0997,1.8 L6.3693,12.0465 C6.50914032,12.3817233 6.83677838,12.6 7.2,12.6 L14.4,12.6 C14.7753,12.6 15.111,12.3669 15.2433,12.0168 L17.9433,4.8168 C18.0468788,4.54025262 18.0082002,4.23048692 17.8398,3.9879 Z" id="Path"></path>
                <circle id="Oval" cx="7.65" cy="14.85" r="1.35"></circle>
                <circle id="Oval" cx="13.95" cy="14.85" r="1.35"></circle>
            </g>
        </g>
    </g>
</svg>