<?xml version="1.0" encoding="UTF-8"?>
<svg width="15px" height="19px" viewBox="0 0 15 19" version="1.1" xmlns="http://www.w3.org/2000/svg" xmlns:xlink="http://www.w3.org/1999/xlink">
    <!-- Generator: Sketch 61.2 (89653) - https://sketch.com -->
    <title>ic:round-notifications</title>
    <desc>Created with Sketch.</desc>
    <g id="Page-1" stroke="none" stroke-width="1" fill="none" fill-rule="evenodd">
        <g id="Drop_down" transform="translate(-1327.000000, -334.000000)" fill="#6B57F1" fill-rule="nonzero">
            <g id="Group-5" transform="translate(1302.000000, 101.078750)">
                <g id="ic:round-notifications" transform="translate(24.875000, 232.710781)">
                    <path d="M7.52483338,18.601 C8.55938338,18.601 9.40583338,17.75455 9.40583338,16.72 L5.64383338,16.72 C5.64383338,17.7588476 6.48598576,18.601 7.52483338,18.601 Z M13.1678334,12.958 L13.1678334,8.2555 C13.1678334,5.368165 11.6254134,2.95108 8.93558338,2.31154 L8.93558338,1.672 C8.93558338,0.891385 8.30544838,0.26125 7.52483338,0.26125 C6.74421838,0.26125 6.11408338,0.891385 6.11408338,1.672 L6.11408338,2.31154 C3.41484838,2.95108 1.88183338,5.35876 1.88183338,8.2555 L1.88183338,12.958 L0.668588378,14.171245 C0.0760733784,14.76376 0.489893378,15.7795 1.32693838,15.7795 L13.7133234,15.7795 C14.5503684,15.7795 14.9735934,14.76376 14.3810784,14.171245 L13.1678334,12.958 Z" id="Shape"></path>
                </g>
            </g>
        </g>
    </g>
</svg>