<?xml version="1.0" encoding="UTF-8"?>
<svg width="16px" height="16px" viewBox="0 0 16 16" version="1.1" xmlns="http://www.w3.org/2000/svg" xmlns:xlink="http://www.w3.org/1999/xlink">
    <!-- Generator: Sketch 61.2 (89653) - https://sketch.com -->
    <title>Group</title>
    <desc>Created with Sketch.</desc>
    <g id="final" stroke="none" stroke-width="1" fill="#fff" fill-rule="evenodd">
        <g id="Dashboard-Vendor" transform="translate(-573.000000, -75.000000)" fill="#fff" fill-rule="nonzero">
            <g id="Group-8" transform="translate(572.903007, 72.943750)">
                <g id="gg:timer" transform="translate(0.000000, 2.046401)">
                    <g id="Group" transform="translate(0.309000, 0.515000)">
                        <path d="M8.24,1.70568 C11.2294495,2.14373202 13.3746696,4.81387288 13.1583295,7.82749108 C12.9419893,10.8411093 10.4373664,13.1774495 7.416,13.184 C5.03891391,13.1840736 2.90522689,11.7258607 2.04178805,9.51113456 C1.17834922,7.29640848 1.76201305,4.77880212 3.511888,3.169928 L2.345928,2.003968 C-0.309127969,4.49201486 -0.766918768,8.53879987 1.26523574,11.5570854 C3.29739024,14.5753709 7.21914714,15.6734893 10.5232032,14.1493789 C13.8272593,12.6252684 15.5375241,8.92918456 14.5605713,5.42415068 C13.5836184,1.91911679 10.2080612,-0.359403448 6.592,0.04532 L6.592,5.01404 L8.24,5.01404 L8.24,1.707328 L8.24,1.70568 Z" id="Path"></path>
                        <path d="M3.878568,4.702568 C3.55689328,5.02433988 3.55689328,5.54593212 3.878568,5.867704 L6.209664,8.1988 C6.5329842,8.5110731 7.04691786,8.50660716 7.36476251,8.18876251 C7.68260716,7.87091786 7.6870731,7.3569842 7.3748,7.033664 L5.04288,4.702568 C4.72110812,4.38089328 4.19951588,4.38089328 3.877744,4.702568 L3.878568,4.702568 Z" id="Path"></path>
                    </g>
                </g>
            </g>
        </g>
    </g>
</svg>