<?xml version="1.0" encoding="UTF-8"?>
<svg width="56px" height="57px" viewBox="0 0 56 57" version="1.1" xmlns="http://www.w3.org/2000/svg" xmlns:xlink="http://www.w3.org/1999/xlink">
    <!-- Generator: Sketch 61.2 (89653) - https://sketch.com -->
    <title>Group 14</title>
    <desc>Created with Sketch.</desc>
    <g id="final" stroke="none" stroke-width="1" fill="none" fill-rule="evenodd">
        <g id="Dashboard-Vendor" transform="translate(-1330.000000, -328.000000)">
            <g id="Group-14" transform="translate(1330.326923, 328.816250)">
                <circle id="Oval" fill="#E9FEF1" cx="27.75" cy="27.75" r="27.75"></circle>
                <g id="ph:currency-dollar-bold" transform="translate(14.250000, 14.250000)">
                    <rect id="ViewBox" x="0" y="0" width="26.624" height="26.624"></rect>
                    <path d="M15.808,12.064 L14.56,12.064 L14.56,6.24 L14.976,6.24 C16.5835166,6.2417768 17.8862232,7.54448336 17.888,9.152 C17.888,9.84125137 18.4467486,10.4 19.136,10.4 C19.8252514,10.4 20.384,9.84125137 20.384,9.152 C20.3806185,6.16664585 17.9613542,3.74738148 14.976,3.744 L14.56,3.744 L14.56,2.496 C14.56,1.80674863 14.0012514,1.248 13.312,1.248 C12.6227486,1.248 12.064,1.80674863 12.064,2.496 L12.064,3.744 L11.232,3.744 C8.24524407,3.744 5.824,6.16524407 5.824,9.152 C5.824,12.1387559 8.24524407,14.56 11.232,14.56 L12.064,14.56 L12.064,20.384 L10.816,20.384 C9.20848336,20.3822232 7.9057768,19.0795166 7.904,17.472 C7.904,16.7827486 7.34525137,16.224 6.656,16.224 C5.96674863,16.224 5.408,16.7827486 5.408,17.472 C5.41138148,20.4573542 7.83064585,22.8766185 10.816,22.88 L12.064,22.88 L12.064,24.128 C12.064,24.8172514 12.6227486,25.376 13.312,25.376 C14.0012514,25.376 14.56,24.8172514 14.56,24.128 L14.56,22.88 L15.808,22.88 C18.7947559,22.8799999 21.2159999,20.4587559 21.2159999,17.472 C21.2159999,14.4852441 18.7947559,12.0640001 15.808,12.064 L15.808,12.064 Z M11.232,12.064 C9.62374683,12.064 8.32000006,10.7602532 8.32000006,9.152 C8.32000006,7.54374683 9.62374683,6.24 11.232,6.24 L12.064,6.24 L12.064,12.064 L11.232,12.064 Z M15.808,20.384 L14.56,20.384 L14.56,14.56 L15.808,14.56 C17.4162532,14.56 18.72,15.8637468 18.72,17.472 C18.72,19.0802532 17.4162532,20.384 15.808,20.384 L15.808,20.384 Z" id="Shape" fill="#000000" fill-rule="nonzero"></path>
                </g>
            </g>
        </g>
    </g>
</svg>