<?xml version="1.0" encoding="UTF-8"?>
<svg width="33px" height="26px" viewBox="0 0 33 26" version="1.1" xmlns="http://www.w3.org/2000/svg" xmlns:xlink="http://www.w3.org/1999/xlink">
    <!-- Generator: Sketch 61.2 (89653) - https://sketch.com -->
    <title>sale(2)</title>
    <desc>Created with Sketch.</desc>
    <g id="final" stroke="none" stroke-width="1" fill="none" fill-rule="evenodd">
        <g id="Dashboard-Vendor" transform="translate(-21.000000, -353.000000)" fill-rule="nonzero">
            <g id="sale(2)" transform="translate(21.176538, 353.066250)">
                <path d="M28.7435941,12.789 C28.7435941,13.6962593 27.1892874,14.4154822 26.9974524,15.2644946 C26.7992862,16.140731 27.8838187,17.4652155 27.5039474,18.2559809 C27.1183781,19.0594087 25.4070579,19.0302852 24.858777,19.7203848 C24.3104961,20.4104843 24.7137928,22.0831842 24.0236933,22.6371631 C23.3335938,23.1911421 21.8077775,22.4206365 21.0087815,22.8087383 C20.2218149,23.1886096 19.8691677,24.8727056 18.99673,25.0721381 C18.1521495,25.2620737 17.1100359,23.9065663 16.2072085,23.9065663 C15.304381,23.9065663 14.2629006,25.2646062 13.4183201,25.071505 C12.5458824,24.8720725 12.1932352,23.1892427 11.4062685,22.8081052 C10.6066395,22.4200034 9.07829064,23.1879765 8.39135673,22.63653 C7.70442282,22.0850835 8.1077195,20.4136499 7.55627302,19.7197516 C7.00482653,19.0258534 5.29667198,19.0568762 4.91110262,18.2559809 C4.53123134,17.4652155 5.61639698,16.140731 5.41759767,15.2644946 C5.22639579,14.4154822 3.67208911,13.6962593 3.67208911,12.789 C3.67208911,11.8817407 5.22639579,11.1625178 5.41823079,10.3135054 C5.61639698,9.43726901 4.53186446,8.11278446 4.91173574,7.32201906 C5.2973051,6.51859129 7.00862525,6.54771475 7.55690614,5.85761525 C8.10518703,5.16751574 7.70189035,3.49481584 8.39198985,2.94083688 C9.08208936,2.38685792 10.6079057,3.15736351 11.4069016,2.76926168 C12.1938683,2.3893904 12.5465155,0.705294356 13.4189532,0.505861931 C14.2629006,0.316559406 15.3050142,1.67143366 16.2078416,1.67143366 C17.110669,1.67143366 18.1527826,0.316559406 18.9973631,0.50649505 C19.8698008,0.705927475 20.222448,2.38875728 21.0094147,2.7698948 C21.8090437,3.15799663 23.3373925,2.39002351 24.0243264,2.94147 C24.7112603,3.49291649 24.3079637,5.16435015 24.8594101,5.85824837 C25.4108566,6.55214658 27.1190112,6.51922441 27.5045805,7.32265218 C27.8844518,8.11341757 26.7992862,9.43790213 26.9980855,10.3141386 C27.1892874,11.1625178 28.7435941,11.8817407 28.7435941,12.789 Z" id="Path" fill="#FED947"></path>
                <path d="M28.7435941,12.789 C28.7435941,13.6962593 27.1892874,14.4154822 26.9974524,15.2644946 C26.8512019,15.9102757 27.4026484,16.7991746 27.549532,17.5392904 C27.6033471,17.803301 27.6046133,18.0457855 27.5045805,18.2559809 C27.4620679,18.3424736 27.4053565,18.4212275 27.3368041,18.4889687 C26.7669971,19.0587756 25.348811,19.1043601 24.8594101,19.7203848 C24.3079637,20.4168154 24.7144259,22.0831842 24.0243264,22.6371631 C23.3342269,23.1911421 21.8084106,22.4206365 21.0094147,22.8087383 C20.222448,23.1886096 19.8698008,24.8727056 18.9973631,25.0721381 C18.1527826,25.2620737 17.110669,23.9065663 16.2078416,23.9065663 C15.3050142,23.9065663 14.2629006,25.2646062 13.4183201,25.071505 C12.5458824,24.8720725 12.1932352,23.1892427 11.4062685,22.8081052 C10.6066395,22.4200034 9.07829064,23.1879765 8.39135673,22.63653 C7.70442282,22.0850835 8.1077195,20.4136499 7.55627302,19.7197516 C7.06687218,19.103727 5.65185163,19.060675 5.07887911,18.4883355 C5.01032663,18.4205944 4.95361523,18.3418405 4.91110262,18.2553478 C4.81170297,18.0476849 4.81170297,17.803301 4.86615119,17.5373911 C5.01303475,16.7972752 5.56258188,15.9083764 5.41823079,15.2625952 C5.22639579,14.4154822 3.67208911,13.6962593 3.67208911,12.789 C3.67208911,12.0925693 4.58821203,11.5069344 5.10040515,10.8896436 C5.24889628,10.7252751 5.35725356,10.5287149 5.41696455,10.3154048 C5.44285649,10.1919971 5.44862901,10.0652153 5.43405876,9.93996535 C5.34985396,9.09285238 4.58124772,8.00831985 4.90983639,7.32391842 C5.29540574,6.52049064 7.00672589,6.54961411 7.55500678,5.8595146 C8.10328767,5.1694151 7.69999099,3.4967152 8.3900905,2.94273624 C9.08019,2.38875728 10.6060063,3.15926287 11.4050023,2.77116104 C12.191969,2.39128975 12.5446161,0.707193713 13.4170539,0.507761287 C14.2629006,0.316559406 15.3050142,1.67143366 16.2078416,1.67143366 C17.110669,1.67143366 18.1527826,0.316559406 18.9973631,0.50649505 C19.8698008,0.705927475 20.222448,2.38875728 21.0094147,2.7698948 C21.8090437,3.15799663 23.3373925,2.39002351 24.0243264,2.94147 C24.7112603,3.49291649 24.3079637,5.16435015 24.8594101,5.85824837 C25.4108566,6.55214658 27.1190112,6.51922441 27.5045805,7.32265218 C27.8331692,8.00705361 27.064563,9.09158614 26.9803582,9.93869911 C26.9657879,10.0639491 26.9715604,10.1907309 26.9974524,10.3141386 C27.0571634,10.5274487 27.1655207,10.7240088 27.3140118,10.8883773 C27.8274711,11.5069344 28.7435941,12.0925693 28.7435941,12.789 Z" id="Path" fill="#FED947"></path>
                <ellipse id="Oval" fill="#F8BE32" cx="16.1717538" cy="14.6522687" rx="8.28056094" ry="8.32487926"></ellipse>
                <path d="M24.4523301,12.7529122 C24.4564142,14.8864962 23.6404275,16.9400628 22.173087,18.4889687 C20.6146197,20.1408656 18.4440515,21.0771643 16.17302,21.0771643 C13.9019886,21.0771643 11.7314204,20.1408656 10.1729531,18.4889687 C8.25883135,16.4595436 7.48154784,13.6098998 8.10012208,10.8896436 C8.9421701,7.18969723 12.2369204,4.43183168 16.1717538,4.43183168 C20.1065872,4.43183168 23.4013375,7.19159658 24.2433855,10.8896436 C24.3825152,11.5009612 24.4525968,12.1259623 24.4523301,12.7529122 Z" id="Path" fill="#FFFFFF"></path>
                <path d="M28.7435941,12.789 C28.7435941,13.6962593 27.1892874,14.4154822 26.9974524,15.2644946 C26.8512019,15.9102757 27.4026484,16.7991746 27.549532,17.5392904 L4.86615119,17.5392904 C5.01303475,16.7991746 5.56258188,15.9102757 5.41823079,15.2644946 C5.22639579,14.4154822 3.67208911,13.6962593 3.67208911,12.789 C3.67208911,12.0925693 4.58821203,11.5069344 5.10040515,10.8896436 C5.24889628,10.7252751 5.35725356,10.5287149 5.41696455,10.3154048 C5.44285649,10.1919971 5.44862901,10.0652153 5.43405876,9.93996535 L26.9790919,9.93996535 C26.9645217,10.0652153 26.9702942,10.1919971 26.9961861,10.3154048 C27.0558971,10.5287149 27.1642544,10.7252751 27.3127455,10.8896436 C27.8274711,11.5069344 28.7435941,12.0925693 28.7435941,12.789 Z" id="Path" fill="#F8BE32"></path>
                <path d="M24.4523156,12.7529122 C24.4439831,16.0503677 22.4798521,19.0285543 19.4520949,20.3346814 C16.4243377,21.6408085 12.9101873,21.0258668 10.5058869,18.7691831 C8.10158649,16.5124994 7.26550888,13.0443038 8.37742812,9.93996535 C9.52463941,6.72688738 12.5819701,4.43183168 16.1717538,4.43183168 C19.7615375,4.43183168 22.8195013,6.72878673 23.9660795,9.93996535 C24.0774741,10.2506778 24.1700767,10.56781 24.2433855,10.8896436 C24.3825152,11.5009612 24.4525968,12.1259623 24.4523156,12.7529122 Z" id="Path" fill="#FFFFFF"></path>
                <path d="M24.4523255,12.7529122 C24.4550696,14.4648121 23.9290346,16.1357857 22.9461251,17.5373911 L9.39738252,17.5373911 C7.84750505,15.319371 7.46742364,12.4882246 8.37742812,9.93996535 L23.9660795,9.93996535 C24.0774741,10.2506778 24.1700767,10.56781 24.2433855,10.8896436 C24.3825152,11.5009612 24.4525968,12.1259623 24.4523255,12.7529122 Z" id="Path" fill="#E1E1E3"></path>
                <path d="M28.7435941,11.8393218 C28.7435941,12.746581 27.1892874,13.465804 26.9974524,14.3148163 C26.8512019,14.9605975 27.4026484,15.8494963 27.549532,16.5896122 L4.86615119,16.5896122 C5.01303475,15.8494963 5.56258188,14.9605975 5.41823079,14.3148163 C5.22639579,13.465804 3.67208911,12.746581 3.67208911,11.8393218 C3.67208911,11.1428911 4.58821203,10.5572562 5.10040515,9.93996535 C5.24889628,9.77559684 5.35725356,9.57903673 5.41696455,9.36572658 C5.44285649,9.24231888 5.44862901,9.11553712 5.43405876,8.99028713 L26.9790919,8.99028713 C26.9645217,9.11553712 26.9702942,9.24231888 26.9961861,9.36572658 C27.0558971,9.57903673 27.1642544,9.77559684 27.3127455,9.93996535 C27.8274711,10.5572562 28.7435941,11.1428911 28.7435941,11.8393218 Z" id="Path" fill="#F8BE32"></path>
                <polygon id="Path" fill="#E4222E" points="31.9408441 16.5896122 0.474839109 16.5896122 1.68536228 12.7529122 0.474839109 8.98838777 31.9408441 8.98838777 30.7303209 12.7529122"></polygon>
                <path d="M7.66073762,12.3141609 C7.39849123,12.3141609 7.18589851,12.5267536 7.18589851,12.789 C7.18589851,13.0512464 7.39849123,13.2638391 7.66073762,13.2638391 C7.92298402,13.2638391 8.13557673,13.0512464 8.13557673,12.789 C8.13557673,12.5267536 7.92298402,12.3141609 7.66073762,12.3141609 Z M24.7549455,12.3141609 C24.4926991,12.3141609 24.2801064,12.5267536 24.2801064,12.789 C24.2801064,13.0512464 24.4926991,13.2638391 24.7549455,13.2638391 C25.0171919,13.2638391 25.2297847,13.0512464 25.2297847,12.789 C25.2297847,12.5267536 25.0171919,12.3141609 24.7549455,12.3141609 Z M21.3582631,11.712698 C21.5000817,11.712698 21.5804878,11.5607495 21.5804878,11.3847425 C21.5804878,11.232794 21.5140103,11.0681831 21.3582631,11.0681831 L19.6773327,11.0681831 C19.5165205,11.0681831 19.3557083,11.1441573 19.3557083,11.2961058 L19.3557083,14.3084851 C19.3557083,14.4604337 19.5165205,14.5364079 19.6773327,14.5364079 L21.3582631,14.5364079 C21.5140103,14.5364079 21.5804878,14.3698977 21.5804878,14.2198485 C21.5804878,14.0444746 21.5000817,13.8925261 21.3582631,13.8925261 L20.0920255,13.8925261 L20.0920255,13.0815009 L20.8004854,13.0815009 C20.9562327,13.0815009 21.0227101,12.9295524 21.0227101,12.8010293 C21.0227101,12.6490807 20.9423041,12.511694 20.8004854,12.511694 L20.0926586,12.511694 L20.0926586,11.712698 L21.3582631,11.712698 Z M11.3264955,11.946952 C11.3264955,11.7994353 11.4632492,11.6620485 11.7988022,11.6620485 C12.1862709,11.6620485 12.2761738,11.8418543 12.4458496,11.8418543 C12.6535126,11.8418543 12.7389836,11.5810093 12.7389836,11.4531193 C12.7389836,11.0827448 12.0488841,11.0352609 11.7988022,11.0352609 C11.2087354,11.0352609 10.5895452,11.3056026 10.5895452,12.0178613 C10.5895452,13.1289848 12.0868712,13.0308514 12.0868712,13.6038239 C12.0868712,13.8317467 11.8462861,13.9172177 11.6284932,13.9172177 C11.1897419,13.9172177 11.0479233,13.5658368 10.8256986,13.5658368 C10.6465259,13.5658368 10.5047073,13.8032563 10.5047073,13.9647016 C10.5047073,14.2780954 11.0244979,14.5819925 11.6443212,14.5819925 C12.3293557,14.5819925 12.8250878,14.211618 12.8250878,13.5278497 C12.8238215,12.3312551 11.3264955,12.4217911 11.3264955,11.946952 Z M31.2285854,12.7541785 L32.3928909,9.1340051 C32.4391495,8.98952658 32.4136886,8.83164679 32.3243569,8.70903462 C32.2350251,8.58642244 32.0925472,8.51379791 31.9408441,8.51354866 L27.9161078,8.51354866 C28.06679,8.03301149 28.1433974,7.55437366 27.9325689,7.11625545 C27.6388017,6.50339644 26.9145138,6.26724312 26.2750638,6.05831391 C25.8635366,5.9234596 25.3975611,5.77151109 25.2310509,5.56194876 C25.0645406,5.35238644 25.0176899,4.85602129 24.9778034,4.4223349 C24.9144915,3.72020614 24.8473809,2.99465198 24.3212592,2.57236173 C23.7951374,2.15007149 23.0455248,2.24947114 22.3845487,2.33810777 C21.9521286,2.39572158 21.4620946,2.46093282 21.2164445,2.34190649 C20.9707944,2.22288015 20.7295761,1.80692109 20.5092508,1.43654658 C20.1623017,0.854710396 19.769768,0.195633713 19.1030939,0.043685198 C18.458579,-0.103198366 17.8596486,0.292500891 17.2803449,0.67680401 C16.892243,0.930051535 16.4908457,1.19849391 16.2078416,1.19849391 C15.9248375,1.19849391 15.5234401,0.933217129 15.1353383,0.67680401 C14.5560346,0.296932723 13.9571042,-0.101932129 13.3125893,0.043685198 C12.6459151,0.196266832 12.2533815,0.855343515 11.9064324,1.43654658 C11.686107,1.80692109 11.435392,2.22731198 11.1992387,2.34190649 C10.9630853,2.45650099 10.4635546,2.39572158 10.0311345,2.33810777 C9.36889218,2.24947114 8.61864639,2.14817213 8.09442401,2.57046238 C7.57020163,2.99275262 7.50245792,3.71830678 7.43851292,4.41980243 C7.39862644,4.85538817 7.353675,5.34985396 7.1852654,5.55941629 C7.01685579,5.76897861 6.55214658,5.92092713 6.14125248,6.05578144 C5.50180248,6.26471064 4.77751455,6.4989646 4.48374743,7.11372297 C4.27291886,7.55184119 4.34952624,8.03047901 4.50020851,8.51101619 L0.474839109,8.51101619 C0.323135974,8.51126544 0.180658036,8.58388996 0.0913263086,8.70650214 C0.00199458085,8.82911432 -0.0234663359,8.9869941 0.0227922772,9.13147262 L1.18709777,12.751646 L0.0221591584,16.4465274 C-0.023434889,16.5908021 0.00245915915,16.7481687 0.0918773684,16.8702276 C0.181295578,16.9922866 0.323531441,17.0644233 0.474839109,17.0644513 L4.4995754,17.0644513 C4.34889312,17.5449885 4.27228574,18.0236263 4.48311431,18.4617446 C4.77688144,19.0746036 5.50116936,19.3101238 6.14125248,19.5196861 C6.5527797,19.6545404 7.01875515,19.8064889 7.1852654,20.0160512 C7.35177564,20.2256136 7.39862644,20.7219787 7.43851292,21.1556651 C7.5018248,21.8577939 7.5689354,22.583348 8.09505713,23.0056383 C8.62117886,23.4279285 9.3695253,23.3266295 10.0317676,23.2379929 C10.4641877,23.1803791 10.9542217,23.1151678 11.1998718,23.2341942 C11.4455219,23.3532205 11.6867401,23.7691796 11.9070655,24.1395541 C12.2540146,24.7213902 12.6465483,25.3804669 13.3132224,25.5324154 C13.4050149,25.5534557 13.4988878,25.5640748 13.5930609,25.5640714 C14.1324781,25.5640714 14.6415056,25.2272522 15.1359714,24.9005629 C15.5240733,24.6473153 15.9254706,24.378873 16.2084747,24.378873 C16.4914788,24.378873 16.8928761,24.6441498 17.280978,24.9005629 C17.8602817,25.2835998 18.4592121,25.679299 19.103727,25.5336817 C19.7704011,25.3811 20.1629348,24.7220234 20.5098839,24.1408203 C20.7302093,23.7704458 20.9809243,23.3500549 21.2170776,23.2354604 C21.4532309,23.1208659 21.9527617,23.1816453 22.3851818,23.2392591 C23.0474241,23.3278957 23.7976699,23.4291948 24.3218923,23.0069045 C24.8461147,22.5846143 24.9138584,21.8590601 24.9778034,21.1575645 C25.0176899,20.7219787 25.0626413,20.2275129 25.2310509,20.0179506 C25.3994605,19.8083883 25.8641697,19.6564398 26.2750638,19.5215854 C26.9145138,19.3126562 27.6388017,19.0784023 27.9325689,18.4636439 C28.1433974,18.0255257 28.06679,17.5468879 27.9161078,17.0663507 L31.9408441,17.0663507 C32.0921517,17.0663226 32.2343876,16.994186 32.3238058,16.872127 C32.413224,16.750068 32.4391181,16.5927015 32.393524,16.4484267 L31.2285854,12.7541785 Z M5.33909094,7.52778267 C5.45748416,7.28023322 5.9772747,7.11055738 6.43565272,6.95797574 C7.0003947,6.77310505 7.58476337,6.58253629 7.92791376,6.15011614 C8.27106416,5.71769599 8.32931109,5.09913891 8.38375931,4.50400723 C8.42807762,4.02347005 8.47746089,3.47835475 8.68828946,3.30931203 C8.89911802,3.14026931 9.43220406,3.21434421 9.90514381,3.27765609 C10.4983761,3.35616282 11.1112351,3.43846827 11.6145646,3.19471752 C12.107131,2.95603173 12.4205249,2.42991 12.7237888,1.92024936 C12.9726045,1.50239094 13.2549754,1.02881807 13.5253172,0.966772426 C13.7734998,0.910424851 14.2217479,1.2048251 14.6130153,1.46503693 C15.1169779,1.80122302 15.6380347,2.14627277 16.2078416,2.14627277 C16.7776485,2.14627277 17.2987053,1.80122302 17.8039341,1.46693629 C18.1971009,1.20672446 18.6434497,0.912324208 18.8916322,0.968671782 C19.161974,1.03198366 19.444345,1.5042903 19.6931606,1.92214871 C19.9964246,2.42864376 20.3098184,2.95793109 20.8023848,3.19661688 C21.304448,3.44036762 21.917307,3.3586953 22.5118056,3.27955545 C22.9847453,3.21624356 23.520997,3.14470114 23.72866,3.31121139 C23.9363229,3.47772163 23.9895049,4.02536941 24.0331901,4.5065397 C24.0876383,5.1023045 24.1433528,5.71832911 24.4890356,6.15264861 C24.8347185,6.58696812 25.4152885,6.77437129 25.9800304,6.96430693 C26.4384085,7.11372297 26.958199,7.28086634 27.0765922,7.53411386 C27.1740925,7.73607876 27.0531668,8.13177802 26.9126145,8.51987985 L23.8457869,8.51987985 C22.3159667,5.70909487 19.3718885,3.95957064 16.1717538,3.95957064 C12.9716191,3.95957064 10.0275409,5.70909487 8.49772069,8.51987985 L5.50306871,8.51987985 C5.36251634,8.12544683 5.24159064,7.72974757 5.33909094,7.52778267 Z M22.742894,8.51354866 L9.60061366,8.51354866 C11.029819,6.26617909 13.5084292,4.90507642 16.1717538,4.90507642 C18.8350784,4.90507642 21.3136887,6.26617909 22.742894,8.51354866 L22.742894,8.51354866 Z M27.0765922,18.0502173 C26.958199,18.2977668 26.4384085,18.4674426 25.9800304,18.6168587 C25.4152885,18.8017294 24.8309198,18.9922981 24.4877694,19.4247183 C24.144619,19.8571384 24.0863721,20.4756955 24.0319239,21.0708272 C23.9876055,21.5513644 23.9382223,22.0964797 23.7273937,22.2655224 C23.5165651,22.4345651 22.9834791,22.3604902 22.5105394,22.2971783 C21.917307,22.2180385 21.304448,22.1363661 20.8011186,22.3801169 C20.3085521,22.6188027 19.9951583,23.1449244 19.6918944,23.654585 C19.4430787,24.0724435 19.1607077,24.5460163 18.890366,24.608062 C18.6415503,24.6644096 18.1939353,24.3700093 17.8026679,24.1097975 C17.2961728,23.7755107 16.775116,23.430461 16.2065753,23.430461 C15.6380347,23.430461 15.1157116,23.7755107 14.6104828,24.1097975 C14.217316,24.3700093 13.7709673,24.6650427 13.5227847,24.608062 C13.252443,24.5447501 12.970072,24.0724435 12.7212563,23.654585 C12.4179924,23.1449244 12.1045986,22.6188027 11.6120321,22.3801169 C11.1099689,22.1363661 10.4971099,22.2186716 9.90261134,22.2971783 C9.42967158,22.3604902 8.89341995,22.4320326 8.68575698,22.2655224 C8.47809401,22.0990121 8.42491203,21.5513644 8.38122683,21.0701941 C8.32677861,20.4744293 8.27106416,19.8584047 7.92538129,19.4240851 C7.57969842,18.9897656 6.99786223,18.8010962 6.43312025,18.6162255 C5.97474223,18.4668095 5.45495168,18.2996661 5.33655847,18.0495842 C5.23905817,17.8476193 5.35998386,17.45192 5.50053624,17.0638182 L8.5350747,17.0638182 C10.0770247,19.8341006 12.9987207,21.5516619 16.1692213,21.5516619 C19.3397219,21.5516619 22.261418,19.8341006 23.803368,17.0638182 L26.910082,17.0638182 C27.0531668,17.4525532 27.1740925,17.8482524 27.0765922,18.0502173 Z M9.64746446,17.0644513 L22.6960432,17.0644513 C21.2587245,19.2700544 18.8043513,20.6001488 16.1717538,20.6001488 C13.5391563,20.6001488 11.0847831,19.2700544 9.64746446,17.0644513 L9.64746446,17.0644513 Z M1.12251965,16.1147731 L2.13550975,12.8959971 C2.16526579,12.8020632 2.16526579,12.7012288 2.13550975,12.6072949 L1.12251965,9.46322688 L31.2893648,9.46322688 L30.2763747,12.6072949 C30.2466187,12.7012288 30.2466187,12.8020632 30.2763747,12.8959971 L31.2893648,16.1147731 L1.12251965,16.1147731 Z M15.1568644,11.2821772 C15.1049486,11.115667 14.8922207,11.0352609 14.6750609,11.0352609 C14.4579012,11.0352609 14.2451733,11.115667 14.1932575,11.2821772 L13.3151217,14.1780627 C13.3098908,14.1951422 13.306703,14.2127815 13.305625,14.2306115 C13.305625,14.4059854 13.5747004,14.5345086 13.7779316,14.5345086 C13.8956917,14.5345086 13.9906595,14.4965214 14.0185167,14.3964887 L14.1818614,13.8019901 L15.1758579,13.8019901 L15.3366701,14.3952224 C15.3645273,14.4952552 15.4594951,14.5332423 15.5772552,14.5332423 C15.7804864,14.5332423 16.0495619,14.4066186 16.0495619,14.2293453 C16.0484839,14.2115153 16.045296,14.1938759 16.0400651,14.1767964 L15.1568644,11.2821772 Z M14.3306443,13.2321832 L14.6750609,11.9596144 L15.0201107,13.2321832 L14.3306443,13.2321832 Z M18.4915011,13.8874611 L17.4151992,13.8874611 L17.4151992,11.2853428 C17.4151992,11.1289625 17.2309616,11.062485 17.046724,11.062485 C16.8624864,11.062485 16.6782489,11.1289625 16.6782489,11.2853428 L16.6782489,14.3084851 C16.6782489,14.4604337 16.839061,14.5364079 16.9998732,14.5364079 L18.4921343,14.5364079 C18.6339529,14.5364079 18.7048622,14.3749626 18.7048622,14.2135173 C18.7048622,14.052072 18.6333198,13.8887274 18.4915011,13.8887274 L18.4915011,13.8874611 Z" id="Shape" fill="#1B3764"></path>
            </g>
        </g>
    </g>
</svg>