<?xml version="1.0" encoding="UTF-8"?>
<svg width="57px" height="57px" viewBox="0 0 57 57" version="1.1" xmlns="http://www.w3.org/2000/svg" xmlns:xlink="http://www.w3.org/1999/xlink">
    <!-- Generator: Sketch 61.2 (89653) - https://sketch.com -->
    <title>Group 10</title>
    <desc>Created with Sketch.</desc>
    <g id="final" stroke="none" stroke-width="1" fill="none" fill-rule="evenodd">
        <g id="Dashboard-Vendor" transform="translate(-748.000000, -328.000000)">
            <g id="Group-10" transform="translate(748.913462, 328.816250)">
                <circle id="Oval" fill="#EFEDF7" cx="27.75" cy="27.75" r="27.75"></circle>
                <g id="cil:graph" transform="translate(15.250000, 15.250000)">
                    <rect id="ViewBox" x="0" y="0" width="24.576" height="24.576"></rect>
                    <path d="M20.736,1.53599971 C19.3702044,1.53541345 18.1681789,2.43698332 17.7863901,3.74833192 C17.4046013,5.05968051 17.9348249,6.46558111 19.087488,7.198224 L17.082912,14.21424 C17.0206852,14.2102745 16.9583527,14.2081936 16.896,14.208 C16.235186,14.2072797 15.5919456,14.4208006 15.062736,14.816544 L11.359344,11.730384 C11.8447112,10.2903068 11.2042065,8.71175558 9.8526315,8.0170264 C8.50105651,7.32229723 6.84462971,7.72019234 5.95608074,8.95302822 C5.06753177,10.1858641 5.21391576,11.8831095 6.300432,12.9456 L4.126416,17.293824 C4.03120957,17.2847834 3.93563455,17.2801704 3.84,17.28 C2.31912707,17.2780515 1.02514575,18.3878871 0.795416425,19.8913107 C0.565687095,21.3947344 1.46918435,22.8403538 2.92123762,23.2926806 C4.37329089,23.7450075 5.93793148,23.0682338 6.60265016,21.700313 C7.26736883,20.3323922 6.83258853,18.6840327 5.579664,17.82192 L7.634064,13.713648 C8.64843372,13.9934814 9.73543855,13.7333193 10.5132,13.02456 L14.0988,16.012656 C13.420797,17.5067688 14.0365878,19.26995 15.4973512,20.0170989 C16.9581146,20.7642478 18.7481698,20.2316049 19.562829,18.8073887 C20.3774881,17.3831726 19.9291591,15.570162 18.544608,14.689776 L20.549088,7.67376 C20.61096,7.677504 20.673168,7.68 20.736,7.68 C22.4326188,7.68 23.808,6.30461875 23.808,4.608 C23.808,2.91138125 22.4326188,1.53599971 20.736,1.53599971 Z M3.84,21.888 C2.99169062,21.888 2.304,21.2003094 2.304,20.352 C2.304,19.5036906 2.99169062,18.816 3.84,18.816 C4.68830938,18.816 5.376,19.5036906 5.376,20.352 C5.3750477,21.1999146 4.68791461,21.8870477 3.84,21.888 L3.84,21.888 Z M8.448,12.288 C7.59969062,12.288 6.912,11.6003094 6.912,10.752 C6.912,9.90369062 7.59969062,9.216 8.448,9.216 C9.29630938,9.216 9.984,9.90369062 9.984,10.752 C9.9830477,11.5999146 9.29591461,12.2870477 8.448,12.288 Z M16.896,18.816 C16.0476906,18.816 15.36,18.1283094 15.36,17.28 C15.36,16.4316906 16.0476906,15.744 16.896,15.744 C17.7443094,15.744 18.432,16.4316906 18.432,17.28 C18.4310477,18.1279146 17.7439146,18.8150477 16.896,18.816 Z M20.736,6.144 C19.8876906,6.144 19.2,5.45630938 19.2,4.608 C19.2,3.75969062 19.8876906,3.072 20.736,3.072 C21.5843094,3.072 22.272,3.75969062 22.272,4.608 C22.2710477,5.45591461 21.5839146,6.1430477 20.736,6.144 L20.736,6.144 Z" id="Shape" fill="#000000" fill-rule="nonzero"></path>
                </g>
            </g>
        </g>
    </g>
</svg>