<?xml version="1.0" encoding="UTF-8"?>
<svg width="25px" height="25px" viewBox="0 0 25 25" version="1.1" xmlns="http://www.w3.org/2000/svg" xmlns:xlink="http://www.w3.org/1999/xlink">
    <!-- Generator: Sketch 61.2 (89653) - https://sketch.com -->
    <title>delivery-man</title>
    <desc>Created with Sketch.</desc>
    <g id="final" stroke="none" stroke-width="1" fill="none" fill-rule="evenodd">
        <g id="Dashboard-Vendor" transform="translate(-25.000000, -187.000000)" fill-rule="nonzero">
            <g id="delivery-man" transform="translate(25.676538, 187.876250)">
                <path d="M12.3676154,4.38876531 L6.38249759,4.38876531 C4.38743821,4.38876531 3.98845047,2.3938869 3.98845047,0.399023563 L11.1705918,0.399023563 C11.8337316,0.399023563 12.3676154,0.932847061 12.3676154,1.59594156" id="Path" fill="#FF9751"></path>
                <path d="M3.98845047,0.399023563 C3.98845047,0.666990955 3.99749883,0.933872542 4.01499234,1.19699906 L10.3726164,1.19699906 C11.0357561,1.19699906 11.5696399,1.7308678 11.5696399,2.3939623 L11.5696399,4.38890103 L12.3676607,4.38890103 L12.3676607,1.5959868 C12.3676607,0.932892303 11.8337768,0.399023563 11.1706371,0.399023563 L3.98845047,0.399023563 Z" id="Path" fill="#FF7F29"></path>
                <path d="M3.98845047,6.58334118 C3.98841729,7.35456759 4.52435268,7.97979076 5.18547403,7.97979076 C5.36936565,7.97936036 5.55069991,7.929512 5.71540673,7.83411205 C5.63306659,7.49701513 5.58450702,7.14605913 5.58450702,6.78287276 L5.58450702,5.26718079 C5.45633796,5.21445866 5.32140825,5.18758275 5.18548911,5.18768306 C4.5246101,5.18768306 3.98878134,5.81241503 3.98845047,6.58334118 Z" id="Path" fill="#FFC6A0"></path>
                <path d="M14.3626597,5.26713554 L14.3626597,6.78282752 C14.3626597,7.14601389 14.3141001,7.49696989 14.23176,7.8340668 C14.3967042,7.92960248 14.57832,7.97945597 14.7624769,7.97974551 C15.4235988,7.97974551 15.9595336,7.35452235 15.9595005,6.58329594 C15.9591702,5.81236979 15.423341,5.18763694 14.7624618,5.18763694 C14.6262839,5.18743361 14.4910772,5.21431118 14.3626597,5.26713554 L14.3626597,5.26713554 Z" id="Path" fill="#FFAF7A"></path>
                <path d="M6.38249759,12.7676437 C3.58944764,12.7676437 0.397379777,15.5605579 0.397379777,19.1514477 L4.7864712,19.1514477 L4.7864712,20.3484109 L9.97356828,20.3484109 L9.97356828,12.7676437 L6.38249759,12.7676437 Z" id="Path" fill="#549AD4"></path>
                <path d="M8.85992542,13.1666315 C8.59283271,13.1666315 8.37754189,13.3822842 8.37754189,13.6505683 L8.37754189,20.3484109 L9.97356828,20.3484109 L9.97356828,13.1666315 L8.85992542,13.1666315 Z" id="Path" fill="#3588CB"></path>
                <path d="M12.3676154,10.3737172 C12.3676154,11.4376846 12.3676154,12.5016519 12.3676154,13.5656192 L7.57952116,13.5656192 L7.57952116,10.3737172" id="Path" fill="#FFC6A0"></path>
                <path d="M7.57952116,10.3737172 L7.57952116,11.2605326 C8.26755899,11.7078839 9.08826097,11.9696682 9.97356828,11.9696682 C10.8588756,11.9696682 11.6795776,11.7078839 12.3676154,11.2605326 L12.3676154,10.3737172 L7.57952116,10.3737172 Z" id="Path" fill="#FFAF7A"></path>
                <path d="M14.3626446,4.42503418 L14.3626446,6.78312913 C14.3626446,9.21442537 12.4051058,11.1717531 9.9735532,11.1717531 C7.5420006,11.1717531 5.58447686,9.21442537 5.58447686,6.78312913 L5.58447686,4.42503418" id="Path" fill="#FFC6A0"></path>
                <polygon id="Path" fill="#E4EFF8" points="6.78150042 11.9696682 9.97356828 13.964607 13.1656211 11.9696682 14.3626446 13.1665711 9.97356828 15.9595457 5.58447686 13.1665711"></polygon>
                <path d="M11.2500818,13.1666315 L9.97356828,13.964607 L8.73680731,13.1915748 C8.53115301,13.2469206 8.37754189,13.4260783 8.37754189,13.6505683 L8.37754189,14.944153 L9.97356828,15.9595457 L14.3626597,13.1666315 L11.2500818,13.1666315 Z" id="Path" fill="#C4DCF0"></path>
                <path d="M13.564639,4.42470241 L13.564639,6.78282752 C13.564639,9.079288 11.8172786,10.9506713 9.57456546,11.1514395 C9.7062192,11.163504 9.83871745,11.1716475 9.97356828,11.1716475 C12.4051209,11.1716475 14.3626597,9.21407851 14.3626597,6.78278227 L14.3626597,4.42470241 L13.564639,4.42470241 Z" id="Path" fill="#FFAF7A"></path>
                <path d="M9.17554755,13.6508548 C9.17554755,13.3825858 9.39058199,13.1666315 9.65767471,13.1666315 L21.0626739,13.1666315 C21.3297666,13.1666315 21.5448011,13.3825858 21.5448011,13.6508548 L21.5448011,21.8591263 C21.5448011,22.1273802 21.3297666,22.3433496 21.0626739,22.3433496 L9.17554755,22.3433496" id="Path" fill="#FF9751"></path>
                <path d="M18.7517451,20.1600465 C19.1938468,20.1600465 19.5497613,20.5159429 19.5497613,20.958022 L19.5497613,21.944374 C19.5497613,22.3864515 19.1938468,22.7423495 18.7517451,22.7423495 C18.3096449,22.7423495 17.9537304,22.3864515 17.9537304,21.944374 L17.9537304,20.958022 C17.9537304,20.5159429 18.3096449,20.1600465 18.7517451,20.1600465 Z" id="Path" fill="#FF7F29" transform="translate(18.751746, 21.451198) scale(-1, 1) translate(-18.751746, -21.451198) "></path>
                <path d="M18.7517466,20.1600465 C19.1938483,20.1600465 19.5497628,20.5159429 19.5497628,20.958022 L19.5497628,21.944374 C19.5497628,22.3864515 19.1938483,22.7423495 18.7517466,22.7423495 C18.3096464,22.7423495 17.9537319,22.3864515 17.9537319,21.944374 L17.9537319,20.958022 C17.9537319,20.5159429 18.3096464,20.1600465 18.7517466,20.1600465 Z M20.3477805,20.1600465 C20.7898807,20.1600465 21.1457952,20.5159429 21.1457952,20.958022 L21.1457952,21.944374 C21.1457952,22.3864515 20.7898807,22.7423495 20.3477805,22.7423495 C19.9056788,22.7423495 19.5497643,22.3864515 19.5497643,21.944374 L19.5497643,20.958022 C19.5497643,20.5159429 19.9056788,20.1600465 20.3477805,20.1600465 Z M15.5597044,20.1600465 C16.0018046,20.1600465 16.3577206,20.5159429 16.3577206,20.958022 L16.3577206,21.944374 C16.3577206,22.3864515 16.0018046,22.7423495 15.5597044,22.7423495 C15.1176042,22.7423495 14.7616882,22.3864515 14.7616882,21.944374 L14.7616882,20.958022 C14.7616882,20.5159429 15.1176042,20.1600465 15.5597044,20.1600465 Z" id="Shape" fill="#FF7F29" transform="translate(17.953742, 21.451198) scale(-1, 1) translate(-17.953742, -21.451198) "></path>
                <path d="M20.7467804,13.1666315 L20.7467804,21.0614524 C20.7467804,21.3297063 20.5314895,21.5453742 20.2643817,21.5453742 L9.17554755,21.5453742 L9.17554755,22.3433496 L21.0624025,22.3433496 C21.3295103,22.3433496 21.5448011,22.1276818 21.5448011,21.8594279 L21.5448011,13.6505683 C21.5448011,13.3822842 21.3295103,13.1666315 21.0624025,13.1666315 L20.7467804,13.1666315 Z" id="Path" fill="#FF7F29"></path>
                <path d="M0.397379777,22.3434251 C0.397379777,23.0065045 0.931263597,23.5403129 1.59440334,23.5403129 C4.7864712,23.5448371 8.31931565,23.5342806 11.6336119,23.5403129 C12.5175619,23.5403129 12.4852593,20.1861284 11.5696701,20.1861284 L9.78848394,20.1861284 C9.67025194,20.1865658 9.57417336,20.0960972 9.57462578,19.9845912 C9.58216609,19.1492761 9.57462578,17.9548011 8.77660504,17.9548011 C7.57958148,17.9548011 8.18699836,20.2741841 7.18057865,20.3485919 L4.78653153,20.3485919 L4.78653153,19.151704 L0.397379777,19.151704" id="Path" fill="#FFC6A0"></path>
                <path d="M8.69933199,17.9650409 C8.77684633,18.3492496 8.77986246,18.8040205 8.77654472,19.1869324 C8.77610738,19.2983781 8.87260822,19.3892086 8.9908553,19.3887713 L9.56598459,19.3887713 C9.5367282,18.6749757 9.39688569,17.9549067 8.77654472,17.9546956 C8.74819317,17.9544844 8.72572306,17.9620851 8.69933199,17.9651012 L8.69933199,17.9650409 Z M3.98845047,19.1514477 L3.98845047,20.7473987 L4.7864712,20.7473987 L4.7864712,19.1514477 L3.98845047,19.1514477 Z M11.3739991,20.1863094 C11.6146555,21.1783271 11.4392982,22.7423374 10.8354856,22.7423374 C7.52118935,22.7363052 3.98845047,22.7468616 0.796382604,22.7423374 C0.675888516,22.7423374 0.562195783,22.7198673 0.452710542,22.6869916 C0.600500537,23.1802934 1.05169736,23.5402978 1.59440334,23.5402978 C4.7864712,23.544822 8.31921009,23.5342656 11.6335063,23.5402978 C12.5174564,23.5402978 12.4851839,20.1863094 11.5695645,20.1863094 L11.3739991,20.1863094 Z" id="Shape" fill="#FFAF7A"></path>
                <path d="M12.7666268,1.59597715 L13.9636513,1.59597715 C14.4057526,1.59597715 14.7616671,1.95187431 14.7616671,2.3939528 L14.7616671,3.59091619 C14.7616671,4.03299467 14.4057526,4.38889168 13.9636513,4.38889168 L12.7666268,4.38889168 C12.3245262,4.38889168 11.9686111,4.03299467 11.9686111,3.59091619 L11.9686111,2.3939528 C11.9686111,1.95187431 12.3245262,1.59597715 12.7666268,1.59597715 Z" id="Path" fill="#FF9751"></path>
                <path d="M12.7666182,1.5959868 C12.324515,1.5959868 11.9686126,1.95188924 11.9686126,2.3939623 L13.1656361,2.3939623 C13.6077243,2.3939623 13.9636418,2.74986474 13.9636418,3.19193779 L13.9636418,4.38890103 C14.405745,4.38890103 14.7616625,4.03299859 14.7616625,3.59092554 L14.7616625,2.3939623 C14.7616625,1.95188924 14.405745,1.5959868 13.9636418,1.5959868 L12.7666182,1.5959868 Z" id="Path" fill="#FF7F29"></path>
                <polygon id="Path" fill="#E4EFF8" points="13.9636418 13.1666315 16.7567068 13.1666315 16.7567068 17.0946483 15.3601668 16.1262015 13.9636418 17.0946483"></polygon>
                <polygon id="Path" fill="#C4DCF0" points="15.3601668 15.3283316 13.9636418 16.2969744 13.9636418 17.0949499 15.3601668 16.1263071 16.7567068 17.0949499 16.7567068 16.2969744"></polygon>
                <polygon id="Path" fill="#C4DCF0" points="15.9586861 13.1666315 15.9586861 16.5416573 16.7567068 17.0949499 16.7567068 13.1666315"></polygon>
                <path d="M21.9251643,22.2935384 L23.3086747,20.9100883 C23.6212807,20.5974823 23.6212807,20.094182 23.3086747,19.781576 C22.9960536,19.468985 22.4927231,19.468985 22.180102,19.781576 L21.5449067,20.4167562" id="Path" fill="#FFC6A0"></path>
                <path d="M19.5497523,20.9580054 C19.9918525,20.9580054 20.347767,21.3139018 20.347767,21.7559809 L20.347767,22.7423329 C20.347767,23.1844105 19.9918525,23.5403084 19.5497523,23.5403084 C19.1076506,23.5403084 18.7517361,23.1844105 18.7517361,22.7423329 L18.7517361,21.7559809 C18.7517361,21.3139018 19.1076506,20.9580054 19.5497523,20.9580054 Z" id="Path" fill="#FFC6A0" transform="translate(19.549752, 22.249157) scale(-1, 1) translate(-19.549752, -22.249157) "></path>
                <path d="M19.5497568,20.9578034 L19.5497568,21.9443619 C19.5497568,22.38645 19.1938393,22.7423374 18.7517361,22.7423374 C18.7517361,23.1844255 19.1076536,23.5403129 19.5497568,23.5403129 C19.99186,23.5403129 20.3477775,23.1844255 20.3477775,22.7423374 L20.3477775,21.7557789 C20.3477775,21.3137058 19.99186,20.9578034 19.5497568,20.9578034 Z" id="Path" fill="#FFAF7A"></path>
                <path d="M17.9537425,20.9580054 C18.3958427,20.9580054 18.7517572,21.3139018 18.7517572,21.7559809 L18.7517572,22.7423329 C18.7517572,23.1844105 18.3958427,23.5403084 17.9537425,23.5403084 C17.5116408,23.5403084 17.1557263,23.1844105 17.1557263,22.7423329 L17.1557263,21.7559809 C17.1557263,21.3139018 17.5116408,20.9580054 17.9537425,20.9580054 Z" id="Path" fill="#FFC6A0" transform="translate(17.953742, 22.249157) scale(-1, 1) translate(-17.953742, -22.249157) "></path>
                <path d="M17.9537304,20.9578034 L17.9537304,21.9443619 C17.9537304,22.38645 17.5978129,22.7423374 17.1557097,22.7423374 C17.1557097,23.1844255 17.5116272,23.5403129 17.9537304,23.5403129 C18.3958185,23.5403129 18.7517361,23.1844255 18.7517361,22.7423374 L18.7517361,21.7557789 C18.7517361,21.3137058 18.3958185,20.9578034 17.9537304,20.9578034 Z" id="Path" fill="#FFAF7A"></path>
                <path d="M16.357707,20.9580054 C16.7998072,20.9580054 17.1557232,21.3139018 17.1557232,21.7559809 L17.1557232,22.7423329 C17.1557232,23.1844105 16.7998072,23.5403084 16.357707,23.5403084 C15.9156068,23.5403084 15.5596908,23.1844105 15.5596908,22.7423329 L15.5596908,21.7559809 C15.5596908,21.3139018 15.9156068,20.9580054 16.357707,20.9580054 Z" id="Path" fill="#FFC6A0" transform="translate(16.357707, 22.249157) scale(-1, 1) translate(-16.357707, -22.249157) "></path>
                <path d="M16.3576889,20.9578034 L16.3576889,21.9443619 C16.3576889,22.38645 16.0017714,22.7423374 15.5596833,22.7423374 C15.5596833,23.1844255 15.9155857,23.5403129 16.3576889,23.5403129 C16.7997921,23.5403129 17.1557097,23.1844255 17.1557097,22.7423374 L17.1557097,21.7557789 C17.1557097,21.3137058 16.7997921,20.9578034 16.3576889,20.9578034 Z" id="Path" fill="#FFAF7A"></path>
                <path d="M21.1457832,20.9580054 C21.5878849,20.9580054 21.9437994,21.3139018 21.9437994,21.7559809 L21.9437994,22.7423329 C21.9437994,23.1844105 21.5878849,23.5403084 21.1457832,23.5403084 C20.703683,23.5403084 20.3477685,23.1844105 20.3477685,22.7423329 L20.3477685,21.7559809 C20.3477685,21.3139018 20.703683,20.9580054 21.1457832,20.9580054 Z" id="Path" fill="#FFC6A0" transform="translate(21.145784, 22.249157) scale(-1, 1) translate(-21.145784, -22.249157) "></path>
                <path d="M21.1457832,20.9578034 L21.1457832,21.9443619 C21.1457832,22.38645 20.7898657,22.7423374 20.3477775,22.7423374 C20.3477775,23.1844255 20.70368,23.5403129 21.1457832,23.5403129 C21.5878864,23.5403129 21.9438039,23.1844255 21.9438039,22.7423374 L21.9438039,21.7557789 C21.9438039,21.3137058 21.5878864,20.9578034 21.1457832,20.9578034 Z" id="Path" fill="#FFAF7A"></path>
                <path d="M22.6639031,20.5525873 L21.7560051,21.4604401 L21.925119,22.2934781 L23.3083882,20.9102693 C23.6209942,20.5976633 23.6209942,20.0944836 23.3083882,19.7818776 C23.1578837,19.6313731 22.9631477,19.5552311 22.7667604,19.5496512 C22.9719095,19.8596935 22.9374202,20.2790552 22.6639107,20.5525873 L22.6639031,20.5525873 Z" id="Path" fill="#FFAF7A"></path>
                <path d="M3.99161347,4.14650046e-05 C3.77095396,-0.00121858884 3.59114783,0.176838195 3.59027315,0.397482627 C3.59027315,1.42147125 3.68226488,2.46559234 4.07656256,3.31040821 C4.31121688,3.81319581 4.67370955,4.26197989 5.18705357,4.51905908 L5.18705357,4.78946938 C4.27442019,4.78946938 3.59027315,5.62657906 3.59027315,6.58258444 C3.59027315,7.54950803 4.27662196,8.37298483 5.18705357,8.37958999 C5.27753724,8.37958999 5.36088779,8.37054162 5.44889824,8.35380215 C5.78109395,9.31045584 6.38979269,10.1060786 7.18128352,10.6760354 L7.18128352,11.747543 L6.99580708,11.6314223 C6.9273411,11.5876885 6.84711224,11.5659725 6.76591823,11.5691394 C6.66593377,11.5736636 6.57139342,11.6157385 6.50095188,11.6867682 L5.7024184,12.4852872 C2.4226417,13.0950868 4.69761035e-05,15.9403149 4.69761035e-05,19.4506742 L4.69761035e-05,22.3433466 C4.69761035e-05,23.2293778 0.719588208,23.9392976 1.5968274,23.9392976 C4.79013187,23.9438218 8.32131745,23.9332654 11.634181,23.9392976 C11.8879877,23.9392976 12.0860268,23.81066 12.2209984,23.6595372 C12.3559699,23.5084445 12.4383399,23.3348215 12.5030962,23.1444287 C12.5462267,23.01745 12.5801581,22.8809252 12.6065492,22.740766 L15.1627887,22.740766 C15.1627887,23.407887 15.7027802,23.9392976 16.359013,23.9392976 C16.6658733,23.9392976 16.9443971,23.8266455 17.1570036,23.6332818 C17.3696251,23.8267058 17.6481339,23.9392976 17.9550092,23.9392976 C18.2618243,23.9392976 18.5404084,23.8266455 18.7530149,23.6332818 C18.9662547,23.8264645 19.2451405,23.9392976 19.5517897,23.9392976 C19.8582729,23.9392976 20.1364951,23.8270979 20.3490111,23.634066 C20.5622057,23.8270526 20.8413177,23.9392976 21.147801,23.9392976 C21.8040187,23.9392976 22.3440102,23.4101944 22.3440102,22.740766 L22.3440102,22.4399681 L23.5924435,21.19158 C24.0564589,20.7275797 24.0564589,19.9622085 23.5924435,19.4982082 C23.143177,19.0490021 22.4213285,19.0271955 21.9465757,19.4546253 L21.9465757,13.6513804 C21.9465757,13.1699168 21.5590342,12.7684558 21.0628519,12.7684558 L14.5299912,12.7684558 L13.4491031,11.6868283 C13.3726444,11.6099172 13.2683469,11.5675407 13.1599927,11.5691996 C13.0877565,11.5707227 13.0174809,11.5927253 12.9566005,11.6314825 L12.7687862,11.7491113 L12.7687862,10.6768347 C13.5602774,10.1068328 14.1745707,9.29312806 14.5003879,8.35381738 C14.5886095,8.37085847 14.6715227,8.37960522 14.7622326,8.37960522 C15.674866,8.37960522 16.359013,7.54522513 16.359013,6.58259952 C16.359013,5.62659429 15.674866,4.78948461 14.7622326,4.78948461 L14.7622326,4.48490149 C15.00589,4.26543335 15.1627887,3.94021981 15.1627887,3.59018372 L15.1627887,2.39477379 C15.1627887,1.73857112 14.636038,1.19625739 13.9642265,1.19625739 C13.5528877,1.19675611 13.123422,1.19927352 12.7192917,1.19509619 C12.5412201,0.508189398 11.9121921,4.14650046e-05 11.1720055,4.14650046e-05 L3.99161347,4.14650046e-05 Z M11.1720658,0.798807868 C11.5935237,0.798807868 11.9260059,1.1120925 11.9638286,1.50560598 C11.7157219,1.73389613 11.5695003,2.04858326 11.5695003,2.39475871 L11.5695003,3.59016864 C11.5695003,3.72996592 11.5937801,3.86324836 11.6388711,3.98838728 L6.38250875,3.98838728 C5.52900645,3.98838728 5.07987567,3.56904071 4.80132168,2.97221041 C4.53526953,2.40216329 4.42147123,1.60779206 4.39139295,0.798807868 L11.1720658,0.798807868 Z M13.9642868,1.99421781 C14.1797738,1.99421781 14.3648434,2.1668605 14.3648434,2.39475871 L14.3648434,3.59016864 C14.3648434,3.81808193 14.176652,3.99149404 13.9642868,3.99149404 C13.5570954,3.99452524 13.1579565,3.98847791 12.7532533,3.98847791 C12.5367261,3.98093761 12.3675065,3.81257751 12.3675065,3.59025913 L12.3675065,2.39484919 C12.3675065,2.16695113 12.5564666,1.99430814 12.7688469,1.99426305 L13.9642868,1.99421781 Z M5.98505923,4.76141959 C6.11264121,4.77951482 6.24443067,4.78630109 6.38249367,4.78630109 L13.9642868,4.78630109 L13.9642868,6.78357717 C13.9642868,8.99177084 12.1940039,10.7711171 9.97662573,10.7711171 C7.77170455,10.7711171 5.98505923,9.0005933 5.98505923,6.78357717 L5.98505923,4.76141959 Z M5.18705357,6.78363885 C5.18705357,7.05196848 5.21012691,7.32070498 5.25250343,7.57693951 C5.22897767,7.57997071 5.21057933,7.58146369 5.18705357,7.58146369 C4.7775094,7.58146369 4.38904792,7.16875244 4.38904792,6.58243348 C4.389063,5.99611422 4.77752448,5.58729392 5.18705357,5.58729392 L5.18705357,6.78363885 Z M14.7622929,5.58744487 C15.171822,5.58744487 15.5602835,5.99626503 15.5602835,6.58258444 C15.5602986,7.16890324 15.171822,7.58161465 14.7622929,7.58161465 C14.738918,7.58161465 14.7224801,7.58009151 14.6991051,7.57709046 C14.7414817,7.32085609 14.7622929,7.05211944 14.7622929,6.78378981 L14.7622929,5.58744487 Z M7.97927409,11.1384671 C8.58771646,11.4179713 9.26286037,11.5691546 9.97662573,11.5691546 C10.6895013,11.5691546 11.3625189,11.4170816 11.9700567,11.1382261 L11.9700567,12.2479025 L11.1362192,12.7684558 L9.65788192,12.7684558 C9.45554535,12.7684558 9.27828784,12.8275718 9.11472352,12.9562698 L7.97927409,12.2463492 L7.97927409,11.1384671 Z M6.83916476,12.4762388 L8.77727975,13.6856737 L8.77727975,14.7228888 L6.21806976,13.0980878 L6.83916476,12.4762388 Z M13.1101814,12.4762388 L13.4024135,12.7684558 L12.6418227,12.7684558 L13.1101814,12.4762388 Z M5.37257526,13.5016902 L8.77732499,15.6696179 L8.77732499,17.5539102 C8.29467001,17.5539102 7.99417374,17.8176249 7.82035461,18.1165377 C7.64653548,18.4154656 7.58013554,18.7415235 7.51720415,19.0415372 C7.454318,19.3415508 7.39731328,19.6194865 7.32549941,19.7779536 C7.28176564,19.8646671 7.23742864,19.9508226 7.15171044,19.9486622 L5.18709882,19.9486622 L5.18709882,19.1506454 C5.18622112,18.931509 5.00880074,18.7540856 4.78966437,18.7532109 L0.834728679,18.7532109 C1.12622183,16.0944991 2.91573247,14.0859131 5.2694465,13.4039294 C5.28452711,13.4335266 5.33457966,13.4771081 5.3725828,13.5016895 L5.37257526,13.5016902 Z M13.5668374,13.5664313 L13.5668374,17.0949921 C13.5698686,17.4144749 13.9272939,17.6018062 14.1910689,17.4215024 L15.360013,16.6118395 L16.5297406,17.4215024 C16.7939831,17.6058328 17.1564607,17.4169782 17.1570639,17.0949921 L17.1570639,13.5664313 L21.0629122,13.5664313 C21.1149403,13.5664313 21.147816,13.6041328 21.147816,13.6513352 L21.147816,20.5580435 C20.8411971,20.5580435 20.5622661,20.6702432 20.3490262,20.8627322 C20.1364801,20.6702885 19.8584237,20.5580435 19.5518047,20.5580435 C19.2452008,20.5580435 18.9662698,20.6702432 18.75303,20.8627322 C18.5404537,20.6701075 18.2617941,20.5580435 17.9550243,20.5580435 C17.6482093,20.5580435 17.3696251,20.6700924 17.1570337,20.8627322 C16.9444273,20.6700472 16.6658582,20.5580435 16.3590281,20.5580435 C15.7027953,20.5580435 15.1628038,21.0825924 15.1628038,21.7542225 L15.1628038,21.9428056 L12.6752867,21.9428056 C12.6753318,21.9141524 12.6768099,21.8571477 12.6768099,21.8571477 C12.6768099,21.8571477 12.678333,21.1391145 12.4648369,20.5697913 C12.3934966,20.3795795 12.302169,20.2031514 12.161678,20.0546828 C12.0211267,19.9062896 11.8228168,19.7866249 11.5694173,19.7866249 L9.97575105,19.7866249 C9.97725911,19.4016622 9.96971881,18.9707035 9.86747226,18.5584901 C9.81242803,18.3381171 9.72631773,18.1184981 9.57524016,17.931951 L9.57524016,13.6513955 C9.57524016,13.6057012 9.60585381,13.5664313 9.65788192,13.5664313 L13.5668374,13.5664313 Z M14.3648434,13.5664313 L16.3590733,13.5664313 L16.3590733,16.332079 L15.5899018,15.7990548 C15.4526682,15.7032929 15.270419,15.7032929 15.1332307,15.7990548 L14.3648434,16.332079 L14.3648434,13.5664313 Z M11.878879,21.8688201 C11.8849113,22.2524105 11.8339388,22.6399973 11.7494874,22.8881187 C11.7140479,22.9911192 11.6565908,23.1029269 11.6178336,23.1398141 C8.30694563,23.1337818 4.78235027,23.1458463 1.59684248,23.1413221 C1.14784742,23.1413221 0.798851904,22.7790104 0.798851904,22.3433466 L0.798851904,19.5512166 L4.389063,19.5512166 L4.389063,20.3460704 C4.38822603,20.5676348 4.56805478,20.747471 4.78963421,20.7466265 L7.1812986,20.7466265 C7.5954876,20.7288314 7.88381382,20.4794584 8.05021329,20.1076158 C8.18488316,19.8103015 8.23971626,19.4927641 8.30037048,19.2036537 C8.36099454,18.9145584 8.42795246,18.6549155 8.50922187,18.517124 C8.54104197,18.4620797 8.60528537,18.3472409 8.77729483,18.3519159 C8.84757048,18.3519159 8.89778892,18.3669965 8.94562462,18.4197786 C8.99343016,18.4727116 9.05209374,18.5900086 9.0929622,18.7533014 C9.17454831,19.0799022 9.18163619,19.5667195 9.17786604,19.9814363 C9.17646958,20.3229971 9.45681212,20.5858371 9.79039525,20.5846004 L11.5644633,20.5842083 C11.625389,20.645134 11.6701784,20.7261169 11.7168077,20.8503208 C11.8185867,21.1217115 11.8733746,21.4852297 11.878879,21.8688201 L11.878879,21.8688201 Z M22.746195,19.9455746 C22.8464811,19.9455746 22.946918,19.9826729 23.0275238,20.0632034 C23.1824771,20.2181567 23.1887054,20.4646643 23.0275238,20.6258459 L22.2825114,21.3723814 C22.2163076,21.1768613 22.0967183,20.9982013 21.9466361,20.8619631 L21.9466361,20.5790809 L22.4648662,20.0632034 C22.5453967,19.9826729 22.6458486,19.9455746 22.746195,19.9455746 Z M16.3590733,21.3568333 C16.5730069,21.3568333 16.7596295,21.5263696 16.7596295,21.7542678 L16.7596295,22.7408263 C16.7596295,22.9687396 16.5761135,23.1413824 16.3590733,23.1413824 C16.1420181,23.1413824 15.9616238,22.9687396 15.9616238,22.7408263 L15.9616238,21.7542678 C15.9616238,21.5263696 16.1451398,21.3568333 16.3590733,21.3568333 Z M17.9550696,21.3568333 C18.1674498,21.3568333 18.3525191,21.5263696 18.3525191,21.7542678 L18.3525191,22.7408263 C18.3525191,22.9687396 18.1720042,23.1413824 17.9550696,23.1413824 C17.738135,23.1413824 17.5545134,22.9687396 17.5545134,22.7408263 L17.5545134,21.7542678 C17.5545134,21.5263696 17.7427044,21.3568333 17.9550696,21.3568333 Z M19.55185,21.3568333 C19.7687846,21.3568333 19.9492995,21.5263696 19.9492995,21.7542678 L19.9492995,22.7408263 C19.9492995,22.9687396 19.7693275,23.1413824 19.55185,23.1413824 C19.3343876,23.1413824 19.1512939,22.9687396 19.1512939,22.7408263 L19.1512939,21.7542678 C19.1512939,21.5263696 19.3349154,21.3568333 19.55185,21.3568333 Z M21.1478613,21.3568333 C21.3649015,21.3568333 21.5452957,21.5263696 21.5452957,21.7542678 L21.5452957,22.7408263 C21.5452957,22.9687396 21.3647959,23.1413824 21.1478613,23.1413824 C20.9309116,23.1413824 20.7472901,22.9687396 20.7472901,22.7408263 L20.7472901,21.7542678 C20.7472901,21.5263696 20.930806,21.3568333 21.1478613,21.3568333 Z" id="Shape" fill="#000000"></path>
            </g>
        </g>
    </g>
</svg>