<?xml version="1.0" encoding="UTF-8"?>
<svg width="481px" height="75px" viewBox="0 0 481 75" version="1.1" xmlns="http://www.w3.org/2000/svg" xmlns:xlink="http://www.w3.org/1999/xlink">
    <!-- Generator: Sketch 61.2 (89653) - https://sketch.com -->
    <title>Group 17</title>
    <desc>Created with Sketch.</desc>
    <defs>
        <polygon id="path-1" points="0.303059119 0.740671673 36.7527627 0.740671673 36.7527627 8.92491559 0.303059119 8.92491559"></polygon>
        <path d="M25.8969136,0.0575968222 C10.5535041,0.0575968222 0,11.8044687 0,11.8044687 L0,11.8044687 C43.4424416,-18.1113208 48.6870546,73.4359484 79.8928593,73.4359484 L79.8928593,73.4359484 L179.011999,73.4359484 L301.735468,73.4359484 L400.854607,73.4359484 C432.060412,73.4359484 437.306215,-18.1113208 480.748657,11.8044687 L480.748657,11.8044687 C480.748657,11.8044687 470.195153,0.0575968222 454.850553,0.0575968222 L454.850553,0.0575968222 L25.8969136,0.0575968222 Z" id="path-3"></path>
        <linearGradient x1="49.9999451%" y1="89.1566221%" x2="49.9999451%" y2="-4.55606495%" id="linearGradient-5">
            <stop stop-color="#F23F3F" offset="0%"></stop>
            <stop stop-color="#B50E0E" offset="100%"></stop>
        </linearGradient>
        <path d="M1.44149487,1.5551142 L1.4426852,1.5551142 L1.44149487,1.5551142 Z" id="path-6"></path>
        <linearGradient x1="50.0209%" y1="50.01353%" x2="50.0209%" y2="50.11353%" id="linearGradient-8">
            <stop stop-color="#F23F3F" offset="0%"></stop>
            <stop stop-color="#B50E0E" offset="100%"></stop>
        </linearGradient>
        <linearGradient x1="39216.4795%" y1="-4641.98647%" x2="39216.4795%" y2="-4641.88647%" id="linearGradient-9">
            <stop stop-color="#F23F3F" offset="0%"></stop>
            <stop stop-color="#B50E0E" offset="100%"></stop>
        </linearGradient>
        <path d="M442.934116,0.876911619 C440.403465,1.74374379 437.962089,3.0468719 435.742116,4.79205561 L435.742116,4.79205561 C431.329547,8.33426018 427.663317,13.0600794 424.427988,18.0494042 L424.427988,18.0494042 C417.906146,28.0424528 412.782947,39.1845581 406.474175,49.0782522 L406.474175,49.0782522 C403.350738,54.01286 399.90353,58.7084409 395.744502,61.9972195 L395.744502,61.9972195 C393.686414,63.6776068 391.39383,64.7892254 389.047681,65.3997517 L389.047681,65.3997517 C387.875202,65.756852 386.667012,65.7798908 385.467155,65.8634062 L385.467155,65.8634062 L381.558097,65.8202085 L350.227308,65.4155909 C308.451334,64.8842602 266.67536,64.8050645 224.899387,64.7402681 L224.899387,64.7402681 C183.124604,64.8137041 141.34744,64.8885799 99.5726567,65.4271102 L99.5726567,65.4271102 L68.2406766,65.8288481 L64.332809,65.8706058 C63.132952,65.7885303 61.9235723,65.7640516 60.7499027,65.4069513 L60.7499027,65.4069513 C58.4037537,64.7949851 56.1099795,63.6833664 54.0518914,62.0044191 L54.0518914,62.0044191 C49.8904826,58.7142006 46.4468454,54.0157398 43.3186468,49.0840119 L43.3186468,49.0840119 C37.0122555,39.185998 31.8890566,28.0453327 25.3695955,18.052284 L25.3695955,18.052284 C22.1330765,13.0600794 18.4680371,8.3357001 14.0554677,4.79349553 L14.0554677,4.79349553 C11.8366845,3.04831182 9.39530884,1.74518371 6.86465806,0.876911619 L6.86465806,0.876911619 C4.89346442,0.239026812 2.86513472,0.0201588878 0.845137372,0.0403177756 L0.845137372,0.0403177756 C29.9690473,0.191509434 37.6252777,67.6762661 64.4185131,67.6762661 L64.4185131,67.6762661 L163.537652,67.6762661 L286.261121,67.6762661 L385.381451,67.6762661 C412.173496,67.6762661 419.830917,0.188629593 448.957208,0.0403177756 L448.957208,0.0403177756 C448.866742,0.038877855 448.775086,0.038877855 448.684621,0.038877855 L448.684621,0.038877855 C446.753899,0.038877855 444.818415,0.266385303 442.934116,0.876911619" id="path-10"></path>
        <linearGradient x1="49.9999673%" y1="8.10325016%" x2="49.9999673%" y2="95.3370598%" id="linearGradient-12">
            <stop stop-color="#F23F3F" offset="0%"></stop>
            <stop stop-color="#B50E0E" offset="100%"></stop>
        </linearGradient>
    </defs>
    <g id="final" stroke="none" stroke-width="1" fill="none" fill-rule="evenodd">
        <g id="Dashboard-Vendor" transform="translate(-372.000000, -30.000000)">
            <g id="Group-17" transform="translate(612.513007, 66.750000) rotate(-180.000000) translate(-612.513007, -66.750000) translate(371.013007, 29.250000)">
                <g id="Group-6" transform="translate(1.190334, 2.946375)">
                    <path d="M0.000238066865,8.92491559 L36.4506558,8.92491559 C36.4506558,8.92491559 29.134861,0.075163853 18.5170788,0.780724926 C7.89810632,1.48484608 0.000238066865,8.92491559 0.000238066865,8.92491559" id="Fill-1" fill="#820000"></path>
                    <g id="Group-5" transform="translate(443.994704, 0.000000)">
                        <mask id="mask-2" fill="white">
                            <use xlink:href="#path-1"></use>
                        </mask>
                        <g id="Clip-4"></g>
                        <path d="M36.7534769,8.92491559 L0.303059119,8.92491559 C0.303059119,8.92491559 7.61885389,0.075163853 18.2366361,0.780724926 C28.8544183,1.48484608 36.7534769,8.92491559 36.7534769,8.92491559" id="Fill-3" fill="#820000" mask="url(#mask-2)"></path>
                    </g>
                </g>
                <g id="Group-9" transform="translate(1.190334, 0.066534)">
                    <mask id="mask-4" fill="white">
                        <use xlink:href="#path-3"></use>
                    </mask>
                    <g id="Clip-8"></g>
                    <path d="M25.8969136,0.0575968222 C10.5535041,0.0575968222 0,11.8044687 0,11.8044687 L0,11.8044687 C43.4424416,-18.1113208 48.6870546,73.4359484 79.8928593,73.4359484 L79.8928593,73.4359484 L179.011999,73.4359484 L301.735468,73.4359484 L400.854607,73.4359484 C432.060412,73.4359484 437.306215,-18.1113208 480.748657,11.8044687 L480.748657,11.8044687 C480.748657,11.8044687 470.195153,0.0575968222 454.850553,0.0575968222 L454.850553,0.0575968222 L25.8969136,0.0575968222 Z" id="Fill-7" fill="url(#linearGradient-5)" mask="url(#mask-4)"></path>
                </g>
                <g id="Group-12" transform="translate(14.284012, 4.386296)">
                    <mask id="mask-7" fill="white">
                        <use xlink:href="#path-6"></use>
                    </mask>
                    <g id="Clip-11"></g>
                    <path d="M1.44149487,1.5551142 L1.4426852,1.5551142 L1.44149487,1.5551142 Z" id="Fill-10" fill="url(#linearGradient-8)" mask="url(#mask-7)"></path>
                </g>
                <path d="" id="Fill-13" fill="url(#linearGradient-9)"></path>
                <g id="Group-16" transform="translate(16.664681, 5.826216)">
                    <mask id="mask-11" fill="white">
                        <use xlink:href="#path-10"></use>
                    </mask>
                    <g id="Clip-15"></g>
                    <path d="M442.934116,0.876911619 C440.403465,1.74374379 437.962089,3.0468719 435.742116,4.79205561 L435.742116,4.79205561 C431.329547,8.33426018 427.663317,13.0600794 424.427988,18.0494042 L424.427988,18.0494042 C417.906146,28.0424528 412.782947,39.1845581 406.474175,49.0782522 L406.474175,49.0782522 C403.350738,54.01286 399.90353,58.7084409 395.744502,61.9972195 L395.744502,61.9972195 C393.686414,63.6776068 391.39383,64.7892254 389.047681,65.3997517 L389.047681,65.3997517 C387.875202,65.756852 386.667012,65.7798908 385.467155,65.8634062 L385.467155,65.8634062 L381.558097,65.8202085 L350.227308,65.4155909 C308.451334,64.8842602 266.67536,64.8050645 224.899387,64.7402681 L224.899387,64.7402681 C183.124604,64.8137041 141.34744,64.8885799 99.5726567,65.4271102 L99.5726567,65.4271102 L68.2406766,65.8288481 L64.332809,65.8706058 C63.132952,65.7885303 61.9235723,65.7640516 60.7499027,65.4069513 L60.7499027,65.4069513 C58.4037537,64.7949851 56.1099795,63.6833664 54.0518914,62.0044191 L54.0518914,62.0044191 C49.8904826,58.7142006 46.4468454,54.0157398 43.3186468,49.0840119 L43.3186468,49.0840119 C37.0122555,39.185998 31.8890566,28.0453327 25.3695955,18.052284 L25.3695955,18.052284 C22.1330765,13.0600794 18.4680371,8.3357001 14.0554677,4.79349553 L14.0554677,4.79349553 C11.8366845,3.04831182 9.39530884,1.74518371 6.86465806,0.876911619 L6.86465806,0.876911619 C4.89346442,0.239026812 2.86513472,0.0201588878 0.845137372,0.0403177756 L0.845137372,0.0403177756 C29.9690473,0.191509434 37.6252777,67.6762661 64.4185131,67.6762661 L64.4185131,67.6762661 L163.537652,67.6762661 L286.261121,67.6762661 L385.381451,67.6762661 C412.173496,67.6762661 419.830917,0.188629593 448.957208,0.0403177756 L448.957208,0.0403177756 C448.866742,0.038877855 448.775086,0.038877855 448.684621,0.038877855 L448.684621,0.038877855 C446.753899,0.038877855 444.818415,0.266385303 442.934116,0.876911619" id="Fill-14" fill="url(#linearGradient-12)" mask="url(#mask-11)"></path>
                </g>
            </g>
        </g>
    </g>
</svg>