<?xml version="1.0" encoding="UTF-8"?>
<svg width="17px" height="13px" viewBox="0 0 17 13" version="1.1" xmlns="http://www.w3.org/2000/svg" xmlns:xlink="http://www.w3.org/1999/xlink">
    <!-- Generator: Sketch 61.2 (89653) - https://sketch.com -->
    <title>fa-solid:box-open</title>
    <desc>Created with Sketch.</desc>
    <g id="Page-1" stroke="none" stroke-width="1" fill="none" fill-rule="evenodd">
        <g id="Drop_down" transform="translate(-1326.000000, -124.000000)">
            <g id="Group-5" transform="translate(1302.000000, 101.078750)">
                <g id="fa-solid:box-open" transform="translate(23.875000, 22.464531)">
                    <rect id="ViewBox" x="1.0264" y="0" width="16.896" height="13.5168"></rect>
                    <path d="M11.3147387,6.7584 C10.8685787,6.7584 10.4488187,6.5208 10.2217787,6.14064 L8.5242587,3.3264 L6.8293787,6.14064 C6.5996987,6.52344 6.1799387,6.76104 5.7337787,6.76104 C5.6149787,6.76104 5.4961787,6.7452 5.3826587,6.71088 L1.7658587,5.676 L1.7658587,10.3752 C1.7658587,10.76328 2.0298587,11.1012 2.4047387,11.1936 L8.1124187,12.62184 C8.3816987,12.68784 8.6641787,12.68784 8.9308187,12.62184 L14.6437787,11.1936 C15.0186587,11.09856 15.2826587,10.76064 15.2826587,10.3752 L15.2826587,5.676 L11.6658587,6.70824 C11.5523387,6.74256 11.4335387,6.7584 11.3147387,6.7584 Z M16.9273787,3.79632 L15.5677787,1.0824 C15.4859387,0.91872 15.3090587,0.82368 15.1268987,0.84744 L8.5242587,1.6896 L10.9451387,5.70504 C11.0454587,5.87136 11.2460987,5.95056 11.4335387,5.89776 L16.6580987,4.40616 C16.9194587,4.3296 17.0461787,4.0392 16.9273787,3.79632 L16.9273787,3.79632 Z M1.4807387,1.0824 L0.1211387,3.79632 C-0.000301300199,4.0392 0.1290587,4.3296 0.3877787,4.40352 L5.6123387,5.89512 C5.7997787,5.94792 6.0004187,5.86872 6.1007387,5.7024 L8.5242587,1.6896 L1.9189787,0.84744 C1.7368187,0.82632 1.5625787,0.91872 1.4807387,1.0824 Z" id="Shape" fill="#F89E7C" fill-rule="nonzero"></path>
                </g>
            </g>
        </g>
    </g>
</svg>