<?xml version="1.0" encoding="UTF-8"?>
<svg width="146px" height="100px" viewBox="0 0 146 100" version="1.1" xmlns="http://www.w3.org/2000/svg" xmlns:xlink="http://www.w3.org/1999/xlink">
    <!-- Generator: Sketch 61.2 (89653) - https://sketch.com -->
    <title>undraw_maker_launch_crhe</title>
    <desc>Created with Sketch.</desc>
    <defs>
        <linearGradient x1="49.9996956%" y1="99.9906158%" x2="49.9996956%" y2="-0.00256609128%" id="linearGradient-1">
            <stop stop-color="#808080" stop-opacity="0.25" offset="0%"></stop>
            <stop stop-color="#808080" stop-opacity="0.12" offset="54%"></stop>
            <stop stop-color="#808080" stop-opacity="0.1" offset="100%"></stop>
        </linearGradient>
    </defs>
    <g id="final" stroke="none" stroke-width="1" fill="none" fill-rule="evenodd">
        <g id="Dashboard-Vendor" transform="translate(-40.000000, -708.000000)">
            <g id="Group-7" transform="translate(12.750000, 707.958250)">
                <g id="undraw_maker_launch_crhe" transform="translate(28.159574, 0.000000)">
                    <path d="M1.10886076,52.4632911 C3.66075949,48.2949367 9.43164557,49.021519 13.5240506,51.1974684 C17.6164557,53.3734177 21.7,56.621519 26.2037975,55.9974684 C30.0012658,55.4708861 33.1151899,52.1594937 34.7974684,48.3392405 C36.4797468,44.5189873 36.9734177,40.2113924 37.4468354,35.9924051 C38.0417722,30.6919831 38.6362869,25.3881857 39.2303797,20.0810127 C39.4481013,18.1405063 39.7050633,16.0924051 40.7962025,14.556962 C42.2379747,12.5316456 44.8810127,11.9088608 47.1417722,12.5177215 C49.4025316,13.1265823 51.3303797,14.7594937 52.9797468,16.5810127 C58.2632911,22.4139241 61.256962,30.2987342 65.8759494,36.7898734 C66.8164557,38.1113924 67.878481,39.4177215 69.2835443,40.0556962 C71.3088608,40.9734177 73.6341772,40.3240506 75.6126582,39.3025316 C82.0683544,35.9746835 86.4050633,29.1835443 90.6670886,22.8468354 C92.7405063,19.7670886 95.2683544,16.4734177 98.7177215,16.1379747 C102.346835,15.7772152 105.497468,18.8696203 107.63038,22.1443038 C114.475949,32.6810127 115.943038,47.0658228 124.212658,56.2556962 C125.239241,57.3949367 126.372152,58.4481013 127.677215,59.1556962 C128.10762,59.3882688 128.556383,59.5851319 129.018987,59.7443038 C136.234177,62.2417722 138.639241,72.2670886 133.302532,78.2113924 C133.187342,78.3379747 133.06962,78.464557 132.950633,78.5911392 C132.158228,79.4278481 131.260759,80.2189873 130.189873,80.4683544 C129.193671,80.6987342 128.164557,80.4329114 127.177215,80.1455696 C120.865823,78.3037975 114.63038,75.4886076 108.105063,75.6253165 C101.755696,75.7518987 95.7329114,78.6848101 89.4544304,79.7405063 C85.2329114,80.4506329 80.9379747,80.3088608 76.6696203,80.1556962 C62.4535865,79.6443038 48.2405063,79.0493671 34.0303797,78.3708861 C26.9772152,78.0468354 19.921519,77.7379747 12.8696203,77.3772152 C7.43670886,77.0949367 3.97594937,76.4734177 3.34556962,70.1683544 C2.79367089,64.6468354 -2.16329114,57.8101266 1.10886076,52.4632911 Z" id="Path" fill="#FFFFFF" fill-rule="nonzero" opacity="0.1"></path>
                    <ellipse id="Oval" fill="#30374E" fill-rule="nonzero" cx="99.9873418" cy="94.878481" rx="34.1759494" ry="4.77594937"></ellipse>
                    <path d="M18.8278481,74.2746835 C18.8278481,74.2746835 20.4987342,73.8949367 21.5936709,75.0177215 C21.5936709,75.0177215 20.8898734,75.6506329 19.2341772,74.9493671 L18.8278481,74.2746835 Z" id="Path" fill="#FFFFFF" fill-rule="nonzero"></path>
                    <path d="M18.643038,74.2582278 C18.643038,74.2582278 17.6531646,75.6607595 18.2810127,77.1 C18.2810127,77.1 19.1367089,76.6886076 19.1126582,74.8911392 L18.643038,74.2582278 Z" id="Path" fill="#FFFFFF" fill-rule="nonzero"></path>
                    <path d="M17.5291139,72.1443038 C17.5291139,72.1443038 18.1227848,70.8594937 20.9468354,72.4126582 C20.9468354,72.4126582 20.643038,73.2708861 19.443038,73.2835443 C18.243038,73.2962025 17.8835443,72.7759494 17.5291139,72.1443038 Z" id="Path" fill="#FFFFFF" fill-rule="nonzero"></path>
                    <path d="M17.3493671,72.0658228 C17.3493671,72.0658228 15.935443,72 16.0151899,75.2202532 C16.0151899,75.2202532 16.9177215,75.3468354 17.4810127,74.2860759 C18.0443038,73.2253165 17.7455696,72.6772152 17.3493671,72.0658228 Z" id="Path" fill="#FFFFFF" fill-rule="nonzero"></path>
                    <path d="M16.364557,69.5594937 C16.364557,69.5594937 16.9974684,67.321519 19.9683544,68.6886076 C19.9683544,68.6886076 19.4493671,70.7379747 16.7025316,70.2886076 L16.364557,69.5594937 Z" id="Path" fill="#FFFFFF" fill-rule="nonzero"></path>
                    <path d="M15.2620253,66.3518987 C15.2620253,66.3518987 16.6012658,64.043038 19.3746835,65.9164557 C19.3746835,65.9164557 18.5911392,68.0518987 15.5405063,67.1253165 L15.2620253,66.3518987 Z" id="Path" fill="#FFFFFF" fill-rule="nonzero"></path>
                    <path d="M14.7379747,63.2632911 C14.7379747,63.2632911 16.3367089,61.1177215 19.0873418,62.9708861 C19.0873418,62.9708861 17.5607595,64.8620253 14.7721519,63.7810127 L14.7379747,63.2632911 Z" id="Path" fill="#FFFFFF" fill-rule="nonzero"></path>
                    <path d="M14.264557,60.2607595 C14.264557,60.2607595 15.8797468,58.0253165 18.5164557,59.8620253 C18.5164557,59.8620253 16.6582278,61.8658228 14.2974684,60.756962 L14.264557,60.2607595 Z" id="Path" fill="#FFFFFF" fill-rule="nonzero"></path>
                    <path d="M14.2417722,57.5696203 C14.2417722,57.5696203 15.9063291,54.7177215 18.3746835,56.4088608 C18.3746835,56.4088608 16.5493671,58.8860759 14.2772152,58.0873418 L14.2417722,57.5696203 Z" id="Path" fill="#FFFFFF" fill-rule="nonzero"></path>
                    <path d="M14.4658228,54.4075949 C14.4658228,54.4075949 16.2379747,51.5721519 18.6544304,53.4987342 C18.6544304,53.4987342 16.4898734,55.9987342 14.4936709,54.9101266 L14.4658228,54.4075949 Z" id="Path" fill="#FFFFFF" fill-rule="nonzero"></path>
                    <path d="M14.9253165,51.564557 C14.9253165,51.564557 17.0772152,48.8670886 19.1721519,49.7455696 C19.1721519,49.7455696 16.9341772,52.6063291 14.8683544,52.2468354 L14.9253165,51.564557 Z" id="Path" fill="#FFFFFF" fill-rule="nonzero"></path>
                    <path d="M15.5582278,48.8556962 C15.5582278,48.8556962 18.0316456,45.564557 19.6556962,46.4987342 C19.6556962,46.4987342 17.8443038,49.0417722 15.4050633,49.4544304 L15.5582278,48.8556962 Z" id="Path" fill="#FFFFFF" fill-rule="nonzero"></path>
                    <path d="M16.5227848,45.6987342 C16.5227848,45.6987342 18.6962025,43 20.4468354,43.5164557 C20.4468354,43.5164557 18.6177215,46.2873418 16.256962,46.5139241 L16.5227848,45.6987342 Z" id="Path" fill="#FFFFFF" fill-rule="nonzero"></path>
                    <path d="M17.3898734,42.7481013 C17.3898734,42.7481013 19.8177215,40.1405063 20.9734177,40.4924051 C20.9734177,40.4924051 19.2835443,43.3227848 17.3126582,43.2962025 L17.3898734,42.7481013 Z" id="Path" fill="#FFFFFF" fill-rule="nonzero"></path>
                    <path d="M18.2468354,40.0189873 C18.2468354,40.0189873 20.2835443,36.9620253 21.5151899,37.1075949 C21.5151899,37.1075949 20.3367089,39.7898734 18.2670886,40.3139241 L18.2468354,40.0189873 Z" id="Path" fill="#FFFFFF" fill-rule="nonzero"></path>
                    <path d="M19.1316456,36.3594937 C19.1316456,36.3594937 20.9531646,33.9974684 22.0189873,33.9316456 C22.0189873,33.9316456 20.6632911,37.0126582 19.0987342,37.0962025 L19.1316456,36.3594937 Z" id="Path" fill="#FFFFFF" fill-rule="nonzero"></path>
                    <path d="M19.6379747,33.9278481 L21.2303797,29.156962 C21.2303797,29.156962 21.6101266,33.3468354 19.4582278,34.8050633 L19.6379747,33.9278481 Z" id="Path" fill="#FFFFFF" fill-rule="nonzero"></path>
                    <path d="M20.0670886,28.7556962 C20.0670886,28.7556962 20.1227848,24.8582278 19.8987342,24.556962 C19.8987342,24.556962 21.4772152,27.6886076 20.1696203,30.4696203 L20.0670886,28.7556962 Z" id="Path" fill="#FFFFFF" fill-rule="nonzero"></path>
                    <path d="M16.2835443,69.5126582 C16.2835443,69.5126582 14.2253165,68.421519 13.1481013,71.5037975 C13.1481013,71.5037975 14.9835443,72.5518987 16.5658228,70.2620253 L16.2835443,69.5126582 Z" id="Path" fill="#FFFFFF" fill-rule="nonzero"></path>
                    <path d="M15.1898734,66.2316456 C15.1898734,66.2316456 12.6936709,65.2886076 11.7278481,68.4949367 C11.7278481,68.4949367 13.6860759,69.6531646 15.4632911,67.0063291 L15.1898734,66.2316456 Z" id="Path" fill="#FFFFFF" fill-rule="nonzero"></path>
                    <path d="M14.6379747,63.456962 C14.6379747,63.456962 12.7658228,61.5443038 10.2886076,63.7518987 C10.2886076,63.7518987 12.0531646,65.421519 14.6721519,63.978481 L14.6379747,63.456962 Z" id="Path" fill="#FFFFFF" fill-rule="nonzero"></path>
                    <path d="M14.2050633,60.2658228 C14.2050633,60.2658228 12.3063291,58.264557 9.93797468,60.4379747 C9.93797468,60.4379747 12.0468354,62.1759494 14.2417722,60.7607595 L14.2050633,60.2658228 Z" id="Path" fill="#FFFFFF" fill-rule="nonzero"></path>
                    <path d="M14.2468354,57.6455696 C14.2468354,57.6455696 12.8088608,54.6746835 10.2177215,56.1683544 C10.2177215,56.1683544 11.8455696,58.7797468 14.1721519,58.1607595 L14.2468354,57.6455696 Z" id="Path" fill="#FFFFFF" fill-rule="nonzero"></path>
                    <path d="M14.6139241,54.3848101 C14.6139241,54.3848101 13.1797468,51.3594937 10.5556962,52.9835443 C10.5556962,52.9835443 12.4113924,55.7189873 14.5227848,54.8734177 L14.6139241,54.3848101 Z" id="Path" fill="#FFFFFF" fill-rule="nonzero"></path>
                    <path d="M15.1873418,51.5620253 C15.1873418,51.5620253 14.4734177,48.1886076 12.2063291,48.0341772 C12.2063291,48.0341772 12.9253165,51.5949367 14.9291139,52.1962025 L15.1873418,51.5620253 Z" id="Path" fill="#FFFFFF" fill-rule="nonzero"></path>
                    <path d="M15.6164557,48.8582278 C15.6164557,48.8582278 15.1518987,44.7683544 13.2797468,44.7493671 C13.2797468,44.7493671 13.5518987,47.8594937 15.4455696,49.4518987 L15.6164557,48.8582278 Z" id="Path" fill="#FFFFFF" fill-rule="nonzero"></path>
                    <path d="M16.7088608,45.5683544 C16.7088608,45.5683544 15.9227848,42.1936709 14.1177215,41.8974684 C14.1177215,41.8974684 14.5607595,45.1886076 16.5898734,46.4189873 L16.7088608,45.5683544 Z" id="Path" fill="#FFFFFF" fill-rule="nonzero"></path>
                    <path d="M17.6025316,42.7582278 C17.6025316,42.7582278 17.3493671,39.2050633 16.2227848,38.7556962 C16.2227848,38.7556962 15.7658228,42.0189873 17.3177215,43.2341772 L17.6025316,42.7582278 Z" id="Path" fill="#FFFFFF" fill-rule="nonzero"></path>
                    <path d="M18.3278481,39.9746835 C18.3278481,39.9746835 17.9291139,36.3227848 16.7696203,35.8835443 C16.7696203,35.8835443 16.5797468,38.8063291 18.1746835,40.2253165 L18.3278481,39.9746835 Z" id="Path" fill="#FFFFFF" fill-rule="nonzero"></path>
                    <path d="M19.3088608,36.6405063 C19.3088608,36.6405063 19.1012658,33.664557 18.2518987,33.0189873 C18.2518987,33.0189873 17.6721519,36.3341772 18.9291139,37.2670886 L19.3088608,36.6405063 Z" id="Path" fill="#FFFFFF" fill-rule="nonzero"></path>
                    <path d="M19.5291139,33.7873418 L18.4151899,28.8835443 C18.4151899,28.8835443 17.6265823,33.0151899 19.6265823,34.678481 L19.5291139,33.7873418 Z" id="Path" fill="#FFFFFF" fill-rule="nonzero"></path>
                    <path d="M19.3556962,28.8506329 C19.3556962,28.8506329 17.1240506,25.6506329 17.1417722,25.278481 C17.1417722,25.278481 17.5898734,28.756962 20.2316456,30.3278481 L19.3556962,28.8506329 Z" id="Path" fill="#FFFFFF" fill-rule="nonzero"></path>
                    <path d="M19.5291139,27.8518987 C19.5291139,27.8518987 17.3189873,23.2455696 16.4367089,22.9151899 C16.4367089,22.9151899 19.2329114,24.1088608 19.678481,27.7 L19.5291139,27.8518987 Z" id="Path" fill="#FFFFFF" fill-rule="nonzero"></path>
                    <path d="M19.0911392,37.1202532 L18.964557,37.0886076 C20.2113924,31.7721519 20.3873418,28.4202532 19.4582278,27.6506329 L19.5443038,27.5468354 C20.5240506,28.3620253 20.3696203,31.6734177 19.0911392,37.1202532 Z" id="Path" fill="#444053" fill-rule="nonzero"></path>
                    <path d="M15.5113924,49.6088608 L15.3151899,49.5544304 C15.4531646,49.0658228 15.6025316,48.5683544 15.7620253,48.078481 C17.1544304,43.8101266 18.3113924,39.8506329 19.021519,36.8202532 L19.1822785,36.7253165 C18.4708861,39.7632911 17.3455696,43.8683544 15.9556962,48.1405063 C15.7974684,48.6291139 15.6481013,49.1227848 15.5113924,49.6088608 Z" id="Path" fill="#444053" fill-rule="nonzero"></path>
                    <path d="M21.4670886,78.0139241 C21.4392405,77.9873418 18.6544304,75.2455696 16.5151899,70.3886076 C15.2617603,67.5456879 14.4666718,64.52213 14.1594937,61.4303797 C13.7797468,57.5658228 14.2987342,53.1860759 15.4253165,49.164557 L15.5873418,49.3316456 C13.0556962,58.3582278 14.8037975,65.8303797 16.7556962,70.2683544 C18.8734177,75.078481 21.6265823,77.7936709 21.6544304,77.8202532 L21.4670886,78.0139241 Z" id="Path" fill="#444053" fill-rule="nonzero"></path>
                    <path d="M24.5329114,63.556962 C24.5329114,63.556962 25.5455696,63.3253165 26.2063291,64.0063291 C26.2063291,64.0063291 25.7797468,64.3860759 24.7797468,63.964557 L24.5329114,63.556962 Z" id="Path" fill="#FFFFFF" fill-rule="nonzero"></path>
                    <path d="M24.4227848,63.5481013 C24.4227848,63.5481013 23.8253165,64.3962025 24.2050633,65.2658228 C24.2050633,65.2658228 24.721519,65.0126582 24.7113924,63.9303797 L24.4227848,63.5481013 Z" id="Path" fill="#FFFFFF" fill-rule="nonzero"></path>
                    <path d="M23.7493671,62.2683544 C23.7493671,62.2683544 24.1075949,61.4924051 25.8126582,62.4316456 C25.8126582,62.4316456 25.6291139,62.9493671 24.9037975,62.956962 C24.178481,62.964557 23.9658228,62.6506329 23.7493671,62.2683544 Z" id="Path" fill="#FFFFFF" fill-rule="nonzero"></path>
                    <path d="M23.6405063,62.221519 C23.6405063,62.221519 22.7848101,62.1822785 22.8329114,64.1278481 C22.8329114,64.1278481 23.378481,64.2037975 23.7189873,63.5632911 C24.0594937,62.9227848 23.8797468,62.5911392 23.6405063,62.221519 Z" id="Path" fill="#FFFFFF" fill-rule="nonzero"></path>
                    <path d="M23.0417722,60.7063291 C23.0417722,60.7063291 23.4303797,59.3531646 25.2227848,60.1772152 C25.2227848,60.1772152 24.9101266,61.4164557 23.2493671,61.1443038 L23.0417722,60.7063291 Z" id="Path" fill="#FFFFFF" fill-rule="nonzero"></path>
                    <path d="M22.378481,58.7670886 C22.378481,58.7670886 23.1873418,57.3746835 24.864557,58.5037975 C24.864557,58.5037975 24.3898734,59.7949367 22.5468354,59.2341772 L22.378481,58.7670886 Z" id="Path" fill="#FFFFFF" fill-rule="nonzero"></path>
                    <path d="M22.0607595,56.9 C22.0607595,56.9 23.0278481,55.6025316 24.6898734,56.7227848 C24.6898734,56.7227848 23.7683544,57.8620253 22.0822785,57.2126582 L22.0607595,56.9 Z" id="Path" fill="#FFFFFF" fill-rule="nonzero"></path>
                    <path d="M21.7746835,55.0848101 C21.7746835,55.0848101 22.7518987,53.7329114 24.3455696,54.8443038 C24.3455696,54.8443038 23.2227848,56.0556962 21.7949367,55.3848101 L21.7746835,55.0848101 Z" id="Path" fill="#FFFFFF" fill-rule="nonzero"></path>
                    <path d="M21.7620253,53.456962 C21.7620253,53.456962 22.7746835,51.7341772 24.2594937,52.7556962 C24.2594937,52.7556962 23.1556962,54.2531646 21.7822785,53.7683544 L21.7620253,53.456962 Z" id="Path" fill="#FFFFFF" fill-rule="nonzero"></path>
                    <path d="M21.8936709,51.5468354 C21.8936709,51.5468354 22.9683544,49.8316456 24.4253165,50.9924051 C24.4253165,50.9924051 23.1164557,52.5037975 21.9088608,51.8455696 L21.8936709,51.5468354 Z" id="Path" fill="#FFFFFF" fill-rule="nonzero"></path>
                    <path d="M22.1746835,49.8278481 C22.1746835,49.8278481 23.4746835,48.1974684 24.7417722,48.7291139 C24.7417722,48.7291139 23.3886076,50.4582278 22.143038,50.2405063 L22.1746835,49.8278481 Z" id="Path" fill="#FFFFFF" fill-rule="nonzero"></path>
                    <path d="M22.556962,48.1898734 C22.556962,48.1898734 24.0518987,46.2012658 25.0341772,46.764557 C25.0341772,46.764557 23.9392405,48.3025316 22.464557,48.5518987 L22.556962,48.1898734 Z" id="Path" fill="#FFFFFF" fill-rule="nonzero"></path>
                    <path d="M23.1405063,46.2835443 C23.1405063,46.2835443 24.4544304,44.6518987 25.5151899,44.964557 C25.5151899,44.964557 24.4101266,46.6392405 22.9835443,46.7759494 L23.1405063,46.2835443 Z" id="Path" fill="#FFFFFF" fill-rule="nonzero"></path>
                    <path d="M23.664557,44.4974684 C23.664557,44.4974684 25.1316456,42.921519 25.8303797,43.1341772 C25.8303797,43.1341772 24.8101266,44.8443038 23.6177215,44.8291139 L23.664557,44.4974684 Z" id="Path" fill="#FFFFFF" fill-rule="nonzero"></path>
                    <path d="M24.1822785,42.8481013 C24.1822785,42.8481013 25.4139241,41 26.1582278,41.0860759 C26.1582278,41.0860759 25.4468354,42.7075949 24.1949367,43.0253165 L24.1822785,42.8481013 Z" id="Path" fill="#FFFFFF" fill-rule="nonzero"></path>
                    <path d="M24.7189873,40.635443 C24.7189873,40.635443 25.8202532,39.2075949 26.464557,39.1670886 C26.464557,39.1670886 25.6443038,41.0303797 24.6987342,41.0772152 L24.7189873,40.635443 Z" id="Path" fill="#FFFFFF" fill-rule="nonzero"></path>
                    <path d="M25.0240506,39.164557 L25.9848101,36.2835443 C25.9848101,36.2835443 26.2126582,38.8151899 24.9101266,39.7012658 L25.0240506,39.164557 Z" id="Path" fill="#FFFFFF" fill-rule="nonzero"></path>
                    <path d="M25.2835443,36.0379747 C25.2835443,36.0379747 25.3164557,33.6822785 25.1810127,33.5 C25.1810127,33.5 26.135443,35.3924051 25.3443038,37.0746835 L25.2835443,36.0379747 Z" id="Path" fill="#FFFFFF" fill-rule="nonzero"></path>
                    <path d="M22.9949367,60.678481 C22.9949367,60.678481 21.7518987,60.0177215 21.0962025,61.8810127 C21.0962025,61.8810127 22.2063291,62.5139241 23.1632911,61.1316456 L22.9949367,60.678481 Z" id="Path" fill="#FFFFFF" fill-rule="nonzero"></path>
                    <path d="M22.335443,58.6886076 C22.335443,58.6886076 20.8253165,58.1189873 20.2417722,60.056962 C20.2417722,60.056962 21.4253165,60.756962 22.5,59.1582278 L22.335443,58.6886076 Z" id="Path" fill="#FFFFFF" fill-rule="nonzero"></path>
                    <path d="M22,57.0164557 C22,57.0164557 20.8696203,55.8607595 19.3708861,57.1936709 C19.3708861,57.1936709 20.4379747,58.2063291 22.021519,57.3303797 L22,57.0164557 Z" id="Path" fill="#FFFFFF" fill-rule="nonzero"></path>
                    <path d="M21.7392405,55.0873418 C21.7392405,55.0873418 20.5911392,53.878481 19.1594937,55.1924051 C19.1594937,55.1924051 20.4341772,56.2417722 21.7594937,55.3873418 L21.7392405,55.0873418 Z" id="Path" fill="#FFFFFF" fill-rule="nonzero"></path>
                    <path d="M21.764557,53.4987342 C21.764557,53.4987342 20.8949367,51.7025316 19.3278481,52.6050633 C19.3278481,52.6050633 20.3126582,54.1835443 21.7189873,53.8101266 L21.764557,53.4987342 Z" id="Path" fill="#FFFFFF" fill-rule="nonzero"></path>
                    <path d="M21.9860759,51.5303797 C21.9860759,51.5303797 21.1189873,49.7012658 19.5291139,50.6835443 C19.5291139,50.6835443 20.6506329,52.3379747 21.9278481,51.8227848 L21.9860759,51.5303797 Z" id="Path" fill="#FFFFFF" fill-rule="nonzero"></path>
                    <path d="M22.3329114,49.8278481 C22.3329114,49.8278481 21.9012658,47.7873418 20.5303797,47.6949367 C20.5303797,47.6949367 20.964557,49.8468354 22.1759494,50.2101266 L22.3329114,49.8278481 Z" id="Path" fill="#FFFFFF" fill-rule="nonzero"></path>
                    <path d="M22.5924051,48.1911392 C22.5924051,48.1911392 22.3139241,45.7189873 21.1746835,45.7063291 C21.1746835,45.7063291 21.3392405,47.5873418 22.4835443,48.5506329 L22.5924051,48.1911392 Z" id="Path" fill="#FFFFFF" fill-rule="nonzero"></path>
                    <path d="M23.2518987,46.2025316 C23.2518987,46.2025316 22.7772152,44.1620253 21.6860759,43.9822785 C21.6860759,43.9822785 21.9544304,45.9708861 23.1810127,46.7151899 L23.2518987,46.2025316 Z" id="Path" fill="#FFFFFF" fill-rule="nonzero"></path>
                    <path d="M23.7924051,44.5037975 C23.7924051,44.5037975 23.6367089,42.3518987 22.9594937,42.0835443 C22.9594937,42.0835443 22.6822785,44.056962 23.6202532,44.7911392 L23.7924051,44.5037975 Z" id="Path" fill="#FFFFFF" fill-rule="nonzero"></path>
                    <path d="M24.2316456,42.8202532 C24.2316456,42.8202532 23.9911392,40.6126582 23.2898734,40.3468354 C23.2898734,40.3468354 23.1746835,42.1189873 24.1392405,42.9721519 L24.2316456,42.8202532 Z" id="Path" fill="#FFFFFF" fill-rule="nonzero"></path>
                    <path d="M24.8240506,40.8050633 C24.8240506,40.8050633 24.6974684,39.0063291 24.1911392,38.6151899 C24.1911392,38.6151899 23.8405063,40.6202532 24.6,41.1835443 L24.8240506,40.8050633 Z" id="Path" fill="#FFFFFF" fill-rule="nonzero"></path>
                    <path d="M24.9607595,39.0797468 L24.2873418,36.1151899 C24.2873418,36.1151899 23.8101266,38.6139241 25.0189873,39.6189873 L24.9607595,39.0797468 Z" id="Path" fill="#FFFFFF" fill-rule="nonzero"></path>
                    <path d="M24.8531646,36.0962025 C24.8531646,36.0962025 23.5050633,34.1632911 23.5151899,33.9367089 C23.5151899,33.9367089 23.7848101,36.0392405 25.3822785,36.9886076 L24.8531646,36.0962025 Z" id="Path" fill="#FFFFFF" fill-rule="nonzero"></path>
                    <path d="M24.9544304,35.4911392 C24.9544304,35.4911392 23.6177215,32.7063291 23.0848101,32.5101266 C23.0848101,32.5101266 24.7759494,33.2316456 25.0443038,35.4037975 L24.9544304,35.4911392 Z" id="Path" fill="#FFFFFF" fill-rule="nonzero"></path>
                    <path d="M24.6924051,41.0936709 L24.6126582,41.0746835 C25.3721519,37.8607595 25.4734177,35.8341772 24.9113924,35.3696203 L24.9632911,35.3063291 C25.5594937,35.8 25.4658228,37.8025316 24.6924051,41.0936709 Z" id="Path" fill="#444053" fill-rule="nonzero"></path>
                    <path d="M22.5291139,48.6455696 L22.4101266,48.6113924 C22.4936709,48.3164557 22.5848101,48.0164557 22.6810127,47.7253165 C23.5202532,45.1443038 24.221519,42.7506329 24.6506329,40.9189873 L24.7481013,40.8607595 C24.3177215,42.6962025 23.6379747,45.1797468 22.7974684,47.7632911 C22.7012658,48.0556962 22.6113924,48.3506329 22.5291139,48.6455696 Z" id="Path" fill="#444053" fill-rule="nonzero"></path>
                    <path d="M26.1291139,65.8177215 C26.1126582,65.8012658 24.4291139,64.1443038 23.135443,61.2075949 C22.3782482,59.4888927 21.8976281,57.6612544 21.7113924,55.7924051 C21.4797468,53.4556962 21.7962025,50.8075949 22.478481,48.3759494 L22.5759494,48.4772152 C21.0455696,53.9341772 22.1025316,58.4518987 23.2822785,61.135443 C24.5632911,64.0468354 26.2265823,65.6835443 26.2443038,65.7 L26.1291139,65.8177215 Z" id="Path" fill="#444053" fill-rule="nonzero"></path>
                    <path d="M29.9367089,72.1468354 C29.611848,72.2045387 29.2937381,72.2953061 28.9873418,72.4177215 C22.1594937,75.1443038 22.2734177,92.9924051 22.2734177,92.9924051 L20.2632911,92.9924051 C20.2632911,92.9924051 19.6303797,85.3329114 16.8721519,74.4050633 C14.3873418,64.5734177 24.578481,55.7620253 26.6481013,54.0911392 C26.8810127,53.9050633 27.0101266,53.8063291 27.0101266,53.8063291 C37.2746835,57.578481 29.9367089,72.1468354 29.9367089,72.1468354 Z" id="Path" fill="#AFC0E0" fill-rule="nonzero"></path>
                    <path d="M27.756962,54.1164557 C27.5202532,54.0075949 27.2759494,53.9037975 27.0164557,53.8088608 C27.0164557,53.8088608 26.8898734,53.9075949 26.6544304,54.0936709 C24.5848101,55.764557 14.3936709,64.5759494 16.878481,74.4075949 C19.6367089,85.335443 20.2632911,92.9924051 20.2632911,92.9924051 L21.3936709,92.9924051 C21.3936709,92.9924051 20.7670886,85.3329114 18.0025316,74.4050633 C15.5278481,64.6189873 25.6202532,55.8405063 27.756962,54.1164557 Z" id="Path" fill="#FFFFFF" fill-rule="nonzero" opacity="0.2"></path>
                    <path d="M63.8025316,74.4075949 C61.0379747,85.335443 60.4151899,92.9924051 60.4151899,92.9924051 L58.4012658,92.9924051 C58.4012658,92.9924051 58.5278481,74.3392405 51.2202532,72.256962 C51.0619809,72.2094615 50.9009114,72.1718364 50.7379747,72.1443038 C50.7379747,72.1443038 43.3962025,57.5759494 53.664557,53.8063291 C53.664557,53.8063291 53.7683544,53.8835443 53.9556962,54.0341772 C55.8582278,55.556962 66.3151899,64.4620253 63.8025316,74.4075949 Z" id="Path" fill="#AFC0E0" fill-rule="nonzero"></path>
                    <path d="M29.9367089,72.1468354 C29.611848,72.2045387 29.2937381,72.2953061 28.9873418,72.4177215 C27.7528981,66.3763923 26.9709804,60.2513701 26.6481013,54.0936709 C26.8810127,53.9075949 27.0101266,53.8088608 27.0101266,53.8088608 C37.2746835,57.578481 29.9367089,72.1468354 29.9367089,72.1468354 Z" id="Path" fill="#000000" fill-rule="nonzero" opacity="0.1"></path>
                    <path d="M53.9594937,54.0367089 C53.5409501,60.1765081 52.6261491,66.2723593 51.2240506,72.264557 C51.0657784,72.2170565 50.9047088,72.1794313 50.7417722,72.1518987 C50.7417722,72.1518987 43.4,57.5835443 53.6683544,53.8139241 C53.664557,53.8088608 53.7683544,53.8860759 53.9594937,54.0367089 Z" id="Path" fill="#000000" fill-rule="nonzero" opacity="0.1"></path>
                    <path d="M50.2012658,74.9088608 C49.4924051,77.7054852 48.6616034,80.5746835 47.7088608,83.5164557 C47.7088608,83.5164557 43.1873418,88.2265823 32.2658228,83.5164557 C32.2658228,83.5164557 31.1746835,80.4405063 29.9746835,75.2113924 C27.3329114,63.7139241 24.164557,41.8037975 30.9151899,19.2987342 C32.9254477,12.533261 35.7826855,6.04897285 39.4189873,-7.19536948e-15 C39.4189873,-7.19536948e-15 45.1860759,6.62151899 49.4189873,19.2949367 C53.6518987,31.9683544 56.3455696,50.6962025 50.2012658,74.9088608 Z" id="Path" fill="#E3E8F4" fill-rule="nonzero"></path>
                    <circle id="Oval" fill="#AFC0E0" fill-rule="nonzero" cx="40.3367089" cy="37.164557" r="9.06708861"></circle>
                    <path d="M46.7670886,37.1696203 C46.7670886,39.6551559 45.3345341,41.918088 43.0879916,42.9815417 C40.841449,44.0449955 38.1831951,43.7185153 36.2607595,42.143038 C35.8010453,41.7644584 35.3955612,41.3244741 35.0556962,40.835443 C34.9030737,40.6169846 34.764401,40.3891048 34.6405063,40.1531646 C34.1582513,39.2326555 33.9067413,38.2088056 33.9075928,37.1696203 C33.9075928,37.1177215 33.9075928,37.0670886 33.9075928,37.0164557 C33.9752787,34.1937715 35.8742772,31.7445766 38.5911392,30.9759494 C39.0965087,30.8366696 39.6165755,30.7576399 40.1405063,30.7405052 L40.3329114,30.7405052 C42.0387927,30.7394989 43.6751688,31.4163648 44.881884,32.6221304 C46.0885991,33.8278959 46.7667531,35.4637387 46.7670886,37.1696203 L46.7670886,37.1696203 Z" id="Path" fill="#FFFFFF" fill-rule="nonzero"></path>
                    <path d="M49.4177215,19.2949367 C39.1303797,24.2202532 30.9088608,19.2949367 30.9088608,19.2949367 C32.9214167,12.5304712 35.7807791,6.04746351 39.4189873,0 C39.4189873,0 45.1860759,6.62151899 49.4177215,19.2949367 Z" id="Path" fill="#AFC0E0" fill-rule="nonzero"></path>
                    <path d="M50.2012658,74.9088608 C49.7202532,76.8025316 49.1843882,78.728692 48.5936709,80.6873418 C48.3135021,81.621519 48.0181435,82.5632911 47.7075949,83.5126582 C47.7075949,83.5126582 43.1860759,88.2227848 32.264557,83.5126582 C32.264557,83.5126582 31.9101266,82.5139241 31.378481,80.6873418 C30.9810127,79.3075949 30.4860759,77.4582278 29.9696203,75.2075949 C29.9696203,75.2075949 34.035443,76.943038 39.8063291,76.943038 C43.3713718,76.9552526 46.9037985,76.2639948 50.2012658,74.9088608 Z" id="Path" fill="#AFC0E0" fill-rule="nonzero"></path>
                    <path d="M48.5936709,80.6873418 C48.3135021,81.621519 48.0181435,82.5632911 47.7075949,83.5126582 C47.7075949,83.5126582 43.1860759,88.2227848 32.264557,83.5126582 C32.264557,83.5126582 31.9101266,82.5139241 31.378481,80.6873418 C31.3772152,80.6873418 42.5088608,83.8898734 48.5936709,80.6873418 Z" id="Path" fill="#E3E8F4" fill-rule="nonzero"></path>
                    <path d="M38.5949367,30.9670886 L38.5810127,30.9772152 L33.9101244,37.0075949 C33.9101244,37.0582278 33.9101244,37.1088608 33.9101244,37.1607595 C33.909273,38.1999448 34.160783,39.2237947 34.643038,40.1443038 L40.1468354,30.7316456 L38.5949367,30.9670886 Z" id="Path" fill="#FFFFFF" fill-rule="nonzero" opacity="0.2"></path>
                    <path d="M40.0860759,36.4101266 L36.2607595,42.1379747 C35.8010453,41.7593951 35.3955612,41.3194108 35.0556962,40.8303797 L39.6126582,35.9392405 L40.0860759,36.4101266 Z" id="Path" fill="#FFFFFF" fill-rule="nonzero" opacity="0.2"></path>
                    <path d="M34.7088608,83.5139241 C34.7088608,83.5139241 33.6177215,80.4367089 32.4177215,75.2088608 C29.7759494,63.7101266 26.6075949,41.8 33.3582278,19.2949367 C35.1728419,13.2055756 37.6719203,7.34155284 40.8075949,1.81518987 C39.9506329,0.613924051 39.4151899,0.00126582278 39.4151899,0.00126582278 C35.778313,6.04847805 32.9202276,12.5310582 30.9088608,19.2949367 C24.1582278,41.8 27.3265823,63.7101266 29.9683544,75.2088608 C31.1683544,80.4367089 32.2594937,83.5139241 32.2594937,83.5139241 C36.5746835,85.3734177 39.8898734,85.7632911 42.3227848,85.5556962 C40.2443038,85.3974684 37.7202532,84.8113924 34.7088608,83.5139241 Z" id="Path" fill="#FFFFFF" fill-rule="nonzero" opacity="0.2"></path>
                    <path d="M118.605063,92.2696203 C118.605063,92.2696203 124.521519,84.9075949 124.129114,77.5341772 C123.944971,74.4430867 124.768458,71.3756635 126.475949,68.7924051 C127.297736,67.5703897 128.229913,66.4263536 129.260759,65.3746835" id="Path" stroke="#535461" stroke-width="0.6"></path>
                    <path d="M129.036709,60.7316456 C128.613924,61.7582278 129.246835,65.5012658 129.246835,65.5012658 C129.246835,65.5012658 132.331646,63.2886076 132.75443,62.2620253 C133.177033,61.2354049 132.68738,60.0605774 131.660759,59.6379747 C130.634139,59.215372 129.459312,59.7050251 129.036709,60.7316456 L129.036709,60.7316456 Z" id="Path" fill="#FFFFFF" fill-rule="nonzero"></path>
                    <path d="M123.621519,65.1544304 C123.825316,66.2455696 126.391139,69.043038 126.391139,69.043038 C126.391139,69.043038 127.783544,65.5101266 127.574684,64.4177215 C127.371247,63.3260853 126.321383,62.6060572 125.229747,62.8094937 C124.138111,63.0129303 123.418082,64.0627941 123.621519,65.1544304 L123.621519,65.1544304 Z" id="Path" fill="#FFFFFF" fill-rule="nonzero"></path>
                    <path d="M119.755696,74.9291139 C120.482278,75.7683544 124.110127,76.8886076 124.110127,76.8886076 C124.110127,76.8886076 123.522785,73.1379747 122.796203,72.2974684 C122.062701,71.4868873 120.815882,71.4110978 119.989599,72.1268653 C119.163316,72.8426328 119.060531,74.0875172 119.758228,74.9291139 L119.755696,74.9291139 Z" id="Path" fill="#FFFFFF" fill-rule="nonzero"></path>
                    <path d="M118.496203,82.9835443 C119.06962,83.9341772 122.455696,85.6506329 122.455696,85.6506329 C122.455696,85.6506329 122.511392,81.8531646 121.937975,80.9037975 C121.566464,80.288984 120.895174,79.9190718 120.176975,79.933403 C119.458775,79.9477343 118.802777,80.3441318 118.456089,80.9732765 C118.1094,81.6024211 118.124691,82.3687309 118.496203,82.9835443 Z" id="Path" fill="#FFFFFF" fill-rule="nonzero"></path>
                    <path d="M130.212658,70.8493671 C129.182278,71.2607595 125.44557,70.5898734 125.44557,70.5898734 C125.44557,70.5898734 127.688608,67.5278481 128.720253,67.1151899 C129.751418,66.7030736 130.921428,67.2049114 131.333544,68.236076 C131.745661,69.2672405 131.243823,70.4372508 130.212658,70.8493671 L130.212658,70.8493671 Z" id="Path" fill="#FFFFFF" fill-rule="nonzero"></path>
                    <path d="M128.620253,80.2506329 C127.513924,80.335443 124.149367,78.5772152 124.149367,78.5772152 C124.149367,78.5772152 127.205063,76.3253165 128.312658,76.2405063 C129.405443,76.1796249 130.346339,77.0036792 130.430045,78.0949534 C130.513751,79.1862276 129.70954,80.1441395 128.620253,80.2506329 L128.620253,80.2506329 Z" id="Path" fill="#FFFFFF" fill-rule="nonzero"></path>
                    <path d="M125.818987,89.1746835 C124.741772,89.4455696 121.129114,88.2810127 121.129114,88.2810127 C121.129114,88.2810127 123.760759,85.5455696 124.837975,85.2759494 C125.534416,85.1007083 126.271445,85.3103262 126.771429,85.8258419 C127.271413,86.3413577 127.458393,87.0844523 127.261936,87.7752091 C127.065478,88.4659659 126.515429,88.9994425 125.818987,89.1746835 L125.818987,89.1746835 Z" id="Path" fill="#FFFFFF" fill-rule="nonzero"></path>
                    <path d="M129.036709,60.7316456 C128.613924,61.7582278 129.246835,65.5012658 129.246835,65.5012658 C129.246835,65.5012658 132.331646,63.2886076 132.75443,62.2620253 C133.177033,61.2354049 132.68738,60.0605774 131.660759,59.6379747 C130.634139,59.215372 129.459312,59.7050251 129.036709,60.7316456 L129.036709,60.7316456 Z" id="Path" fill="#000000" fill-rule="nonzero" opacity="0.25"></path>
                    <path d="M123.621519,65.1544304 C123.825316,66.2455696 126.391139,69.043038 126.391139,69.043038 C126.391139,69.043038 127.783544,65.5101266 127.574684,64.4177215 C127.371247,63.3260853 126.321383,62.6060572 125.229747,62.8094937 C124.138111,63.0129303 123.418082,64.0627941 123.621519,65.1544304 L123.621519,65.1544304 Z" id="Path" fill="#000000" fill-rule="nonzero" opacity="0.25"></path>
                    <path d="M119.755696,74.9291139 C120.482278,75.7683544 124.110127,76.8886076 124.110127,76.8886076 C124.110127,76.8886076 123.522785,73.1379747 122.796203,72.2974684 C122.062701,71.4868873 120.815882,71.4110978 119.989599,72.1268653 C119.163316,72.8426328 119.060531,74.0875172 119.758228,74.9291139 L119.755696,74.9291139 Z" id="Path" fill="#000000" fill-rule="nonzero" opacity="0.25"></path>
                    <path d="M118.496203,82.9835443 C119.06962,83.9341772 122.455696,85.6506329 122.455696,85.6506329 C122.455696,85.6506329 122.511392,81.8531646 121.937975,80.9037975 C121.566464,80.288984 120.895174,79.9190718 120.176975,79.933403 C119.458775,79.9477343 118.802777,80.3441318 118.456089,80.9732765 C118.1094,81.6024211 118.124691,82.3687309 118.496203,82.9835443 Z" id="Path" fill="#000000" fill-rule="nonzero" opacity="0.25"></path>
                    <path d="M130.212658,70.8493671 C129.182278,71.2607595 125.44557,70.5898734 125.44557,70.5898734 C125.44557,70.5898734 127.688608,67.5278481 128.720253,67.1151899 C129.751418,66.7030736 130.921428,67.2049114 131.333544,68.236076 C131.745661,69.2672405 131.243823,70.4372508 130.212658,70.8493671 L130.212658,70.8493671 Z" id="Path" fill="#000000" fill-rule="nonzero" opacity="0.25"></path>
                    <path d="M128.620253,80.2506329 C127.513924,80.335443 124.149367,78.5772152 124.149367,78.5772152 C124.149367,78.5772152 127.205063,76.3253165 128.312658,76.2405063 C129.405443,76.1796249 130.346339,77.0036792 130.430045,78.0949534 C130.513751,79.1862276 129.70954,80.1441395 128.620253,80.2506329 L128.620253,80.2506329 Z" id="Path" fill="#000000" fill-rule="nonzero" opacity="0.25"></path>
                    <path d="M125.818987,89.1746835 C124.741772,89.4455696 121.129114,88.2810127 121.129114,88.2810127 C121.129114,88.2810127 123.760759,85.5455696 124.837975,85.2759494 C125.534416,85.1007083 126.271445,85.3103262 126.771429,85.8258419 C127.271413,86.3413577 127.458393,87.0844523 127.261936,87.7752091 C127.065478,88.4659659 126.515429,88.9994425 125.818987,89.1746835 L125.818987,89.1746835 Z" id="Path" fill="#000000" fill-rule="nonzero" opacity="0.25"></path>
                    <path d="M118.658228,91.9620253 C118.658228,91.9620253 127.050633,87.6278481 129.679747,80.7291139 C130.763604,77.8279068 132.759814,75.3568529 135.368354,73.6873418 C136.612605,72.903749 137.926128,72.2359711 139.292405,71.6924051" id="Path" stroke="#535461" stroke-width="0.6"></path>
                    <path d="M140.974684,67.3544304 C140.172152,68.1227848 139.234177,71.8012658 139.234177,71.8012658 C139.234177,71.8012658 142.950633,71.0278481 143.753165,70.2607595 C144.557123,69.4935031 144.586876,68.2197817 143.81962,67.4158229 C143.052364,66.6118641 141.778642,66.5821109 140.974684,67.3493671 L140.974684,67.3544304 Z" id="Path" fill="#FFFFFF" fill-rule="nonzero"></path>
                    <path d="M134.232911,69.2037975 C133.979747,70.2848101 135.188608,73.8873418 135.188608,73.8873418 C135.188608,73.8873418 137.883544,71.2202532 138.144304,70.1329114 C138.39653,69.0545608 137.729039,67.9753358 136.651565,67.7193921 C135.574091,67.4634484 134.49257,68.1272124 134.232911,69.2037975 L134.232911,69.2037975 Z" id="Path" fill="#FFFFFF" fill-rule="nonzero"></path>
                    <path d="M126.736709,76.5734177 C127.060759,77.635443 129.924051,80.1291139 129.924051,80.1291139 C129.924051,80.1291139 130.907595,76.4582278 130.583544,75.4012658 C130.37416,74.7140949 129.814079,74.1908281 129.114279,74.0285752 C128.414479,73.8663222 127.681276,74.0897331 127.190861,74.6146511 C126.700446,75.1395692 126.527324,75.8862468 126.736709,76.5734177 L126.736709,76.5734177 Z" id="Path" fill="#FFFFFF" fill-rule="nonzero"></path>
                    <path d="M122.321519,83.4265823 C122.460759,84.5291139 124.860759,87.4696203 124.860759,87.4696203 C124.860759,87.4696203 126.450633,84.0227848 126.310127,82.9202532 C126.170308,81.8188296 125.164082,81.039295 124.062658,81.1791139 C122.961235,81.3189328 122.1817,82.3251587 122.321519,83.4265823 L122.321519,83.4265823 Z" id="Path" fill="#FFFFFF" fill-rule="nonzero"></path>
                    <path d="M137.950633,77.0810127 C136.840506,77.0405063 133.697468,74.9126582 133.697468,74.9126582 C133.697468,74.9126582 136.988608,73.0227848 138.098734,73.0632911 C138.816431,73.0897469 139.465496,73.4970797 139.801433,74.1318512 C140.13737,74.7666228 140.109142,75.5323962 139.727383,76.140712 C139.345623,76.7490278 138.66833,77.1074684 137.950633,77.0810127 L137.950633,77.0810127 Z" id="Path" fill="#FFFFFF" fill-rule="nonzero"></path>
                    <path d="M132.68481,85.0303797 C131.637975,84.6594937 129.274684,81.6886076 129.274684,81.6886076 C129.274684,81.6886076 132.982278,80.8696203 134.027848,81.2405063 C134.704844,81.480417 135.202423,82.0632764 135.333152,82.7695272 C135.463881,83.475778 135.207899,84.1981238 134.661633,84.6644639 C134.115366,85.130804 133.361806,85.2702904 132.68481,85.0303797 Z" id="Path" fill="#FFFFFF" fill-rule="nonzero"></path>
                    <path d="M126.506329,92.0544304 C125.412658,91.8658228 122.582278,89.3367089 122.582278,89.3367089 C122.582278,89.3367089 126.097468,87.9037975 127.191139,88.0924051 C128.285222,88.2811606 129.019135,89.3211068 128.83038,90.4151899 C128.641624,91.509273 127.601678,92.2431859 126.507595,92.0544304 L126.506329,92.0544304 Z" id="Path" fill="#FFFFFF" fill-rule="nonzero"></path>
                    <path d="M130.591648,87.8936709 L124.086076,78.4594937 C124.086076,78.4594937 123.959494,76.1240506 123.539241,75.578481 C123.118987,75.0329114 123.448101,73.8189873 123.448101,73.8189873 C123.448101,73.8189873 123.903797,73.1518987 123.508861,73.0911392 C123.113924,73.0303797 123.448101,71.543038 123.448101,71.543038 L123.417722,69.1772152 C123.417722,69.1772152 123.782278,66.8987342 123.478481,66.356962 C123.296814,66.055515 123.308703,65.6755754 123.508861,65.3860759 C123.508861,65.3860759 123.873418,64.0810127 123.508861,63.7481013 C123.144304,63.4151899 123.235443,61.3810127 123.326582,59.7734177 C123.417722,58.1658228 122.687342,57.2556962 122.687342,57.0126582 C122.687342,56.7696203 120.282278,54.4037975 120.282278,54.1924051 C120.282278,53.9810127 118.763291,53.1 117.850633,52.856962 C116.937975,52.6139241 116.482278,52.4329114 116.512658,52.3113924 C116.543038,52.1898734 115.083544,51.7050633 115.083544,51.7050633 C115.083544,51.7050633 113.806329,51.6139241 113.318987,50.9759494 C112.831646,50.3379747 111.34557,50.1556962 111.302532,50.1493671 C111.293671,50.1075949 111.283544,50.064557 111.274684,50.0227848 C111.265823,49.9810127 111.255696,49.9316456 111.246835,49.8860759 C111.362025,49.6924051 111.468354,49.4949367 111.564557,49.2911392 C111.593671,49.2291139 111.621519,49.164557 111.648101,49.1063291 C112.181013,49.0822785 112.727848,48.9683544 113.14557,48.6417722 C113.579382,48.2788745 113.842994,47.7521092 113.873418,47.1873418 C113.899201,46.6266074 113.776502,46.0690032 113.517722,45.5708861 C113.251899,45.0240506 112.860759,44.4582278 112.994937,43.8658228 C113.05443,43.6126582 113.207595,43.3848101 113.286076,43.1341772 C113.434177,42.6594937 113.297468,42.1379747 113.067089,41.6974684 C112.836709,41.256962 112.516456,40.8696203 112.260759,40.443038 C111.934142,39.8994309 111.716185,39.297576 111.618987,38.6708861 C111.567089,38.3417722 111.546835,37.9949367 111.381013,37.7050633 C111.243562,37.4899551 111.0619,37.306567 110.848101,37.1670886 C109.897012,36.4868405 108.748468,36.1385406 107.579747,36.1759494 C106.751899,36.2050633 105.926582,36.4291139 105.105063,36.3265823 C104.610127,36.2658228 104.137975,36.0898734 103.659494,35.9468354 C102.639241,35.6455696 101.463291,35.521519 100.574684,36.1050633 C99.6860759,36.6886076 99.3329114,37.8367089 98.7316456,38.7341772 C98.2,39.5291139 97.4202532,40.1949367 97.0151899,41.035443 C97.0151899,41.0202532 97.0227848,41.0037975 97.0278481,40.9873418 C96.9282759,41.181846 96.8522133,41.3875126 96.8012658,41.6 C96.6468354,42.2607595 96.7759494,42.9518987 96.9367089,43.6113924 C97.0189873,43.9518987 97.1329114,44.321519 97.4278481,44.5101266 C97.7227848,44.6987342 98.1405063,44.656962 98.4898734,44.7189873 C98.4772152,44.7759494 98.4620253,44.8341772 98.4493671,44.8924051 C97.6991159,48.4367911 99.7976968,51.9628918 103.270886,52.9936709 C103.270886,53.0556962 103.270886,53.1202532 103.270886,53.178481 C103.270229,53.3527799 103.259664,53.5269005 103.239241,53.7 L103.239241,53.7 C103.239241,53.7 100.182278,53.0670886 99.3607595,53.4974684 C98.5392405,53.9278481 96.9278481,54.256962 96.6848101,54.4974684 C96.4417722,54.7379747 95.8341772,54.5582278 95.2924051,55.9848101 C94.7506329,57.4113924 94.6848101,58.8658228 93.9848101,59.5291139 C93.2848101,60.1924051 92.921519,60.6518987 92.8911392,61.1379747 C92.8607595,61.6240506 92.9822785,61.7443038 92.7075949,61.8974684 C92.4329114,62.0506329 92.0392405,62.6860759 92.1607595,62.9291139 C92.1607595,62.9291139 92.3126582,63.535443 91.8265823,63.8379747 C91.3405063,64.1405063 91.4,64.7481013 91.4,64.7481013 C91.4,64.7481013 91.2177215,65.4164557 90.7924051,65.5670886 C90.3670886,65.7177215 90.0924051,66.7202532 90.0924051,66.7202532 L88.7088608,68.3088608 L85.9759494,65.2835443 C85.5497959,64.8114221 84.8216486,64.7740231 84.3493671,65.2 L83.0075949,66.4101266 C82.4896719,66.535715 82.0216332,66.814509 81.664557,67.2101266 C81.3721471,67.5103656 81.1366824,67.8612036 80.9696203,68.2455696 L80.2341772,68.9063291 C79.7615699,69.4923943 79.6872003,70.3049697 80.0455696,70.9670886 L81.7962025,72.9025316 L81.8075949,72.9189873 C81.1455696,73.0025316 80.5607595,73.2151899 80.1139241,73.6088608 C77.5,75.9139241 77.4683544,78.0392405 77.864557,79.0075949 C78.2607595,79.9759494 81.5734177,83.7101266 81.5734177,83.7101266 C81.5734177,83.7101266 83.4987342,86.2126582 86.278481,87.5443038 L86.278481,87.5443038 L86.256962,87.5658228 C86.2025316,87.6240506 86.1481013,87.6924051 86.0949367,87.7556962 L86.0493671,87.8139241 L86.0075949,87.8721519 L85.9582278,87.9455696 C85.9443038,87.964557 85.9316456,87.9848101 85.9189873,88.0050633 C85.9063291,88.0253165 85.8835443,88.0620253 85.8670886,88.0924051 L85.8329114,88.1506329 C85.8126582,88.1886076 85.7911392,88.2278481 85.7708861,88.2683544 L85.7506329,88.3075949 C85.7253165,88.3607595 85.7,88.4151899 85.6759494,88.4721519 C85.6670886,88.4924051 85.6594937,88.5139241 85.6506329,88.5341772 C85.635443,88.5734177 85.6189873,88.6139241 85.6037975,88.6607595 C85.5886076,88.7075949 85.5848101,88.7126582 85.5759494,88.7392405 C85.5670886,88.7658228 85.5493671,88.8177215 85.5367089,88.8582278 C85.5240506,88.8987342 85.5189873,88.9151899 85.5113924,88.943038 C85.5037975,88.9708861 85.4860759,89.0316456 85.4746835,89.0772152 C85.4632911,89.1227848 85.4607595,89.1303797 85.4531646,89.1594937 C85.4367089,89.2291139 85.4202532,89.3012658 85.4063291,89.3772152 C85.4063291,89.4050633 85.3962025,89.4341772 85.3911392,89.4632911 C85.3810127,89.5139241 85.3721519,89.5658228 85.364557,89.6189873 C85.3582278,89.6556962 85.3544304,89.6924051 85.3493671,89.7291139 C85.3443038,89.7658228 85.3367089,89.8291139 85.3303797,89.8797468 L85.3189873,89.9962025 C85.3189873,90.0518987 85.3088608,90.1101266 85.3050633,90.1683544 C85.3050633,90.2037975 85.3050633,90.2392405 85.2987342,90.2746835 C85.2987342,90.3708861 85.2886076,90.4670886 85.2873418,90.5683544 C85.2265823,94.1126582 85.4341772,94.6329114 85.4341772,94.6329114 C85.4341772,94.6329114 85.8632911,95.7632911 87.0481013,95.8443038 C87.221999,95.857041 87.39681,95.8476838 87.5683544,95.8164557 C89.1493671,95.543038 92.8582278,94.9063291 94.1658228,95.1493671 C94.9518987,95.2949367 96.4075949,95.0797468 97.4443038,94.8835443 L97.7164557,94.8316456 L97.9063291,95.4341772 L98.5075949,95.2696203 L99.0139241,95.564557 L99.3367089,95.7493671 C99.9367089,97.7848101 102.374684,97.0911392 102.374684,97.0911392 L102.946835,97.4227848 L108.81519,97.5746835 C108.81519,97.5746835 110.081013,98.3341772 110.892405,98.5721519 C110.98888,98.6013429 111.087494,98.622928 111.187342,98.6367089 C111.731352,98.6803359 112.27753,98.6904816 112.822785,98.6670886 C113.272152,98.6556962 113.620253,98.6367089 113.620253,98.6367089 C113.620253,98.6367089 113.560759,97.043038 113.474684,95.2594937 C115.717722,95.1658228 117.706329,95.0253165 118.910127,94.8139241 C122.044304,94.2632911 123.351899,91.4139241 123.832911,89.8911392 C123.977469,90.5135336 124.08023,91.1449009 124.140506,91.7810127 C124.268227,92.3367408 124.431,92.8838263 124.627848,93.4189873 C124.799,93.8495872 125.023541,94.2569931 125.296203,94.6316456 C127.607595,93.843038 126.208861,92.6607595 125.721519,92.1443038 C125.234177,91.6278481 126.056962,91.2037975 126.056962,91.2037975 C126.056962,91.2037975 126.689873,90.7797468 126.634177,90.3848101 C126.578481,89.9898734 126.543038,89.5658228 128.610127,89.5962025 C130.677215,89.6265823 130.591648,87.8936709 130.591648,87.8936709 Z M98.4822785,68.5265823 C98.5088608,68.7 98.7974684,70.5696203 99.0582278,71.0582278 C99.1126582,71.1620253 99.1341772,71.5303797 99.1265823,72.056962 C97.9012658,71.9594937 96.6253165,71.9075949 96.6253165,71.9075949 C96.6620426,71.9519209 96.6849319,72.0060629 96.6911392,72.0632911 L96.4987342,72.0202532 L96.2189873,71.9518987 L98.4759494,68.5189873 L98.4822785,68.5265823 Z M94.0113924,75.6405063 L96.1316456,75.9772152 L96.3101266,76.0050633 C96.2493376,76.3357287 96.2125328,76.6703561 96.2,77.0063291 C96.2,77.0379747 96.2481013,77.0759494 96.3164557,77.1202532 C96.2868254,77.2873645 96.2728409,77.4568745 96.2746835,77.6265823 C96.3088608,77.7949367 97.3,78.156962 98.4367089,78.4582278 C98.421519,78.5189873 98.4063291,78.5772152 98.3911392,78.6316456 L98.3911392,78.6316456 C97.3873418,78.1037975 95.8050633,77.856962 95.6227848,77.464557 C95.4405063,77.0721519 90.0531646,75.1860759 90.0531646,75.1860759 C90.0531646,75.1860759 89.856962,75.0822785 89.5177215,74.9177215 L90.935443,75.1860759 L91.3253165,75.1468354 C92.2092224,75.3679532 93.1064321,75.5320047 94.0113924,75.6379747 L94.0113924,75.6405063 Z" id="Shape" fill="url(#linearGradient-1)" fill-rule="nonzero"></path>
                    <path d="M123.66962,89.2139241 C123.66962,89.2139241 122.826582,94.3063291 118.546835,95.0594937 C114.267089,95.8126582 99.9822785,95.6620253 99.9822785,95.6620253 C99.9822785,95.6620253 91.8151899,94.4873418 88.8620253,87.5860759 C85.9088608,80.6848101 84.0101266,77.9417722 86.5417722,77.821519 C89.0734177,77.7012658 102.725316,82.4329114 103.503797,82.4924051 C104.282278,82.5518987 124.422785,72.0050633 123.66962,89.2139241 Z" id="Path" fill="#434175" fill-rule="nonzero"></path>
                    <path d="M123.66962,89.2139241 C123.66962,89.2139241 122.826582,94.3063291 118.546835,95.0594937 C114.267089,95.8126582 99.9822785,95.6620253 99.9822785,95.6620253 C99.9822785,95.6620253 91.8151899,94.4873418 88.8620253,87.5860759 C85.9088608,80.6848101 84.0101266,77.9417722 86.5417722,77.821519 C89.0734177,77.7012658 102.725316,82.4329114 103.503797,82.4924051 C104.282278,82.5518987 124.422785,72.0050633 123.66962,89.2139241 Z" id="Path" fill="#000000" fill-rule="nonzero" opacity="0.05"></path>
                    <path d="M85.3607595,94.878481 C85.3607595,94.878481 85.7873418,96.0025316 86.9607595,96.0822785 C87.1329797,96.0944157 87.306041,96.085061 87.4759494,96.0544304 C89.043038,95.7835443 92.7202532,95.1506329 94.0151899,95.3911392 C94.7949367,95.5367089 96.2367089,95.321519 97.2632911,95.1278481 C97.9468354,95.0012658 98.4455696,94.8746835 98.4455696,94.8746835 C98.4455696,94.8746835 97.2405063,90.8670886 97.0886076,90.7468354 C96.9367089,90.6265823 91.664557,87.4620253 91.664557,87.4620253 L87.4873418,87.1620253 L87.4746835,87.1620253 C87.4746835,87.1620253 86.7012658,87.2139241 86.0594937,87.9936709 C85.6177215,88.5265823 85.2392405,89.4025316 85.2139241,90.8379747 C85.1556962,94.3658228 85.3607595,94.878481 85.3607595,94.878481 Z" id="Path" fill="#565387" fill-rule="nonzero"></path>
                    <path d="M85.3607595,94.878481 C85.3607595,94.878481 85.7873418,96.0025316 86.9607595,96.0822785 C86.5489863,95.5531149 86.168587,95.0002679 85.821519,94.4265823 L85.843038,91.5037975 C85.656962,89.3151899 86.6810127,87.9139241 87.4886076,87.1658228 L87.4759494,87.1658228 C87.4759494,87.1658228 85.2759494,87.3151899 85.2151899,90.8367089 C85.1544304,94.3582278 85.3607595,94.878481 85.3607595,94.878481 Z" id="Path" fill="#000000" fill-rule="nonzero" opacity="0.05"></path>
                    <path d="M103.478481,88.4898734 L107.365823,85.4518987 L113.483544,79.4240506 C113.483544,79.4240506 112.822785,79.3924051 111.826582,79.3493671 C111.573418,79.5075949 110.883544,80.0050633 110.858228,80.6151899 C110.827848,81.3518987 109.203797,80.6658228 108.360759,81.0873418 C107.517722,81.5088608 103.388608,86.7936709 102.664557,86.7594937 C101.940506,86.7253165 101.36962,86.3924051 101.067089,86.9050633 C101.067089,86.9164557 101.053165,86.9265823 101.04557,86.9379747 L103.478481,88.4898734 Z" id="Path" fill="#000000" fill-rule="nonzero" opacity="0.1"></path>
                    <path d="M86.0607595,87.9962025 C86.1987342,88.0632911 86.3379747,88.1227848 86.4810127,88.1886076 C89.435443,89.4544304 93.0810127,92.1126582 93.3531646,92.5886076 C93.5177215,92.8822785 95.6316456,94.1658228 97.2632911,95.1278481 C97.9468354,95.0012658 98.4455696,94.8746835 98.4455696,94.8746835 C98.4455696,94.8746835 97.2405063,90.8670886 97.0886076,90.7468354 C96.9367089,90.6265823 91.664557,87.4620253 91.664557,87.4620253 L87.4873418,87.1620253 L87.4746835,87.1620253 C87.4746835,87.1620253 86.7025316,87.2164557 86.0607595,87.9962025 Z" id="Path" fill="#000000" fill-rule="nonzero" opacity="0.1"></path>
                    <path d="M77.8632911,79.3582278 C78.2544304,80.3227848 81.5341772,84.0303797 81.5341772,84.0303797 C81.5341772,84.0303797 83.6126582,86.7417722 86.5670886,88.0075949 C89.521519,89.2734177 93.1670886,91.9316456 93.4379747,92.4075949 C93.6126582,92.7177215 95.9696203,94.135443 97.6253165,95.1101266 L97.9962025,95.3265823 L98.8189873,95.8037975 L99.2544304,96.056962 C99.2544304,96.056962 100.267089,95.2468354 101.268354,94.4316456 C102.26962,93.6164557 103.246835,92.8177215 103.263291,92.7721519 C103.292405,92.6822785 103.683544,91.656962 103.593671,91.5974684 C103.546835,91.5658228 103.340506,91.1481013 102.960759,90.664557 C102.555477,90.1278684 102.029453,89.6942129 101.425316,89.3987342 C100.032911,88.7658228 99.4367089,87.3253165 99.4367089,87.3253165 C99.4367089,87.3253165 99.3101266,87.2291139 99.1037975,87.1025316 C98.7468354,86.8772152 98.1734177,86.5531646 97.7493671,86.4987342 C97.0848101,86.4151899 95.8506329,85.0594937 95.8506329,85.0594937 C95.8506329,85.0594937 95.0063291,84.5164557 94.6746835,83.8240506 C94.3582278,83.1632911 89.6848101,79.9531646 89.2518987,79.656962 L100.582278,86.9329114 L103.293671,88.6759494 L107.181013,85.6379747 L113.3,79.6101266 C113.3,79.6101266 112.477215,79.5696203 111.274684,79.5189873 C108.301266,79.3924051 103.020253,79.1886076 102.353165,79.3392405 C101.810062,79.465792 101.24984,79.5021422 100.694937,79.4468354 C100.694937,79.4468354 99.1911392,79.5151899 98.1962025,78.9898734 C97.2012658,78.464557 95.6329114,78.2189873 95.4518987,77.8303797 C95.2708861,77.4417722 89.9367089,75.5708861 89.9367089,75.5708861 C89.9367089,75.5708861 82.6746835,71.7139241 80.0822785,74.0050633 C77.4898734,76.2962025 77.4708861,78.3949367 77.8632911,79.3582278 Z" id="Path" fill="#434175" fill-rule="nonzero"></path>
                    <path d="M101.278481,57.2392405 L102.212658,60.343038 L103.417722,67.3341772 L107.848101,67.635443 L109.13038,65.5088608 L110.41519,63.3860759 C110.41519,63.3860759 111.212658,60.5607595 111.786076,57.8278481 C112.292405,55.4101266 112.624051,53.0632911 112.072152,52.8088608 C111.583544,52.5822785 111.262025,51.7683544 111.059494,50.8924051 C111.032911,50.7848101 111.008861,50.6746835 110.986076,50.564557 C110.838444,49.822957 110.740337,49.0723528 110.692405,48.3177215 C110.692405,48.3177215 101.410127,47.8367089 102.706329,51.6632911 C102.93765,52.3169776 103.055799,53.0053257 103.055696,53.6987342 C103.05441,53.8717496 103.043847,54.0445717 103.024051,54.2164557 C102.89068,55.4238762 102.257582,56.5202048 101.278481,57.2392405 Z" id="Path" fill="#EE8E9E" fill-rule="nonzero"></path>
                    <path d="M99.3493671,56.7265823 L99.6810127,62 L100.434177,66.4898734 L101.278481,68.5696203 L102.031646,79.9468354 C102.031646,79.9468354 109.298734,80.7873418 111.065823,79.9316456 C111.193225,79.8773014 111.30379,79.789898 111.386076,79.678481 C113.520253,76.4594937 112.820253,67.1227848 112.820253,67.1227848 L113.634177,61.0936709 L113.091139,57.964557 L111.781013,57.8253165 L110.768354,57.7177215 C110.768354,57.7177215 110.540506,57.9987342 110.211392,58.4329114 C109.317722,59.6126582 107.679747,61.9329114 107.78481,62.9012658 C107.934177,64.2278481 107.603797,65.5835443 107.091139,65.7949367 C106.578481,66.0063291 106.156962,66.3670886 106.067089,66.0063291 C105.977215,65.6455696 105.886076,65.5544304 105.975949,65.0417722 C106.065823,64.5291139 105.583544,62.9620253 105.583544,62.9620253 C105.583544,62.9620253 104.770886,61.1240506 104.824051,60.3405063 C104.877215,59.556962 104.734177,58.6518987 104.492405,58.4417722 C104.250633,58.2316456 103.920253,58.0189873 104.191139,57.0493671 C104.462025,56.0797468 103.002532,54.2075949 103.002532,54.2075949 L99.3493671,56.7265823 Z" id="Path" fill="#E3E8F4" fill-rule="nonzero"></path>
                    <path d="M108.948101,69.8974684 L109.249367,78.9088608 L110.989873,79.8734177 C111.117244,79.8190203 111.227797,79.7316272 111.310127,79.6202532 C113.44557,76.3962025 112.74557,67.0607595 112.74557,67.0607595 L113.559494,61.0329114 L113.016456,57.9050633 L111.705063,57.7658228 C112.211392,55.3481013 112.543038,53.0012658 111.992405,52.7468354 C111.502532,52.5202532 111.181013,51.7063291 110.972152,50.8303797 L110.972152,50.8303797 L110.035443,57.2101266 C110.035443,57.2101266 110.113924,57.7848101 110.141772,58.3772152 C110.163291,58.8177215 110.155696,59.2632911 110.065823,59.5 C109.85443,60.043038 110.005063,61.0075949 110.005063,61.0075949 C109.462025,61.964557 109.191139,63.7379747 109.058228,65.4506329 C108.879747,67.7278481 108.948101,69.8974684 108.948101,69.8974684 Z" id="Path" fill="#000000" fill-rule="nonzero" opacity="0.1"></path>
                    <path d="M111.001266,50.6911392 C111.001266,50.6911392 112.520253,50.8797468 113.001266,51.5126582 C113.482278,52.1455696 114.749367,52.2329114 114.749367,52.2329114 C114.749367,52.2329114 116.196203,52.7151899 116.165823,52.835443 C116.135443,52.9556962 116.587342,53.1379747 117.492405,53.378481 C118.397468,53.6189873 119.897468,54.4936709 119.897468,54.7050633 C119.897468,54.9164557 122.278481,57.2658228 122.278481,57.5075949 C122.278481,57.7493671 123.002532,58.6468354 122.911392,60.2493671 C122.820253,61.8518987 122.73038,63.8658228 123.092405,64.1974684 C123.45443,64.5291139 123.092405,65.8253165 123.092405,65.8253165 C122.896258,66.1149077 122.888819,66.4927872 123.073418,66.7898734 C123.374684,67.3329114 123.013924,69.5936709 123.013924,69.5936709 L123.043038,71.9443038 C123.043038,71.9443038 122.711392,73.4202532 123.103797,73.4810127 C123.496203,73.5417722 123.043038,74.2037975 123.043038,74.2037975 C123.043038,74.2037975 122.711392,75.4101266 123.134177,75.9518987 C123.556962,76.4936709 123.675949,78.8151899 123.675949,78.8151899 L130.131646,88.1822785 C130.131646,88.1822785 130.222785,89.9 128.173418,89.8696203 C126.124051,89.8392405 126.148101,90.2620253 126.213924,90.6531646 C126.279747,91.0443038 125.641772,91.4670886 125.641772,91.4670886 C125.641772,91.4670886 124.827848,91.8886076 125.310127,92.4012658 C125.792405,92.9139241 127.178481,94.0886076 124.888608,94.8721519 C124.617623,94.5000135 124.39476,94.0951172 124.225316,93.6670886 C124.030949,93.135431 123.869878,92.5921856 123.743038,92.0405063 C123.743038,92.0405063 123.531646,89.7493671 123.110127,89.4481013 C122.688608,89.1468354 122.748101,87.7 122.748101,87.7 C122.748101,87.7 123.350633,86.5253165 122.507595,86.043038 C121.664557,85.5607595 109.41519,78.7860759 109.41519,78.7860759 L109.113924,69.7746835 C109.113924,69.7746835 108.902532,63.1151899 110.168354,60.8848101 C110.168354,60.8848101 110.017722,59.9202532 110.229114,59.378481 C110.440506,58.8367089 110.198734,57.0873418 110.198734,57.0873418 L111.001266,50.6911392 Z" id="Path" fill="#565387" fill-rule="nonzero"></path>
                    <path d="M103.102532,54.3063291 C103.102532,54.3063291 100.073418,53.6822785 99.2594937,54.1037975 C98.4455696,54.5253165 96.8544304,54.8632911 96.6012658,55.0987342 C96.3481013,55.3341772 95.756962,55.1594937 95.2151899,56.5759494 C94.6734177,57.9924051 94.6113924,59.4379747 93.9189873,60.1012658 C93.2265823,60.764557 92.864557,61.2164557 92.8341772,61.6987342 C92.8037975,62.1810127 92.9240506,62.3012658 92.6531646,62.4582278 C92.3822785,62.6151899 91.9898734,63.2417722 92.1101266,63.4835443 C92.2303797,63.7253165 98.3898734,69.021519 98.3898734,69.021519 C98.3898734,69.021519 98.6924051,71.0468354 98.9632911,71.5531646 C99.2341772,72.0594937 98.6620253,79.1177215 98.0594937,79.6 C97.456962,80.0822785 102.127848,80.0379747 102.127848,80.0379747 C102.127848,80.0379747 102.337975,75.4113924 102.518987,75.1696203 C102.7,74.9278481 102.392405,69.9797468 102.392405,69.9797468 C102.392405,69.9797468 102.362025,65.7607595 102.75443,64.6455696 C103.146835,63.5303797 103.102532,59.8278481 103.102532,59.8278481 C103.102532,59.8278481 103.449367,57.6037975 103.870886,57.0848101 C104.292405,56.5658228 103.102532,54.3063291 103.102532,54.3063291 Z" id="Path" fill="#000000" fill-rule="nonzero" opacity="0.1"></path>
                    <path d="M103.012658,54.2164557 C103.012658,54.2164557 99.9822785,53.5924051 99.1683544,54.0139241 C98.3544304,54.435443 96.7632911,54.7670886 96.5164557,55.0088608 C96.2696203,55.2506329 95.6734177,55.0683544 95.1240506,56.4848101 C94.5746835,57.9012658 94.521519,59.3481013 93.8278481,60.0113924 C93.1341772,60.6746835 92.7734177,61.1265823 92.743038,61.6088608 C92.7126582,62.0911392 92.8341772,62.2113924 92.5632911,62.3620253 C92.2924051,62.5126582 91.9,63.1455696 92.0202532,63.3860759 C92.1405063,63.6265823 98.2886076,68.9316456 98.2886076,68.9316456 C98.2886076,68.9316456 98.5898734,70.956962 98.8607595,71.4632911 C99.1316456,71.9696203 98.5594937,79.0265823 97.956962,79.5088608 C97.3544304,79.9911392 102.025316,79.9468354 102.025316,79.9468354 C102.025316,79.9468354 102.236709,75.3202532 102.417722,75.0797468 C102.598734,74.8392405 102.291139,69.8898734 102.291139,69.8898734 C102.291139,69.8898734 102.262025,65.6708861 102.653165,64.5556962 C103.044304,63.4405063 103.001266,59.7329114 103.001266,59.7329114 C103.001266,59.7329114 103.348101,57.5088608 103.768354,56.9911392 C104.188608,56.4734177 103.012658,54.2164557 103.012658,54.2164557 Z" id="Path" fill="#565387" fill-rule="nonzero"></path>
                    <path d="M102.693671,51.6632911 C102.924992,52.3169776 103.043141,53.0053257 103.043038,53.6987342 C106.092712,54.6021356 109.36532,53.308763 110.973418,50.564557 C110.825786,49.822957 110.727678,49.0723528 110.679747,48.3177215 C110.679747,48.3177215 101.398734,47.8367089 102.693671,51.6632911 Z" id="Path" fill="#000000" fill-rule="nonzero" opacity="0.1"></path>
                    <path d="M98.1139215,46.9012658 C98.1171754,50.5724455 100.993989,53.5985116 104.660313,53.7872894 C108.326638,53.9760673 111.499036,51.2614732 111.879326,47.610042 C112.259616,43.9586108 109.714674,40.6485655 106.088133,40.0778039 C102.461591,39.5070424 99.0229613,41.8753659 98.2632911,45.4670886 C98.1635686,45.9386219 98.1135065,46.4193031 98.1139215,46.9012658 L98.1139215,46.9012658 Z" id="Path" fill="#EE8E9E" fill-rule="nonzero"></path>
                    <path d="M93.6835443,62.8734177 L92.0265823,63.3860759 C92.0265823,63.3860759 92.1772152,63.9886076 91.6949367,64.2898734 C91.2126582,64.5911392 91.2734177,65.1949367 91.2734177,65.1949367 C91.2734177,65.1949367 91.0924051,65.856962 90.6708861,66.0075949 C90.2493671,66.1582278 89.9772152,67.1468354 89.9772152,67.1468354 L88.5911392,68.7443038 C88.5911392,68.7443038 88.078481,69.1658228 88.1696203,69.3772152 C88.2607595,69.5886076 87.6265823,69.6481013 87.6265823,69.6481013 L87.9582278,75.0177215 L90.821519,75.5607595 L92.5936709,75.3797468 L94.0405063,74.8367089 L95.3063291,74.0772152 L95.8835443,72.6126582 L98.4151899,68.7556962 L93.6835443,62.8734177 Z" id="Path" fill="#565387" fill-rule="nonzero"></path>
                    <path d="M88.0481013,70.0810127 C88.0481013,70.0810127 84.3772152,64.7759494 81.6291139,67.6392405 C78.8810127,70.5025316 82.7443038,75.143038 83.6481013,74.9924051 C84.5518987,74.8417722 88.8620253,74.6012658 88.8620253,74.6012658 L88.0481013,70.0810127 Z" id="Path" fill="#EE8E9E" fill-rule="nonzero"></path>
                    <path d="M85.0042199,66.78108 L85.2069034,66.78108 C87.2978535,66.78108 88.9929034,68.4761299 88.9929034,70.56708 L88.9929034,71.830523 C88.9929034,73.9214731 87.2978535,75.616523 85.2069034,75.616523 L85.0042199,75.616523 C82.9132698,75.616523 81.2182199,73.9214731 81.2182199,71.830523 L81.2182199,70.56708 C81.2182199,68.4761299 82.9132698,66.78108 85.0042199,66.78108 Z" id="Rectangle" fill="#30374E" fill-rule="nonzero" transform="translate(85.105562, 71.198802) rotate(-42.050000) translate(-85.105562, -71.198802) "></path>
                    <path d="M85.0042199,66.78108 L85.2069034,66.78108 C87.2978535,66.78108 88.9929034,68.4761299 88.9929034,70.56708 L88.9929034,71.830523 C88.9929034,73.9214731 87.2978535,75.616523 85.2069034,75.616523 L85.0042199,75.616523 C82.9132698,75.616523 81.2182199,73.9214731 81.2182199,71.830523 L81.2182199,70.56708 C81.2182199,68.4761299 82.9132698,66.78108 85.0042199,66.78108 Z" id="Rectangle" fill="#000000" fill-rule="nonzero" opacity="0.1" transform="translate(85.105562, 71.198802) rotate(-42.050000) translate(-85.105562, -71.198802) "></path>
                    <path d="M85.1077848,66.3442379 L85.3104683,66.3442379 C87.4014184,66.3442379 89.0964683,68.0392878 89.0964683,70.1302379 L89.0964683,71.3936809 C89.0964683,73.484631 87.4014184,75.1796809 85.3104683,75.1796809 L85.1077848,75.1796809 C83.0168347,75.1796809 81.3217848,73.484631 81.3217848,71.3936809 L81.3217848,70.1302379 C81.3217848,68.0392878 83.0168347,66.3442379 85.1077848,66.3442379 Z" id="Rectangle" fill="#30374E" fill-rule="nonzero" transform="translate(85.209127, 70.761959) rotate(-42.050000) translate(-85.209127, -70.761959) "></path>
                    <circle id="Oval" fill="#FFFFFF" fill-rule="nonzero" cx="85.1126582" cy="70.9797468" r="1.71772152"></circle>
                    <circle id="Oval" fill="#000000" fill-rule="nonzero" opacity="0.1" cx="85.1126582" cy="70.9797468" r="1.71772152"></circle>
                    <circle id="Oval" fill="#FFFFFF" fill-rule="nonzero" cx="85.2088608" cy="70.7620253" r="1.71772152"></circle>
                    <path d="M85.6682705,71.1911392 C85.6379747,75.1696203 93.8658228,76.0126582 93.8658228,76.0126582 L95.9670886,76.3468354 L96.9088608,76.4962025 L97.3012658,72.6126582 C97.3012658,72.6126582 96.8696203,72.5481013 96.3303797,72.4227848 C95.5341772,72.2367089 94.5025316,71.9164557 94.2860759,71.4670886 C93.9253165,70.7139241 85.6974684,67.2139241 85.6682705,71.1911392 Z" id="Path" fill="#EE8E9E" fill-rule="nonzero"></path>
                    <path d="M98.2632911,45.4670886 C98.4531229,45.4810724 98.6321557,45.560742 98.7696203,45.6924051 C99.0025316,45.9392405 99.0151899,46.3772152 99.3177215,46.5291139 C99.4307758,46.5783168 99.5558909,46.5928548 99.6772152,46.5708861 C100.478481,46.456962 100.943038,45.5582278 101.711392,45.3050633 C102.149367,45.1632911 102.631646,45.2556962 103.059494,45.4202532 C103.231541,45.4741664 103.385892,45.5734233 103.506329,45.7075949 C103.759494,46.0405063 103.583544,46.5303797 103.702532,46.9341772 C103.868354,47.4936709 104.536709,47.7164557 105.11519,47.7898734 C105.693671,47.8632911 106.34557,47.9037975 106.731646,48.3405063 C107.005063,48.6506329 107.074684,49.1 107.018987,49.5063291 C106.984863,49.6481876 106.984863,49.7961162 107.018987,49.9379747 C107.178481,50.3898734 107.960759,50.3177215 108.164557,49.9658228 C108.313924,49.7063291 108.268354,49.4911392 108.620253,49.4189873 C108.858228,49.3696203 109.137975,49.4696203 109.358228,49.5455696 C109.971731,49.757239 110.618333,49.8567162 111.267089,49.8392405 C112.386408,47.4366712 112.031137,44.6053641 110.352921,42.5538272 C108.674705,40.5022902 105.96998,39.5929046 103.393225,40.2138302 C100.816471,40.8347558 98.8228405,42.8763129 98.2632911,45.4670886 L98.2632911,45.4670886 Z" id="Path" fill="#000000" fill-rule="nonzero" opacity="0.1"></path>
                    <path d="M107.01519,49.7556962 C106.981065,49.6138377 106.981065,49.4659091 107.01519,49.3240506 C107.06962,48.9151899 107.001266,48.4670886 106.727848,48.1582278 C106.348101,47.721519 105.689873,47.6797468 105.111392,47.6075949 C104.532911,47.535443 103.864557,47.3126582 103.698734,46.7531646 C103.579747,46.3493671 103.759494,45.8582278 103.502532,45.5253165 C103.382826,45.3911679 103.228762,45.2922519 103.056962,45.2392405 C102.627848,45.0734177 102.14557,44.9860759 101.707595,45.1227848 C100.939241,45.3759494 100.474684,46.2772152 99.6734177,46.3886076 C99.5520935,46.4105763 99.4269784,46.3960383 99.3139241,46.3468354 C99.0113924,46.1949367 98.9987342,45.756962 98.7658228,45.5113924 C98.4,45.1240506 97.7050633,45.3734177 97.256962,45.0860759 C96.964557,44.8974684 96.8518987,44.5316456 96.7708861,44.1936709 C96.6113924,43.5379747 96.4835443,42.8506329 96.6367089,42.1949367 C96.8987342,41.0734177 97.9025316,40.3050633 98.535443,39.3481013 C99.1316456,38.4556962 99.4658228,37.3227848 100.362025,36.735443 C101.258228,36.1481013 102.408861,36.278481 103.418987,36.578481 C103.892405,36.7189873 104.360759,36.8936709 104.850633,36.9582278 C105.665823,37.0582278 106.483544,36.8316456 107.303797,36.8088608 C108.462343,36.7714306 109.600893,37.1171335 110.543038,37.7924051 C110.755322,37.9314205 110.93567,38.1139258 111.072152,38.3278481 C111.235443,38.6164557 111.256962,38.9607595 111.306329,39.2873418 C111.402053,39.9103098 111.616942,40.5089913 111.939241,41.0506329 C112.192405,41.4746835 112.510127,41.8594937 112.739241,42.2974684 C112.968354,42.735443 113.102532,43.2531646 112.955696,43.7240506 C112.878481,43.9772152 112.725316,44.1962025 112.668354,44.4506329 C112.534177,45.0392405 112.921519,45.6012658 113.186076,46.1443038 C113.442308,46.6395878 113.563672,47.1935866 113.537975,47.7506329 C113.508048,48.3112623 113.24675,48.8343159 112.816456,49.1949367 C112.389873,49.5291139 111.829114,49.6405063 111.288608,49.6582278 C110.627247,49.6805298 109.9674,49.5814241 109.341772,49.3658228 C109.120253,49.2898734 108.835443,49.1898734 108.603797,49.2392405 C108.251899,49.3113924 108.297468,49.5265823 108.148101,49.7860759 C107.955696,50.1405063 107.174684,50.2075949 107.01519,49.7556962 Z" id="Path" fill="#434175" fill-rule="nonzero"></path>
                    <path d="M103.297468,88.6708861 L107.18481,85.6329114 L113.303797,79.6050633 C113.303797,79.6050633 112.481013,79.564557 111.278481,79.5139241 C111.059494,79.7367089 110.864557,80.0202532 110.851899,80.3367089 C110.821519,81.0734177 109.197468,80.3886076 108.35443,80.8101266 C107.511392,81.2316456 103.382278,86.5151899 102.658228,86.4810127 C101.934177,86.4468354 101.363291,86.1139241 101.060759,86.6265823 C101.054334,86.6384283 101.047146,86.6498447 101.039241,86.6607595 C100.918974,86.7981039 100.75799,86.8934527 100.579747,86.9329114 L103.297468,88.6708861 Z" id="Path" fill="#000000" fill-rule="nonzero" opacity="0.1"></path>
                    <path d="M95.4620253,88.4594937 L97.4151899,94.6949367 L97.721519,95.6746835 L98.6518987,95.421519 L100.702532,94.8582278 L109.836709,92.3493671 C109.836709,92.3493671 111.553165,92.3265823 113.127848,91.4721519 C114.868354,90.5253165 116.831646,90.0493671 118.803797,90.2341772 C120.011392,90.3468354 121.35443,89.8265823 122.474684,87.7683544 C122.474684,87.7683544 125.006329,80.3 118.616456,78.1481013 C112.226582,75.9962025 111.922785,79.2873418 111.922785,79.2873418 C111.922785,79.2873418 111.889873,79.3050633 111.836709,79.3405063 C111.583544,79.4987342 110.893671,79.9962025 110.868354,80.6063291 C110.837975,81.343038 109.213924,80.656962 108.370886,81.078481 C107.527848,81.5 103.398734,86.7848101 102.674684,86.7506329 C101.950633,86.7164557 101.379747,86.3835443 101.077215,86.8962025 C101.077215,86.9075949 101.063291,86.9177215 101.055696,86.9291139 C100.832911,87.2367089 100.162025,87.3088608 99.7177215,87.3202532 C99.4759494,87.3278481 99.3,87.3202532 99.3,87.3202532 L99.243038,87.3379747 L98.7696203,87.4696203 L95.4620253,88.4594937 Z" id="Path" fill="#434175" fill-rule="nonzero"></path>
                    <path d="M95.9670886,76.3468354 L96.9088608,76.4962025 L97.3012658,72.6126582 C97.3012658,72.6126582 96.8696203,72.5481013 96.3303797,72.4227848 C96.4734177,72.9607595 96.1493671,75.0582278 95.9670886,76.3468354 Z" id="Path" fill="#000000" fill-rule="nonzero" opacity="0.1"></path>
                    <path d="M120.610127,58.1822785 C120.610127,58.1822785 123.412658,57.3683544 122.718987,65.3253165 C122.025316,73.2822785 116.843038,78.3088608 116.843038,78.3088608 C116.843038,78.3088608 110.875949,80.9303797 108.193671,80.5088608 C105.511392,80.0873418 103.553165,80.0025316 103.553165,80.0025316 C102.708968,79.57579 101.785116,79.3296305 100.840506,79.2797468 C99.3329114,79.2189873 96.1696203,78.2848101 96.1088608,77.9835443 C96.0481013,77.6822785 96.8924051,73.2518987 96.5303797,72.9202532 C96.5303797,72.9202532 100.749367,73.0936709 101.172152,73.3987342 C101.594937,73.7037975 102.196203,73.4848101 102.648101,73.3987342 C103.1,73.3126582 104.487342,72.1063291 107.229114,73.1620253 C107.229114,73.1620253 108.163291,73.2518987 108.525316,73.0113924 C108.887342,72.7708861 109.467089,72.9506329 109.467089,72.9506329 C109.467089,72.9506329 110.035443,72.7392405 110.122785,72.6126582 C110.210127,72.4860759 110.935443,72.6126582 110.935443,72.6126582 C111.02268,72.6552741 111.124502,72.6561873 111.21249,72.615143 C111.300477,72.5740987 111.365205,72.4954928 111.388608,72.4012658 C111.48328,72.1545481 111.626632,71.9294042 111.810127,71.7392405 C111.810127,71.7392405 112.624051,67.1582278 114.160759,65.4405063 C114.160759,65.4405063 114.612658,65.0481013 114.492405,64.5658228 C114.372152,64.0835443 116.997468,57.2164557 120.610127,58.1822785 Z" id="Path" fill="#000000" fill-rule="nonzero" opacity="0.1"></path>
                    <path d="M120.541772,57.5696203 C120.541772,57.5696203 123.344304,56.7556962 122.651899,64.7126582 C121.959494,72.6696203 116.768354,77.7012658 116.768354,77.7012658 C116.768354,77.7012658 110.801266,80.3227848 108.118987,79.9012658 C105.436709,79.4797468 103.478481,79.3886076 103.478481,79.3886076 C102.634378,78.961622 101.710473,78.7154486 100.765823,78.6658228 C99.2594937,78.6050633 96.0949367,77.6708861 96.0341772,77.3696203 C95.9734177,77.0683544 96.8177215,72.6379747 96.456962,72.3063291 C96.456962,72.3063291 100.675949,72.4797468 101.097468,72.7848101 C101.518987,73.0898734 102.122785,72.8708861 102.574684,72.7848101 C103.026582,72.6987342 104.412658,71.4936709 107.155696,72.5481013 C107.155696,72.5481013 108.089873,72.6379747 108.450633,72.3974684 C108.811392,72.156962 109.393671,72.3367089 109.393671,72.3367089 C109.393671,72.3367089 109.958228,72.1253165 110.048101,72.0050633 C110.137975,71.8848101 110.862025,72.0050633 110.862025,72.0050633 C110.948908,72.0477152 111.050419,72.0487864 111.138183,72.0079776 C111.225946,71.9671689 111.290546,71.8888582 111.313924,71.7949367 C111.408384,71.547737 111.551751,71.3221383 111.735443,71.1316456 C111.735443,71.1316456 112.549367,66.5506329 114.086076,64.8329114 C114.086076,64.8329114 114.537975,64.4405063 114.417722,63.9594937 C114.297468,63.478481 116.918987,56.6050633 120.541772,57.5696203 Z" id="Path" fill="#565387" fill-rule="nonzero"></path>
                    <path d="M98.7696203,87.4696203 L102.749367,92.2797468 C102.764557,92.2658228 102.774684,92.2556962 102.774684,92.2518987 C102.805063,92.1607595 103.196203,91.1367089 103.106329,91.0759494 C103.016456,91.0151899 102.322785,89.5088608 100.936709,88.8759494 C100.089873,88.4962025 99.535443,87.8012658 99.2329114,87.3253165 L98.7696203,87.4696203 Z" id="Path" fill="#000000" fill-rule="nonzero" opacity="0.1"></path>
                    <path d="M98.8240506,95.8037975 L99.2594937,96.056962 C99.2594937,96.056962 100.272152,95.2468354 101.273418,94.4316456 C102.274684,93.6164557 103.251899,92.8177215 103.268354,92.7721519 C103.297468,92.6822785 103.688608,91.656962 103.598734,91.5974684 C103.551899,91.5658228 103.34557,91.1481013 102.965823,90.664557 C100.267089,89.9050633 101.98481,91.7822785 102.213924,91.8683544 C102.213924,91.8683544 98.9227848,91.1088608 98.7481013,94.6924051 C98.7242274,95.0645976 98.749766,95.4383128 98.8240506,95.8037975 Z" id="Path" fill="#000000" fill-rule="nonzero" opacity="0.1"></path>
                    <path d="M102.151899,97.3202532 L102.725316,97.6518987 L108.548101,97.8025316 C108.548101,97.8025316 109.796203,98.5620253 110.606329,98.7924051 C110.701791,98.8221763 110.799612,98.8437731 110.898734,98.856962 C111.437671,98.9005879 111.978794,98.9107339 112.518987,98.8873418 C112.964557,98.8759494 113.310127,98.856962 113.310127,98.856962 C113.310127,98.856962 113.034177,91.5151899 112.826582,90.7556962 C112.727848,90.3860759 112.240506,90.4670886 111.759494,90.6518987 C111.398112,90.7984632 111.049638,90.9750294 110.717722,91.1797468 C110.717722,91.1797468 108.246835,91.4189873 107.85443,91.6316456 C107.462025,91.8443038 106.348101,91.5050633 105.65443,91.6316456 C104.960759,91.7582278 103.726582,90.8151899 103.726582,90.8151899 C100.350633,89.7012658 102.249367,91.7797468 102.489873,91.8708861 C102.489873,91.8708861 99.2063291,91.1113924 99.0253165,94.6949367 C98.8443038,98.278481 102.151899,97.3202532 102.151899,97.3202532 Z" id="Path" fill="#565387" fill-rule="nonzero"></path>
                    <path d="M110.560759,94.4873418 C110.624051,96.0063291 111.807595,97.8911392 112.512658,98.8873418 C112.958228,98.8759494 113.303797,98.856962 113.303797,98.856962 C113.303797,98.856962 113.027848,91.5151899 112.820253,90.7556962 C112.721519,90.3860759 112.234177,90.4670886 111.753165,90.6518987 C111.174684,91.7405063 110.510127,93.2632911 110.560759,94.4873418 Z" id="Path" fill="#565387" fill-rule="nonzero"></path>
                    <path d="M110.560759,94.4873418 C110.624051,96.0063291 111.807595,97.8911392 112.512658,98.8873418 C112.958228,98.8759494 113.303797,98.856962 113.303797,98.856962 C113.303797,98.856962 113.027848,91.5151899 112.820253,90.7556962 C112.721519,90.3860759 112.234177,90.4670886 111.753165,90.6518987 C111.174684,91.7405063 110.510127,93.2632911 110.560759,94.4873418 Z" id="Path" fill="#000000" fill-rule="nonzero" opacity="0.1"></path>
                    <path d="M109.565823,94.6886076 C109.965823,96.1544304 109.962025,97.7987342 110.6,98.7924051 C110.695462,98.8221763 110.793283,98.8437731 110.892405,98.856962 C111.431341,98.9005879 111.972465,98.9107339 112.512658,98.8873418 C112.958228,98.8759494 113.303797,98.856962 113.303797,98.856962 C113.303797,98.856962 113.027848,91.5151899 112.820253,90.7556962 C112.721519,90.3860759 112.234177,90.4670886 111.753165,90.6518987 C111.391783,90.7984632 111.043309,90.9750294 110.711392,91.1797468 C110.711392,91.1797468 109.05443,92.8126582 109.565823,94.6886076 Z" id="Path" fill="#000000" fill-rule="nonzero" opacity="0.05"></path>
                    <path d="M89.5,79.8202532 C89.5,79.8202532 92.3886076,80.7582278 94.8367089,84.0898734 L89.5,79.8202532 Z" id="Path" fill="#000000" fill-rule="nonzero" opacity="0.1"></path>
                    <g id="Group" opacity="0.1" transform="translate(96.455696, 41.518987)" fill="#000000" fill-rule="nonzero">
                        <path d="M16.5202532,2.13924051 C16.5155243,2.16064987 16.509608,2.18177957 16.5025316,2.20253165 C16.4748597,2.28904775 16.4414523,2.37362336 16.4025316,2.4556962 C16.4322517,2.3469099 16.4716494,2.2410021 16.5202532,2.13924051 Z" id="Path"></path>
                        <path d="M0.175949367,0.67721519 C0.226041843,0.466039922 0.301261718,0.261628851 0.4,0.0683544304 C0.384810127,0.120253165 0.36835443,0.172151899 0.355696203,0.225316456 C0.202531646,0.881012658 0.330379747,1.56835443 0.489873418,2.22405063 C0.572151899,2.56202532 0.683544304,2.9278481 0.975949367,3.1164557 C1.42531646,3.40379747 2.11518987,3.15316456 2.48481013,3.54050633 C2.71772152,3.78734177 2.73037975,4.22531646 3.03417722,4.37721519 C3.14721147,4.42649248 3.27234909,4.44103312 3.39367089,4.41898734 C4.19367089,4.30506329 4.65949367,3.40632911 5.4278481,3.15316456 C5.86582278,3.01139241 6.34683544,3.10379747 6.77594937,3.26962025 C6.94774916,3.32263166 7.10181295,3.42154762 7.22151899,3.5556962 C7.47468354,3.88860759 7.29873418,4.37974684 7.41772152,4.78227848 C7.5835443,5.34177215 8.25189873,5.56455696 8.83037975,5.63670886 C9.40886076,5.70886076 10.0607595,5.75063291 10.4468354,6.18860759 C10.7202532,6.49746835 10.7898734,6.94810127 10.7341772,7.35443038 C10.7006671,7.49636111 10.7006671,7.64414522 10.7341772,7.78607595 C10.8936709,8.23797468 11.6759494,8.16582278 11.8734177,7.81392405 C12.0227848,7.55443038 11.978481,7.33924051 12.3303797,7.26708861 C12.5670886,7.21772152 12.8468354,7.31772152 13.0670886,7.39367089 C13.6927169,7.60927215 14.3525639,7.70837792 15.0139241,7.68607595 C15.5544304,7.66708861 16.1164557,7.55949367 16.5417722,7.22278481 C16.7361061,7.06785407 16.8956786,6.87377932 17.0101266,6.65316456 C16.9109789,7.05483893 16.6845064,7.41364245 16.364557,7.67594937 C15.9392405,8.01012658 15.378481,8.12151899 14.8367089,8.13924051 C14.1757567,8.16164543 13.5163061,8.06253475 12.8911392,7.84683544 C12.6696203,7.77088608 12.3848101,7.67088608 12.1531646,7.72025316 C11.8012658,7.79240506 11.8455696,8.00759494 11.6974684,8.26708861 C11.4924051,8.62405063 10.7113924,8.69113924 10.5506329,8.23924051 C10.5171228,8.09730978 10.5171228,7.94952566 10.5506329,7.80759494 C10.6063291,7.39873418 10.5379747,6.95063291 10.264557,6.64177215 C9.87721519,6.20506329 9.22531646,6.16329114 8.64683544,6.09113924 C8.06835443,6.01898734 7.4,5.79620253 7.23544304,5.23670886 C7.11518987,4.83291139 7.29620253,4.34177215 7.03924051,4.00886076 C6.91885303,3.87491138 6.76444524,3.77605541 6.59240506,3.72278481 C6.16329114,3.55696203 5.68227848,3.46962025 5.2443038,3.60632911 C4.47468354,3.85949367 4.01012658,4.76075949 3.21012658,4.8721519 C3.08880479,4.89419767 2.96366717,4.87965703 2.85063291,4.83037975 C2.54683544,4.67848101 2.53417722,4.24050633 2.30126582,3.99493671 C1.93544304,3.60759494 1.24177215,3.85696203 0.793670886,3.56962025 C0.5,3.38101266 0.388607595,3.01518987 0.306329114,2.67721519 C0.149367089,2.02025316 0.0215189873,1.33291139 0.175949367,0.67721519 Z" id="Path"></path>
                    </g>
                    <path d="M113.443038,66.3164557 C112.891139,67.0620253 112.260759,67.7518987 111.772152,68.5405063 C111.283544,69.3291139 110.937975,70.2493671 111.040506,71.1708861 C111.546835,70.6518987 111.777215,69.935443 112.096203,69.2848101 C112.635443,68.1835443 113.443038,67.2493671 114.121519,66.2367089 C114.248101,66.043038 115.08481,64.9265823 114.663291,64.8734177 C114.316456,64.8291139 113.631646,66.0620253 113.443038,66.3164557 Z" id="Path" fill="#000000" fill-rule="nonzero" opacity="0.1"></path>
                </g>
            </g>
        </g>
    </g>
</svg>