<?xml version="1.0" encoding="UTF-8"?>
<svg width="46px" height="35px" viewBox="0 0 46 35" version="1.1" xmlns="http://www.w3.org/2000/svg" xmlns:xlink="http://www.w3.org/1999/xlink">
    <title>Shape</title>
    <g id="final" stroke="none" stroke-width="1" fill="none" fill-rule="evenodd">
        <g id="add-Inventory1" transform="translate(-630.000000, -1896.000000)" fill="#FBDDA2" fill-rule="nonzero">
            <g id="Group-11" transform="translate(402.500000, 1597.900000)">
                <g id="Group-10" transform="translate(38.500000, 248.100000)">
                    <g id="Group-3" transform="translate(81.000000, 50.500000)">
                        <g id="whh:cloudaltupload" transform="translate(108.500000, 0.000000)">
                            <path d="M34,34 L9.91666667,34 C7.171875,34 4.83289931,33.0334201 2.89973958,31.1002604 C0.966579861,29.1671007 0,26.828125 0,24.0833333 C0,21.6041667 0.811631944,19.4348958 2.43489583,17.5755208 C4.05815972,15.7161458 6.07986111,14.6241319 8.5,14.2994792 L8.5,14.1666667 C8.5,11.5989583 9.13454861,9.23046875 10.4036458,7.06119792 C11.6727431,4.89192708 13.3919271,3.17274306 15.5611979,1.90364583 C17.7304687,0.634548611 20.0989583,0 22.6666667,0 C25.6180556,0 28.281684,0.826388889 30.6575521,2.47916667 C33.0334201,4.13194444 34.7526042,6.28645833 35.8151042,8.94270833 C38.5894097,9.65104167 40.8693576,11.1488715 42.6549479,13.4361979 C44.4405382,15.7235243 45.3333333,18.328125 45.3333333,21.25 C45.3333333,24.5260417 44.2413194,27.3815104 42.0572917,29.8164062 C39.8732639,32.2513021 37.1875,33.6458333 34,34 Z M30.9010417,18.1510417 L23.5078125,11.7317708 C23.2717014,11.4661458 22.9913194,11.3333333 22.6666667,11.3333333 C22.3420139,11.3333333 22.0616319,11.4661458 21.8255208,11.7317708 L14.4322917,18.1510417 C14.1961806,18.4166667 14.1223958,18.7634549 14.2109375,19.1914062 C14.2994792,19.6193576 14.4618056,19.8333333 14.6979167,19.8333333 L19.8333333,19.8333333 L19.8333333,26.9166667 C19.8333333,27.3003472 19.9735243,27.6323785 20.2539063,27.9127604 C20.5342882,28.1931424 20.8663194,28.3333333 21.25,28.3333333 L24.0833333,28.3333333 C24.4670139,28.3333333 24.7990451,28.1931424 25.0794271,27.9127604 C25.359809,27.6323785 25.5,27.3003472 25.5,26.9166667 L25.5,19.8333333 L30.6354167,19.8333333 C30.8715278,19.8333333 31.0338542,19.6193576 31.1223958,19.1914062 C31.2109375,18.7634549 31.1371528,18.4166667 30.9010417,18.1510417 Z" id="Shape"></path>
                        </g>
                    </g>
                </g>
            </g>
        </g>
    </g>
</svg>