<?xml version="1.0" encoding="UTF-8"?>
<svg width="185px" height="88px" viewBox="0 0 185 88" version="1.1" xmlns="http://www.w3.org/2000/svg" xmlns:xlink="http://www.w3.org/1999/xlink">
    <title>vendor-logo</title>
    <g id="Page-1" stroke="none" stroke-width="1" fill="none" fill-rule="evenodd">
        <g id="shipping-details" transform="translate(-919.000000, -43.000000)">
            <g id="vendor-logo" transform="translate(919.000000, 43.000000)">
                <path d="M22.0310939,40.799404 C26.1857939,40.799404 30.4648152,42.498316 32.5421381,47.0222096 L42.9288066,47.0222096 C39.9696757,38.1607098 31.4737665,32 22.0310939,32 C9.94581875,32 0,41.9311089 0,54.0014901 C0,66.0689995 9.94581875,76 22.0310939,76 C34.2435665,76 44,66.1307702 44,54.0014901 L44,52.5536707 L22.912902,52.5536707 L22.912902,59.6567636 L33.8026624,59.6567636 C31.4737665,66.1307702 26.1857939,67.451797 22.0310939,67.451797 C15.2310239,67.451797 9.56710251,61.3527496 9.56710251,54.1255734 C9.56710251,46.8980179 15.2310239,40.799404 22.0310939,40.799404 Z" id="Path" fill="#7CB340" fill-rule="nonzero"></path>
                <path d="M133,56.9251036 C133,49.2081556 129.913643,44 122.326905,44 C118.597003,44 115.574391,45.6715675 113.645418,48.1168918 L113.645418,44.6438273 L104,44.6438273 L104,73 L113.645418,73 L113.645418,58.8535369 C113.645418,54.9966703 116.024485,51.7805824 119.047097,51.7805824 C122.069708,51.7805824 123.354582,53.5820795 123.354582,56.9251036 L123.354582,73 L133,73 L133,56.9251036 Z" id="Path" fill="#7CB340" fill-rule="nonzero"></path>
                <path d="M134,87.2521512 C135.4295,87.7510755 136.977013,88 138.286447,88 C145.608914,88 148.524355,81.2655976 148.524355,74.4666792 L148.524355,44.9053625 L138.999658,44.9053625 L138.999658,74.2177547 C138.999658,76.5247418 139.299309,79.2693629 136.680441,79.2693629 C135.309434,79.2693629 134,78.272052 134,78.272052 L134,87.2521512 Z M138.524013,35.4883282 C138.524013,38.4817126 140.905316,40.9767103 143.762263,40.9767103 C146.618697,40.9767103 149,38.4817126 149,35.4883282 C149,32.4333311 146.618697,30 143.762263,30 C140.905316,30 138.524013,32.4333311 138.524013,35.4883282 Z" id="Shape" fill="#7CB340" fill-rule="nonzero"></path>
                <path d="M163.940081,55.1980531 C163.940081,55.1980531 164.250992,50.0384221 170.054475,50.0384221 C175.674818,50.0384221 176.107644,55.1980531 176.107644,55.1980531 L163.940081,55.1980531 Z M185,57.9012334 C185,49.0328499 178.145598,44 169.868674,44 C160.729293,44 154,49.8518837 154,58.5308005 C154,67.3371491 160.482801,73 169.868674,73 C177.094678,73 182.900823,69.3505711 184.506483,62.0527977 L175.056724,62.0527977 C174.995501,64.0667619 172.957547,66.2694336 169.685535,66.2694336 C166.041921,66.2694336 163.818166,62.8716146 163.818166,59.6635876 L184.938776,59.6635876 C184.938776,59.0985497 185,58.4689826 185,57.9012334 Z" id="Shape" fill="#7CB340" fill-rule="nonzero"></path>
                <path d="M63.4332425,36.7126786 L63.4444563,36.7067959 L63.456204,36.7008053 L83.9933439,26 L93.7588981,46.1140599 L93.8160347,46.232523 L93.8801132,46.3476939 C94.4274498,47.3355519 94.9315336,48.7856048 95.3288199,50.3823468 C95.6892611,51.8314283 95.9023219,53.1569195 95.9920317,53.9297629 C96.2195102,62.1795428 91.5182887,68.8609686 89.3358838,70.9506681 L89.3241361,70.961462 L89.3123884,70.9727956 C79.595427,80.4007299 67.5897973,76.7529305 62.5724555,73.4920925 C51.3555246,65.5893366 52.2611666,53.2659379 54.1450727,48.0920965 L54.1824518,47.9890148 L54.215025,47.8843139 C56.1208246,41.8173311 61.3058383,37.8065327 63.4332425,36.7126786 Z" id="Path" stroke="#FDD835" stroke-width="10"></path>
                <path d="M97.8303119,3.78997104 C90.3071524,7.89954209 86.8088322,15.5747798 86,18.898729 C93.2800268,15.3934783 102.885648,23.3809545 106.778455,27.812869 C111.631985,34.9442023 116.283173,33.2016552 118.002276,31.4389516 C121.157098,26.3624573 116.081367,21.7693978 113.148746,20.1074232 C102.713898,12.734319 91.3081292,15.5244153 86.909735,17.8410748 C92.3702918,8.17146754 106.02061,12.8552044 113.148746,10.7400029 C118.851899,9.04782031 118.052728,4.59574936 116.940651,2.58122335 C112.572312,-2.61616715 102.38006,1.2214624 97.8303119,3.78997104 Z" id="Path" fill="#7CB340" fill-rule="nonzero"></path>
            </g>
        </g>
    </g>
</svg>