<?xml version="1.0" encoding="UTF-8"?>
<svg width="20px" height="19px" viewBox="0 0 20 19" version="1.1" xmlns="http://www.w3.org/2000/svg" xmlns:xlink="http://www.w3.org/1999/xlink">
    <!-- Generator: Sketch 61.2 (89653) - https://sketch.com -->
    <title>ic:round-dashboard-customize</title>
    <desc>Created with Sketch.</desc>
    <g id="final" stroke="none" stroke-width="1" fill="none" fill-rule="evenodd">
        <g id="Dashboard-Vendor" transform="translate(-28.000000, -131.000000)" fill-rule="nonzero">
            <g id="ic:round-dashboard-customize" transform="translate(27.676538, 130.066250)">
                <path d="M1.98,0.935 L8.25,0.935 C8.82475,0.935 9.295,1.40525 9.295,1.98 L9.295,8.25 C9.295,8.82475 8.82475,9.295 8.25,9.295 L1.98,9.295 C1.40525,9.295 0.935,8.82475 0.935,8.25 L0.935,1.98 C0.935,1.40525 1.40525,0.935 1.98,0.935 Z" id="Path" fill="#A851E4"></path>
                <path d="M12.43,0.935 L18.7,0.935 C19.27475,0.935 19.745,1.40525 19.745,1.98 L19.745,8.25 C19.745,8.82475 19.27475,9.295 18.7,9.295 L12.43,9.295 C11.85525,9.295 11.385,8.82475 11.385,8.25 L11.385,1.98 C11.385,1.40525 11.85525,0.935 12.43,0.935 Z" id="Path" fill="#56AF30"></path>
                <path d="M1.98,11.385 L8.25,11.385 C8.82475,11.385 9.295,11.85525 9.295,12.43 L9.295,18.7 C9.295,19.27475 8.82475,19.745 8.25,19.745 L1.98,19.745 C1.40525,19.745 0.935,19.27475 0.935,18.7 L0.935,12.43 C0.935,11.85525 1.40525,11.385 1.98,11.385 Z" id="Path" fill="#643FEA"></path>
                <path d="M15.565,11.385 C14.99025,11.385 14.52,11.85525 14.52,12.43 L14.52,14.52 L12.43,14.52 C11.85525,14.52 11.385,14.99025 11.385,15.565 C11.385,16.13975 11.85525,16.61 12.43,16.61 L14.52,16.61 L14.52,18.7 C14.52,19.27475 14.99025,19.745 15.565,19.745 C16.13975,19.745 16.61,19.27475 16.61,18.7 L16.61,16.61 L18.7,16.61 C19.27475,16.61 19.745,16.13975 19.745,15.565 C19.745,14.99025 19.27475,14.52 18.7,14.52 L16.61,14.52 L16.61,12.43 C16.61,11.85525 16.13975,11.385 15.565,11.385 Z" id="Path" fill="#FF4492"></path>
            </g>
        </g>
    </g>
</svg>