<?xml version="1.0" encoding="UTF-8"?>
<svg width="15px" height="15px" viewBox="0 0 15 15" version="1.1" xmlns="http://www.w3.org/2000/svg" xmlns:xlink="http://www.w3.org/1999/xlink">
    <!-- Generator: Sketch 61.2 (89653) - https://sketch.com -->
    <title>entypo:wallet</title>
    <desc>Created with Sketch.</desc>
    <g id="Page-1" stroke="none" stroke-width="1" fill="none" fill-rule="evenodd">
        <g id="Drop_down" transform="translate(-1327.000000, -385.000000)" fill="#3880CD" fill-rule="nonzero">
            <g id="Group-5" transform="translate(1302.000000, 101.078750)">
                <g id="entypo:wallet" transform="translate(24.375000, 283.210781)">
                    <path d="M13.423674,4.28156122 L2.17367396,4.28156122 L2.17367396,3.83156122 L12.073674,3.03956122 L12.073674,3.83156122 L13.423674,3.83156122 L13.423674,2.48156122 C13.423674,1.49156122 12.621774,0.796761225 11.642574,0.936261225 L2.60567396,2.22686122 C1.62557396,2.36726122 0.823673955,3.29156122 0.823673955,4.28156122 L0.823673955,13.2815612 C0.823673955,14.2756738 1.62956141,15.0815612 2.62367396,15.0815612 L13.423674,15.0815612 C14.4177865,15.0815612 15.223674,14.2756738 15.223674,13.2815612 L15.223674,6.08156122 C15.223674,5.08744868 14.4177865,4.28156122 13.423674,4.28156122 Z M12.073674,10.5869613 C11.5912046,10.5868005 11.1454704,10.3292576 10.9043749,9.91134652 C10.6632795,9.49343545 10.663451,8.97864681 10.9048249,8.5608965 C11.1461988,8.1431462 11.5921046,7.88590044 12.074574,7.88606115 C12.8204069,7.88630978 13.4248224,8.4911283 13.424574,9.23696122 C13.4243254,9.98279415 12.8195069,10.5872097 12.073674,10.5869613 L12.073674,10.5869613 Z" id="Shape"></path>
                </g>
            </g>
        </g>
    </g>
</svg>